<mxfile host="Electron" agent="Mozilla/5.0 (Macintosh; Intel Mac OS X 10_15_7) AppleWebKit/537.36 (KHTML, like Gecko) draw.io/26.2.2 Chrome/134.0.6998.178 Electron/35.1.2 Safari/537.36" version="26.2.2">
  <diagram name="第 1 页" id="9JIiG7YPZ_p7PhIR82qt">
    <mxGraphModel dx="521" dy="429" grid="1" gridSize="10" guides="1" tooltips="1" connect="1" arrows="1" fold="1" page="1" pageScale="1" pageWidth="1169" pageHeight="827" math="0" shadow="0">
      <root>
        <mxCell id="0" />
        <mxCell id="1" parent="0" />
        <mxCell id="QRGypccLNdDq8GzX22bj-478" value="" style="rounded=1;whiteSpace=wrap;html=1;dashed=1;fillColor=none;arcSize=3;strokeWidth=3;" parent="1" vertex="1">
          <mxGeometry x="549.43" y="2565" width="730" height="330" as="geometry" />
        </mxCell>
        <mxCell id="QRGypccLNdDq8GzX22bj-440" style="edgeStyle=orthogonalEdgeStyle;rounded=0;orthogonalLoop=1;jettySize=auto;html=1;fontFamily=Courier New;fontStyle=1;strokeWidth=2;endSize=3;startSize=3;endArrow=block;endFill=1;exitX=0.5;exitY=1;exitDx=0;exitDy=0;entryX=0.003;entryY=0.103;entryDx=0;entryDy=0;entryPerimeter=0;" parent="1" target="QRGypccLNdDq8GzX22bj-252" edge="1">
          <mxGeometry relative="1" as="geometry">
            <mxPoint x="1038.43" y="2670.17" as="sourcePoint" />
            <mxPoint x="598.4300000000001" y="2779.17" as="targetPoint" />
            <Array as="points">
              <mxPoint x="1038.43" y="2730" />
              <mxPoint x="579.4300000000001" y="2730" />
              <mxPoint x="579.4300000000001" y="2753" />
              <mxPoint x="598.4300000000001" y="2753" />
            </Array>
          </mxGeometry>
        </mxCell>
        <mxCell id="QRGypccLNdDq8GzX22bj-382" style="edgeStyle=orthogonalEdgeStyle;rounded=0;orthogonalLoop=1;jettySize=auto;html=1;fontFamily=Courier New;fontStyle=1;strokeWidth=2;endSize=3;startSize=3;endArrow=block;endFill=1;exitX=0.999;exitY=0.527;exitDx=0;exitDy=0;exitPerimeter=0;entryX=0;entryY=0.5;entryDx=0;entryDy=0;" parent="1" source="QRGypccLNdDq8GzX22bj-186" target="QRGypccLNdDq8GzX22bj-203" edge="1">
          <mxGeometry relative="1" as="geometry">
            <mxPoint x="830.4300000000001" y="1898.64" as="sourcePoint" />
            <mxPoint x="899.4300000000001" y="1850" as="targetPoint" />
            <Array as="points">
              <mxPoint x="829.4300000000001" y="1880" />
              <mxPoint x="829.4300000000001" y="1850" />
            </Array>
          </mxGeometry>
        </mxCell>
        <mxCell id="QRGypccLNdDq8GzX22bj-109" value="" style="rounded=1;whiteSpace=wrap;html=1;dashed=1;fillColor=none;arcSize=7;" parent="1" vertex="1">
          <mxGeometry x="791" y="955" width="139" height="135" as="geometry" />
        </mxCell>
        <mxCell id="QRGypccLNdDq8GzX22bj-107" value="" style="rounded=1;whiteSpace=wrap;html=1;dashed=1;fillColor=none;arcSize=5;strokeWidth=3;" parent="1" vertex="1">
          <mxGeometry x="150" y="1190" width="530" height="190" as="geometry" />
        </mxCell>
        <mxCell id="QRGypccLNdDq8GzX22bj-48" style="edgeStyle=orthogonalEdgeStyle;rounded=0;orthogonalLoop=1;jettySize=auto;html=1;exitX=1;exitY=0.5;exitDx=0;exitDy=0;entryX=0;entryY=0.5;entryDx=0;entryDy=0;fontFamily=Courier New;fontStyle=1;startSize=3;endSize=3;strokeWidth=2;endArrow=block;endFill=1;" parent="1" source="QRGypccLNdDq8GzX22bj-42" target="QRGypccLNdDq8GzX22bj-30" edge="1">
          <mxGeometry relative="1" as="geometry">
            <mxPoint x="930" y="1030" as="sourcePoint" />
            <mxPoint x="1010" y="990" as="targetPoint" />
            <Array as="points">
              <mxPoint x="1020" y="1020" />
              <mxPoint x="1020" y="1060" />
            </Array>
          </mxGeometry>
        </mxCell>
        <mxCell id="YFva9ZMEuWtXMm_s4kvg-110" value="" style="endArrow=block;html=1;rounded=0;exitX=1;exitY=0.5;exitDx=0;exitDy=0;strokeWidth=3;endFill=1;fontFamily=Courier New;endSize=3;startSize=3;entryX=1;entryY=0.75;entryDx=0;entryDy=0;edgeStyle=orthogonalEdgeStyle;" parent="1" source="YFva9ZMEuWtXMm_s4kvg-3" target="YFva9ZMEuWtXMm_s4kvg-2" edge="1">
          <mxGeometry width="50" height="50" relative="1" as="geometry">
            <mxPoint x="721" y="109.57999999999998" as="sourcePoint" />
            <mxPoint x="281" y="180" as="targetPoint" />
            <Array as="points">
              <mxPoint x="760" y="90" />
              <mxPoint x="760" y="280" />
            </Array>
          </mxGeometry>
        </mxCell>
        <mxCell id="YFva9ZMEuWtXMm_s4kvg-1" value="&lt;font style=&quot;font-size: 20px;&quot;&gt;Frontend&lt;/font&gt;" style="rounded=1;whiteSpace=wrap;html=1;fillColor=#f9f7ed;strokeColor=#36393d;arcSize=8;fontFamily=Courier New;fontStyle=1;strokeWidth=2;" parent="1" vertex="1">
          <mxGeometry x="120" y="160" width="120" height="160" as="geometry" />
        </mxCell>
        <mxCell id="YFva9ZMEuWtXMm_s4kvg-2" value="&lt;font style=&quot;font-size: 20px;&quot;&gt;Backend&lt;/font&gt;" style="rounded=1;whiteSpace=wrap;html=1;fillColor=#f9f7ed;strokeColor=#36393d;arcSize=7;fontFamily=Courier New;fontStyle=1;strokeWidth=2;" parent="1" vertex="1">
          <mxGeometry x="600" y="160" width="120" height="160" as="geometry" />
        </mxCell>
        <mxCell id="YFva9ZMEuWtXMm_s4kvg-3" value="&lt;font style=&quot;font-size: 20px;&quot;&gt;Reorder&lt;/font&gt;&lt;div&gt;&lt;font style=&quot;font-size: 20px;&quot;&gt;Buffer&lt;/font&gt;&lt;/div&gt;" style="rounded=1;whiteSpace=wrap;html=1;fillColor=#f9f7ed;strokeColor=#36393d;arcSize=9;fontFamily=Courier New;fontStyle=1;strokeWidth=2;" parent="1" vertex="1">
          <mxGeometry x="480" y="60" width="140" height="60" as="geometry" />
        </mxCell>
        <mxCell id="YFva9ZMEuWtXMm_s4kvg-4" value="&lt;font style=&quot;font-size: 20px;&quot;&gt;Dispatch&lt;/font&gt;" style="rounded=1;whiteSpace=wrap;html=1;arcSize=8;fillColor=#f9f7ed;strokeColor=#36393d;fontFamily=Courier New;fontStyle=1;strokeWidth=2;" parent="1" vertex="1">
          <mxGeometry x="360" y="180" width="120" height="120" as="geometry" />
        </mxCell>
        <mxCell id="YFva9ZMEuWtXMm_s4kvg-5" value="&lt;font style=&quot;font-size: 20px;&quot;&gt;L2Cache&lt;/font&gt;" style="rounded=1;whiteSpace=wrap;html=1;fillColor=#f9f7ed;strokeColor=#36393d;arcSize=13;fontFamily=Courier New;fontStyle=1;strokeWidth=2;" parent="1" vertex="1">
          <mxGeometry x="360" y="320" width="120" height="60" as="geometry" />
        </mxCell>
        <mxCell id="YFva9ZMEuWtXMm_s4kvg-6" value="" style="endArrow=block;html=1;rounded=0;exitX=1;exitY=0.5;exitDx=0;exitDy=0;strokeWidth=3;endFill=1;fontFamily=Courier New;endSize=3;startSize=3;" parent="1" edge="1">
          <mxGeometry width="50" height="50" relative="1" as="geometry">
            <mxPoint x="240" y="257" as="sourcePoint" />
            <mxPoint x="360" y="257" as="targetPoint" />
          </mxGeometry>
        </mxCell>
        <mxCell id="YFva9ZMEuWtXMm_s4kvg-7" value="&lt;font style=&quot;font-size: 10px;&quot;&gt;&lt;b&gt;&amp;nbsp;InstPkg&amp;nbsp;&lt;/b&gt;&lt;/font&gt;" style="edgeLabel;html=1;align=center;verticalAlign=middle;resizable=0;points=[];labelBorderColor=default;fontFamily=Courier New;" parent="YFva9ZMEuWtXMm_s4kvg-6" vertex="1" connectable="0">
          <mxGeometry x="-0.2389" y="2" relative="1" as="geometry">
            <mxPoint x="-6" y="2" as="offset" />
          </mxGeometry>
        </mxCell>
        <mxCell id="YFva9ZMEuWtXMm_s4kvg-8" value="" style="endArrow=block;html=1;rounded=0;exitX=1;exitY=0.5;exitDx=0;exitDy=0;strokeWidth=3;endFill=1;fontFamily=Courier New;startArrow=block;startFill=1;endSize=3;startSize=3;fillColor=#cdeb8b;strokeColor=#36393d;" parent="1" edge="1">
          <mxGeometry width="50" height="50" relative="1" as="geometry">
            <mxPoint x="240" y="219" as="sourcePoint" />
            <mxPoint x="360" y="219" as="targetPoint" />
          </mxGeometry>
        </mxCell>
        <mxCell id="YFva9ZMEuWtXMm_s4kvg-9" value="&lt;b style=&quot;&quot;&gt;&lt;font style=&quot;font-size: 10px;&quot;&gt;&amp;nbsp;Valid-Ready&amp;nbsp;&lt;/font&gt;&lt;/b&gt;" style="edgeLabel;html=1;align=center;verticalAlign=middle;resizable=0;points=[];labelBorderColor=default;fontFamily=Courier New;" parent="YFva9ZMEuWtXMm_s4kvg-8" vertex="1" connectable="0">
          <mxGeometry x="-0.2389" y="2" relative="1" as="geometry">
            <mxPoint x="8" y="2" as="offset" />
          </mxGeometry>
        </mxCell>
        <mxCell id="YFva9ZMEuWtXMm_s4kvg-12" value="" style="endArrow=block;html=1;rounded=0;exitX=1;exitY=0.5;exitDx=0;exitDy=0;strokeWidth=3;endFill=1;fontFamily=Courier New;endSize=3;startSize=3;" parent="1" edge="1">
          <mxGeometry width="50" height="50" relative="1" as="geometry">
            <mxPoint x="480" y="260.71" as="sourcePoint" />
            <mxPoint x="600" y="260.71" as="targetPoint" />
          </mxGeometry>
        </mxCell>
        <mxCell id="YFva9ZMEuWtXMm_s4kvg-13" value="&lt;b style=&quot;font-size: 10px;&quot;&gt;&amp;nbsp;InstPkg&amp;nbsp;&lt;/b&gt;" style="edgeLabel;html=1;align=center;verticalAlign=middle;resizable=0;points=[];labelBorderColor=default;fontFamily=Courier New;" parent="YFva9ZMEuWtXMm_s4kvg-12" vertex="1" connectable="0">
          <mxGeometry x="-0.2389" y="2" relative="1" as="geometry">
            <mxPoint x="-6" y="1" as="offset" />
          </mxGeometry>
        </mxCell>
        <mxCell id="YFva9ZMEuWtXMm_s4kvg-18" value="" style="endArrow=none;html=1;rounded=0;fontFamily=Courier New;" parent="1" edge="1">
          <mxGeometry width="50" height="50" relative="1" as="geometry">
            <mxPoint x="335" y="224" as="sourcePoint" />
            <mxPoint x="345" y="214" as="targetPoint" />
          </mxGeometry>
        </mxCell>
        <mxCell id="YFva9ZMEuWtXMm_s4kvg-20" value="&lt;font style=&quot;font-size: 8px;&quot;&gt;ndcd&lt;/font&gt;" style="text;html=1;align=center;verticalAlign=middle;resizable=0;points=[];autosize=1;strokeColor=none;fillColor=none;fontFamily=Courier New;" parent="1" vertex="1">
          <mxGeometry x="320" y="192" width="40" height="30" as="geometry" />
        </mxCell>
        <mxCell id="YFva9ZMEuWtXMm_s4kvg-23" value="" style="endArrow=none;html=1;rounded=0;fontFamily=Courier New;" parent="1" edge="1">
          <mxGeometry width="50" height="50" relative="1" as="geometry">
            <mxPoint x="315" y="262" as="sourcePoint" />
            <mxPoint x="325" y="252" as="targetPoint" />
          </mxGeometry>
        </mxCell>
        <mxCell id="YFva9ZMEuWtXMm_s4kvg-24" value="&lt;font style=&quot;font-size: 8px;&quot;&gt;ndcd&lt;/font&gt;" style="text;html=1;align=center;verticalAlign=middle;resizable=0;points=[];autosize=1;strokeColor=none;fillColor=none;fontFamily=Courier New;" parent="1" vertex="1">
          <mxGeometry x="302" y="230" width="40" height="30" as="geometry" />
        </mxCell>
        <mxCell id="YFva9ZMEuWtXMm_s4kvg-31" value="" style="endArrow=none;html=1;rounded=0;fontFamily=Courier New;" parent="1" edge="1">
          <mxGeometry width="50" height="50" relative="1" as="geometry">
            <mxPoint x="555" y="265" as="sourcePoint" />
            <mxPoint x="565" y="255" as="targetPoint" />
          </mxGeometry>
        </mxCell>
        <mxCell id="YFva9ZMEuWtXMm_s4kvg-32" value="&lt;font style=&quot;font-size: 8px;&quot;&gt;niq&lt;/font&gt;" style="text;html=1;align=center;verticalAlign=middle;resizable=0;points=[];autosize=1;strokeColor=none;fillColor=none;fontFamily=Courier New;" parent="1" vertex="1">
          <mxGeometry x="541" y="234" width="40" height="30" as="geometry" />
        </mxCell>
        <mxCell id="YFva9ZMEuWtXMm_s4kvg-45" value="&lt;font style=&quot;font-size: 8px;&quot;&gt;ndcd&lt;/font&gt;" style="text;html=1;align=center;verticalAlign=middle;resizable=0;points=[];autosize=1;strokeColor=none;fillColor=none;fontFamily=Courier New;rotation=0;" parent="1" vertex="1">
          <mxGeometry x="437" y="77" width="40" height="30" as="geometry" />
        </mxCell>
        <mxCell id="YFva9ZMEuWtXMm_s4kvg-46" value="" style="endArrow=none;html=1;rounded=0;fontFamily=Courier New;" parent="1" edge="1">
          <mxGeometry width="50" height="50" relative="1" as="geometry">
            <mxPoint x="463" y="110" as="sourcePoint" />
            <mxPoint x="453" y="100" as="targetPoint" />
          </mxGeometry>
        </mxCell>
        <mxCell id="YFva9ZMEuWtXMm_s4kvg-51" value="&lt;font style=&quot;font-size: 8px;&quot;&gt;nisu&lt;/font&gt;" style="text;html=1;align=center;verticalAlign=middle;resizable=0;points=[];autosize=1;strokeColor=none;fillColor=none;fontFamily=Courier New;rotation=0;" parent="1" vertex="1">
          <mxGeometry x="586" y="114" width="40" height="30" as="geometry" />
        </mxCell>
        <mxCell id="YFva9ZMEuWtXMm_s4kvg-52" value="" style="endArrow=none;html=1;rounded=0;fontFamily=Courier New;" parent="1" edge="1">
          <mxGeometry width="50" height="50" relative="1" as="geometry">
            <mxPoint x="605" y="145" as="sourcePoint" />
            <mxPoint x="595" y="135" as="targetPoint" />
          </mxGeometry>
        </mxCell>
        <mxCell id="YFva9ZMEuWtXMm_s4kvg-59" value="" style="endArrow=block;html=1;rounded=0;exitX=1;exitY=0.5;exitDx=0;exitDy=0;strokeWidth=3;endFill=1;fontFamily=Courier New;startArrow=block;startFill=1;endSize=3;startSize=3;" parent="1" edge="1">
          <mxGeometry width="50" height="50" relative="1" as="geometry">
            <mxPoint x="480" y="219" as="sourcePoint" />
            <mxPoint x="600" y="219" as="targetPoint" />
          </mxGeometry>
        </mxCell>
        <mxCell id="YFva9ZMEuWtXMm_s4kvg-60" value="&lt;b&gt;&lt;font style=&quot;font-size: 10px;&quot;&gt;&amp;nbsp;Valid-Ready&amp;nbsp;&lt;/font&gt;&lt;/b&gt;" style="edgeLabel;html=1;align=center;verticalAlign=middle;resizable=0;points=[];labelBorderColor=default;fontFamily=Courier New;" parent="YFva9ZMEuWtXMm_s4kvg-59" vertex="1" connectable="0">
          <mxGeometry x="-0.2389" y="2" relative="1" as="geometry">
            <mxPoint x="8" y="2" as="offset" />
          </mxGeometry>
        </mxCell>
        <mxCell id="YFva9ZMEuWtXMm_s4kvg-61" value="" style="endArrow=none;html=1;rounded=0;fontFamily=Courier New;" parent="1" edge="1">
          <mxGeometry width="50" height="50" relative="1" as="geometry">
            <mxPoint x="574" y="223" as="sourcePoint" />
            <mxPoint x="584" y="213" as="targetPoint" />
          </mxGeometry>
        </mxCell>
        <mxCell id="YFva9ZMEuWtXMm_s4kvg-62" value="&lt;font style=&quot;font-size: 8px;&quot;&gt;niq&lt;/font&gt;" style="text;html=1;align=center;verticalAlign=middle;resizable=0;points=[];autosize=1;strokeColor=none;fillColor=none;fontFamily=Courier New;" parent="1" vertex="1">
          <mxGeometry x="560" y="192" width="40" height="30" as="geometry" />
        </mxCell>
        <mxCell id="YFva9ZMEuWtXMm_s4kvg-63" value="&lt;font style=&quot;font-size: 8px;&quot;&gt;ndcd&lt;/font&gt;" style="text;html=1;align=center;verticalAlign=middle;resizable=0;points=[];autosize=1;strokeColor=none;fillColor=none;fontFamily=Courier New;rotation=0;" parent="1" vertex="1">
          <mxGeometry x="437" y="48" width="40" height="30" as="geometry" />
        </mxCell>
        <mxCell id="YFva9ZMEuWtXMm_s4kvg-64" value="" style="endArrow=none;html=1;rounded=0;fontFamily=Courier New;" parent="1" edge="1">
          <mxGeometry width="50" height="50" relative="1" as="geometry">
            <mxPoint x="460" y="80" as="sourcePoint" />
            <mxPoint x="450" y="70" as="targetPoint" />
          </mxGeometry>
        </mxCell>
        <mxCell id="YFva9ZMEuWtXMm_s4kvg-82" value="&lt;font style=&quot;font-size: 20px;&quot;&gt;AXI&lt;/font&gt;&lt;div&gt;&lt;font style=&quot;font-size: 20px;&quot;&gt;Arbiter&lt;/font&gt;&lt;/div&gt;" style="rounded=1;whiteSpace=wrap;html=1;fillColor=#f9f7ed;strokeColor=#36393d;arcSize=13;fontFamily=Courier New;fontStyle=1;strokeWidth=2;" parent="1" vertex="1">
          <mxGeometry x="360" y="470" width="120" height="50" as="geometry" />
        </mxCell>
        <mxCell id="YFva9ZMEuWtXMm_s4kvg-83" value="" style="endArrow=block;html=1;rounded=0;strokeWidth=3;endFill=1;fontFamily=Courier New;startArrow=block;startFill=1;exitX=0.25;exitY=0;exitDx=0;exitDy=0;entryX=0.25;entryY=1;entryDx=0;entryDy=0;endSize=3;startSize=3;" parent="1" source="YFva9ZMEuWtXMm_s4kvg-82" target="YFva9ZMEuWtXMm_s4kvg-5" edge="1">
          <mxGeometry width="50" height="50" relative="1" as="geometry">
            <mxPoint x="401.5" y="440" as="sourcePoint" />
            <mxPoint x="400" y="380" as="targetPoint" />
          </mxGeometry>
        </mxCell>
        <mxCell id="YFva9ZMEuWtXMm_s4kvg-84" value="&lt;b style=&quot;&quot;&gt;&lt;font style=&quot;font-size: 10px;&quot;&gt;&amp;nbsp;Req-Rsp&amp;nbsp;&lt;/font&gt;&lt;/b&gt;" style="edgeLabel;html=1;align=center;verticalAlign=middle;resizable=0;points=[];labelBorderColor=default;fontFamily=Courier New;rotation=-90;" parent="YFva9ZMEuWtXMm_s4kvg-83" vertex="1" connectable="0">
          <mxGeometry x="-0.2389" y="2" relative="1" as="geometry">
            <mxPoint x="2" y="-9" as="offset" />
          </mxGeometry>
        </mxCell>
        <mxCell id="YFva9ZMEuWtXMm_s4kvg-85" value="" style="endArrow=block;html=1;rounded=0;strokeWidth=3;endFill=1;fontFamily=Courier New;startArrow=block;startFill=1;exitX=0.75;exitY=0;exitDx=0;exitDy=0;endSize=3;startSize=3;" parent="1" source="YFva9ZMEuWtXMm_s4kvg-82" edge="1">
          <mxGeometry width="50" height="50" relative="1" as="geometry">
            <mxPoint x="450.5" y="439" as="sourcePoint" />
            <mxPoint x="450" y="380" as="targetPoint" />
            <Array as="points">
              <mxPoint x="450" y="420" />
            </Array>
          </mxGeometry>
        </mxCell>
        <mxCell id="YFva9ZMEuWtXMm_s4kvg-86" value="&lt;b style=&quot;&quot;&gt;&lt;font style=&quot;font-size: 10px;&quot;&gt;&amp;nbsp;Data&amp;nbsp;&lt;/font&gt;&lt;/b&gt;" style="edgeLabel;html=1;align=center;verticalAlign=middle;resizable=0;points=[];labelBorderColor=default;fontFamily=Courier New;rotation=-90;" parent="YFva9ZMEuWtXMm_s4kvg-85" vertex="1" connectable="0">
          <mxGeometry x="-0.2389" y="2" relative="1" as="geometry">
            <mxPoint x="2" y="-10" as="offset" />
          </mxGeometry>
        </mxCell>
        <mxCell id="YFva9ZMEuWtXMm_s4kvg-90" value="" style="endArrow=block;html=1;rounded=0;strokeWidth=3;endFill=1;fontFamily=Courier New;startArrow=block;startFill=1;entryX=0.175;entryY=1.007;entryDx=0;entryDy=0;entryPerimeter=0;exitX=0;exitY=0.25;exitDx=0;exitDy=0;edgeStyle=orthogonalEdgeStyle;endSize=3;startSize=3;" parent="1" source="YFva9ZMEuWtXMm_s4kvg-5" edge="1">
          <mxGeometry width="50" height="50" relative="1" as="geometry">
            <mxPoint x="320" y="360" as="sourcePoint" />
            <mxPoint x="200" y="320" as="targetPoint" />
            <Array as="points">
              <mxPoint x="200" y="335" />
            </Array>
          </mxGeometry>
        </mxCell>
        <mxCell id="YFva9ZMEuWtXMm_s4kvg-91" value="&lt;b style=&quot;&quot;&gt;&lt;font style=&quot;font-size: 10px;&quot;&gt;&amp;nbsp;IC-Data&amp;nbsp;&lt;/font&gt;&lt;/b&gt;" style="edgeLabel;html=1;align=center;verticalAlign=middle;resizable=0;points=[];labelBorderColor=default;fontFamily=Courier New;rotation=0;" parent="YFva9ZMEuWtXMm_s4kvg-90" vertex="1" connectable="0">
          <mxGeometry x="-0.2389" y="2" relative="1" as="geometry">
            <mxPoint x="-32" y="-2" as="offset" />
          </mxGeometry>
        </mxCell>
        <mxCell id="YFva9ZMEuWtXMm_s4kvg-92" value="" style="endArrow=block;html=1;rounded=0;strokeWidth=3;endFill=1;fontFamily=Courier New;startArrow=block;startFill=1;entryX=0.175;entryY=1.007;entryDx=0;entryDy=0;entryPerimeter=0;exitX=0;exitY=0.75;exitDx=0;exitDy=0;edgeStyle=orthogonalEdgeStyle;endSize=3;startSize=3;" parent="1" source="YFva9ZMEuWtXMm_s4kvg-5" edge="1">
          <mxGeometry width="50" height="50" relative="1" as="geometry">
            <mxPoint x="280" y="360" as="sourcePoint" />
            <mxPoint x="160" y="320" as="targetPoint" />
            <Array as="points">
              <mxPoint x="160" y="365" />
            </Array>
          </mxGeometry>
        </mxCell>
        <mxCell id="YFva9ZMEuWtXMm_s4kvg-93" value="&lt;b style=&quot;&quot;&gt;&lt;font style=&quot;font-size: 10px;&quot;&gt;&amp;nbsp;Req-Rsp&amp;nbsp;&lt;/font&gt;&lt;/b&gt;" style="edgeLabel;html=1;align=center;verticalAlign=middle;resizable=0;points=[];labelBorderColor=default;fontFamily=Courier New;rotation=0;" parent="YFva9ZMEuWtXMm_s4kvg-92" vertex="1" connectable="0">
          <mxGeometry x="-0.2389" y="2" relative="1" as="geometry">
            <mxPoint x="-6" y="-2" as="offset" />
          </mxGeometry>
        </mxCell>
        <mxCell id="YFva9ZMEuWtXMm_s4kvg-94" value="" style="endArrow=block;html=1;rounded=0;strokeWidth=3;endFill=1;fontFamily=Courier New;startArrow=block;startFill=1;entryX=0.175;entryY=1.007;entryDx=0;entryDy=0;entryPerimeter=0;exitX=1;exitY=0.25;exitDx=0;exitDy=0;edgeStyle=orthogonalEdgeStyle;endSize=3;startSize=3;" parent="1" source="YFva9ZMEuWtXMm_s4kvg-5" edge="1">
          <mxGeometry width="50" height="50" relative="1" as="geometry">
            <mxPoint x="520.0344827586209" y="360" as="sourcePoint" />
            <mxPoint x="640.0344827586209" y="320" as="targetPoint" />
            <Array as="points">
              <mxPoint x="640" y="335" />
            </Array>
          </mxGeometry>
        </mxCell>
        <mxCell id="YFva9ZMEuWtXMm_s4kvg-95" value="&lt;b style=&quot;&quot;&gt;&lt;font style=&quot;font-size: 10px;&quot;&gt;&amp;nbsp;DC-Data&amp;nbsp;&lt;/font&gt;&lt;/b&gt;" style="edgeLabel;html=1;align=center;verticalAlign=middle;resizable=0;points=[];labelBorderColor=default;fontFamily=Courier New;rotation=0;" parent="YFva9ZMEuWtXMm_s4kvg-94" vertex="1" connectable="0">
          <mxGeometry x="-0.2389" y="2" relative="1" as="geometry">
            <mxPoint x="31" y="2" as="offset" />
          </mxGeometry>
        </mxCell>
        <mxCell id="YFva9ZMEuWtXMm_s4kvg-96" value="" style="endArrow=block;html=1;rounded=0;strokeWidth=3;endFill=1;fontFamily=Courier New;startArrow=block;startFill=1;entryX=0.175;entryY=1.007;entryDx=0;entryDy=0;entryPerimeter=0;exitX=1;exitY=0.75;exitDx=0;exitDy=0;edgeStyle=orthogonalEdgeStyle;endSize=3;startSize=3;" parent="1" source="YFva9ZMEuWtXMm_s4kvg-5" edge="1">
          <mxGeometry width="50" height="50" relative="1" as="geometry">
            <mxPoint x="560.0344827586209" y="360" as="sourcePoint" />
            <mxPoint x="680.0344827586209" y="320" as="targetPoint" />
            <Array as="points">
              <mxPoint x="680" y="365" />
            </Array>
          </mxGeometry>
        </mxCell>
        <mxCell id="YFva9ZMEuWtXMm_s4kvg-97" value="&lt;b style=&quot;&quot;&gt;&lt;font style=&quot;font-size: 10px;&quot;&gt;&amp;nbsp;Req-Rsp&amp;nbsp;&lt;/font&gt;&lt;/b&gt;" style="edgeLabel;html=1;align=center;verticalAlign=middle;resizable=0;points=[];labelBorderColor=default;fontFamily=Courier New;rotation=0;" parent="YFva9ZMEuWtXMm_s4kvg-96" vertex="1" connectable="0">
          <mxGeometry x="-0.2389" y="2" relative="1" as="geometry">
            <mxPoint x="5" y="3" as="offset" />
          </mxGeometry>
        </mxCell>
        <mxCell id="YFva9ZMEuWtXMm_s4kvg-98" value="" style="endArrow=block;html=1;rounded=0;exitX=0.25;exitY=0;exitDx=0;exitDy=0;strokeWidth=3;endFill=1;fontFamily=Courier New;startArrow=block;startFill=1;entryX=0;entryY=0.25;entryDx=0;entryDy=0;endSize=3;startSize=3;edgeStyle=orthogonalEdgeStyle;" parent="1" target="YFva9ZMEuWtXMm_s4kvg-3" edge="1">
          <mxGeometry width="50" height="50" relative="1" as="geometry">
            <mxPoint x="390" y="180" as="sourcePoint" />
            <mxPoint x="390" y="60" as="targetPoint" />
            <Array as="points">
              <mxPoint x="390" y="75" />
            </Array>
          </mxGeometry>
        </mxCell>
        <mxCell id="YFva9ZMEuWtXMm_s4kvg-99" value="&lt;b&gt;&lt;font style=&quot;font-size: 10px;&quot;&gt;&amp;nbsp;Valid-Ready&amp;nbsp;&lt;/font&gt;&lt;/b&gt;" style="edgeLabel;html=1;align=center;verticalAlign=middle;resizable=0;points=[];labelBorderColor=default;fontFamily=Courier New;rotation=-90;" parent="YFva9ZMEuWtXMm_s4kvg-98" vertex="1" connectable="0">
          <mxGeometry x="-0.2389" y="2" relative="1" as="geometry">
            <mxPoint x="2" y="21" as="offset" />
          </mxGeometry>
        </mxCell>
        <mxCell id="YFva9ZMEuWtXMm_s4kvg-100" value="" style="endArrow=block;html=1;rounded=0;exitX=0.75;exitY=0;exitDx=0;exitDy=0;strokeWidth=3;endFill=1;fontFamily=Courier New;endSize=3;startSize=3;entryX=0;entryY=0.75;entryDx=0;entryDy=0;edgeStyle=orthogonalEdgeStyle;" parent="1" target="YFva9ZMEuWtXMm_s4kvg-3" edge="1">
          <mxGeometry width="50" height="50" relative="1" as="geometry">
            <mxPoint x="450" y="180" as="sourcePoint" />
            <mxPoint x="450" y="60" as="targetPoint" />
            <Array as="points">
              <mxPoint x="450" y="105" />
            </Array>
          </mxGeometry>
        </mxCell>
        <mxCell id="YFva9ZMEuWtXMm_s4kvg-101" value="&lt;b style=&quot;font-size: 10px;&quot;&gt;&amp;nbsp;InstPkg&amp;nbsp;&lt;/b&gt;" style="edgeLabel;html=1;align=center;verticalAlign=middle;resizable=0;points=[];labelBorderColor=default;fontFamily=Courier New;rotation=-90;" parent="YFva9ZMEuWtXMm_s4kvg-100" vertex="1" connectable="0">
          <mxGeometry x="-0.2389" y="2" relative="1" as="geometry">
            <mxPoint x="3" y="1" as="offset" />
          </mxGeometry>
        </mxCell>
        <mxCell id="YFva9ZMEuWtXMm_s4kvg-102" value="" style="endArrow=block;html=1;rounded=0;strokeWidth=3;endFill=1;fontFamily=Courier New;exitX=1;exitY=0.5;exitDx=0;exitDy=0;entryX=0.5;entryY=1;entryDx=0;entryDy=0;endSize=3;startSize=3;edgeStyle=orthogonalEdgeStyle;strokeColor=#171717;" parent="1" source="YFva9ZMEuWtXMm_s4kvg-2" target="YFva9ZMEuWtXMm_s4kvg-3" edge="1">
          <mxGeometry width="50" height="50" relative="1" as="geometry">
            <mxPoint x="660" y="160" as="sourcePoint" />
            <mxPoint x="660" y="60" as="targetPoint" />
            <Array as="points">
              <mxPoint x="740" y="240" />
              <mxPoint x="740" y="140" />
              <mxPoint x="550" y="140" />
            </Array>
          </mxGeometry>
        </mxCell>
        <mxCell id="YFva9ZMEuWtXMm_s4kvg-103" value="&lt;font style=&quot;font-size: 10px;&quot;&gt;&lt;b&gt;&amp;nbsp;InstPkg&amp;nbsp;&lt;/b&gt;&lt;/font&gt;" style="edgeLabel;html=1;align=center;verticalAlign=middle;resizable=0;points=[];labelBorderColor=default;fontFamily=Courier New;rotation=0;" parent="YFva9ZMEuWtXMm_s4kvg-102" vertex="1" connectable="0">
          <mxGeometry x="-0.2389" y="2" relative="1" as="geometry">
            <mxPoint x="-57" y="-2" as="offset" />
          </mxGeometry>
        </mxCell>
        <mxCell id="YFva9ZMEuWtXMm_s4kvg-104" value="" style="endArrow=block;html=1;rounded=0;strokeWidth=3;endFill=1;fontFamily=Courier New;startArrow=block;startFill=1;exitX=1;exitY=0.5;exitDx=0;exitDy=0;endSize=3;startSize=3;" parent="1" source="YFva9ZMEuWtXMm_s4kvg-82" edge="1">
          <mxGeometry width="50" height="50" relative="1" as="geometry">
            <mxPoint x="560" y="494" as="sourcePoint" />
            <mxPoint x="600" y="495" as="targetPoint" />
            <Array as="points" />
          </mxGeometry>
        </mxCell>
        <mxCell id="YFva9ZMEuWtXMm_s4kvg-105" value="&lt;b style=&quot;&quot;&gt;&lt;font style=&quot;font-size: 10px;&quot;&gt;&amp;nbsp;AXI4-Bus&amp;nbsp;&lt;/font&gt;&lt;/b&gt;" style="edgeLabel;html=1;align=center;verticalAlign=middle;resizable=0;points=[];labelBorderColor=default;fontFamily=Courier New;rotation=0;" parent="YFva9ZMEuWtXMm_s4kvg-104" vertex="1" connectable="0">
          <mxGeometry x="-0.2389" y="2" relative="1" as="geometry">
            <mxPoint x="15" y="2" as="offset" />
          </mxGeometry>
        </mxCell>
        <mxCell id="YFva9ZMEuWtXMm_s4kvg-107" value="" style="endArrow=block;html=1;rounded=0;exitX=1;exitY=0.5;exitDx=0;exitDy=0;strokeWidth=3;endFill=1;fontFamily=Courier New;endSize=3;startSize=3;entryX=0.5;entryY=0;entryDx=0;entryDy=0;edgeStyle=orthogonalEdgeStyle;" parent="1" target="YFva9ZMEuWtXMm_s4kvg-1" edge="1">
          <mxGeometry width="50" height="50" relative="1" as="geometry">
            <mxPoint x="620" y="89.57999999999998" as="sourcePoint" />
            <mxPoint x="740" y="89.57999999999998" as="targetPoint" />
            <Array as="points">
              <mxPoint x="760" y="90" />
              <mxPoint x="760" y="50" />
              <mxPoint x="180" y="50" />
            </Array>
          </mxGeometry>
        </mxCell>
        <mxCell id="YFva9ZMEuWtXMm_s4kvg-108" value="&lt;b style=&quot;font-size: 10px;&quot;&gt;&amp;nbsp;Commit-Bus&amp;nbsp;&lt;/b&gt;" style="edgeLabel;html=1;align=center;verticalAlign=middle;resizable=0;points=[];labelBorderColor=default;fontFamily=Courier New;" parent="YFva9ZMEuWtXMm_s4kvg-107" vertex="1" connectable="0">
          <mxGeometry x="-0.2389" y="2" relative="1" as="geometry">
            <mxPoint x="85" y="38" as="offset" />
          </mxGeometry>
        </mxCell>
        <mxCell id="YFva9ZMEuWtXMm_s4kvg-112" value="" style="shape=waypoint;sketch=0;fillStyle=solid;size=6;pointerEvents=1;points=[];fillColor=none;resizable=0;rotatable=0;perimeter=centerPerimeter;snapToPoint=1;strokeWidth=2;fontFamily=Courier New;" parent="1" vertex="1">
          <mxGeometry x="750" y="80" width="20" height="20" as="geometry" />
        </mxCell>
        <mxCell id="QRGypccLNdDq8GzX22bj-31" style="edgeStyle=orthogonalEdgeStyle;rounded=0;orthogonalLoop=1;jettySize=auto;html=1;exitX=1;exitY=0.5;exitDx=0;exitDy=0;entryX=0;entryY=0.5;entryDx=0;entryDy=0;strokeWidth=2;fontFamily=Courier New;fontStyle=1;endArrow=block;endFill=1;endSize=3;startSize=3;" parent="1" source="QRGypccLNdDq8GzX22bj-2" target="QRGypccLNdDq8GzX22bj-14" edge="1">
          <mxGeometry relative="1" as="geometry" />
        </mxCell>
        <mxCell id="QRGypccLNdDq8GzX22bj-2" value="" style="rounded=0;whiteSpace=wrap;html=1;fontFamily=Courier New;strokeWidth=2;fontStyle=1;fillColor=#f5f5f5;fontColor=#333333;strokeColor=#000000;" parent="1" vertex="1">
          <mxGeometry x="200" y="920" width="40" height="200" as="geometry" />
        </mxCell>
        <mxCell id="QRGypccLNdDq8GzX22bj-4" value="&lt;span&gt;PC&lt;/span&gt;" style="rounded=0;whiteSpace=wrap;html=1;fontFamily=Courier New;fontStyle=1;strokeWidth=2;fillColor=#f9f7ed;strokeColor=#36393d;" parent="1" vertex="1">
          <mxGeometry x="205" y="1005" width="30" height="30" as="geometry" />
        </mxCell>
        <mxCell id="QRGypccLNdDq8GzX22bj-6" style="edgeStyle=orthogonalEdgeStyle;rounded=0;orthogonalLoop=1;jettySize=auto;html=1;exitX=1;exitY=0.5;exitDx=0;exitDy=0;entryX=0;entryY=0.5;entryDx=0;entryDy=0;fontFamily=Courier New;fontStyle=1;strokeWidth=2;endSize=3;startSize=3;endArrow=block;endFill=1;" parent="1" source="QRGypccLNdDq8GzX22bj-5" target="QRGypccLNdDq8GzX22bj-2" edge="1">
          <mxGeometry relative="1" as="geometry" />
        </mxCell>
        <mxCell id="QRGypccLNdDq8GzX22bj-34" value="&amp;nbsp;NextPC&amp;nbsp;" style="edgeLabel;html=1;align=center;verticalAlign=middle;resizable=0;points=[];fontFamily=Courier New;labelBorderColor=default;fontStyle=1" parent="QRGypccLNdDq8GzX22bj-6" vertex="1" connectable="0">
          <mxGeometry x="-0.0156" y="4" relative="1" as="geometry">
            <mxPoint x="1" y="4" as="offset" />
          </mxGeometry>
        </mxCell>
        <mxCell id="QRGypccLNdDq8GzX22bj-67" style="edgeStyle=orthogonalEdgeStyle;rounded=0;orthogonalLoop=1;jettySize=auto;html=1;entryX=0;entryY=0.5;entryDx=0;entryDy=0;strokeWidth=2;fontFamily=Courier New;fontStyle=1;endArrow=block;endFill=1;endSize=3;startSize=3;" parent="1" target="QRGypccLNdDq8GzX22bj-54" edge="1">
          <mxGeometry relative="1" as="geometry">
            <mxPoint x="160" y="1030" as="sourcePoint" />
            <Array as="points">
              <mxPoint x="160" y="1260" />
            </Array>
          </mxGeometry>
        </mxCell>
        <mxCell id="QRGypccLNdDq8GzX22bj-5" value="&lt;span&gt;&lt;font style=&quot;font-size: 15px;&quot;&gt;NPC&lt;/font&gt;&lt;/span&gt;" style="rounded=1;whiteSpace=wrap;html=1;arcSize=11;strokeWidth=2;fontFamily=Courier New;fontStyle=1;fillColor=#f9f7ed;strokeColor=#36393d;" parent="1" vertex="1">
          <mxGeometry x="40" y="980" width="80" height="80" as="geometry" />
        </mxCell>
        <mxCell id="QRGypccLNdDq8GzX22bj-8" value="" style="rounded=0;whiteSpace=wrap;html=1;fontFamily=Courier New;fontStyle=1;strokeWidth=2;fillColor=#f5f5f5;fontColor=#333333;strokeColor=#000000;" parent="1" vertex="1">
          <mxGeometry x="200" y="1200" width="40" height="160" as="geometry" />
        </mxCell>
        <mxCell id="QRGypccLNdDq8GzX22bj-3" value="" style="triangle;whiteSpace=wrap;html=1;rotation=-90;fontFamily=Courier New;fontStyle=1;strokeWidth=2;" parent="1" vertex="1">
          <mxGeometry x="200" y="1320" width="40" height="40" as="geometry" />
        </mxCell>
        <mxCell id="QRGypccLNdDq8GzX22bj-59" style="edgeStyle=orthogonalEdgeStyle;rounded=0;orthogonalLoop=1;jettySize=auto;html=1;exitX=1;exitY=0.5;exitDx=0;exitDy=0;fontFamily=Courier New;fontStyle=1;strokeWidth=2;endSize=3;startSize=3;endArrow=block;endFill=1;" parent="1" source="QRGypccLNdDq8GzX22bj-10" edge="1">
          <mxGeometry relative="1" as="geometry">
            <mxPoint x="560" y="1030" as="targetPoint" />
            <Array as="points">
              <mxPoint x="560" y="1280" />
            </Array>
          </mxGeometry>
        </mxCell>
        <mxCell id="QRGypccLNdDq8GzX22bj-78" value="&amp;nbsp;Instruction&amp;nbsp;" style="edgeLabel;html=1;align=center;verticalAlign=middle;resizable=0;points=[];rotation=-90;fontFamily=Courier New;fontStyle=1;labelBorderColor=default;" parent="QRGypccLNdDq8GzX22bj-59" vertex="1" connectable="0">
          <mxGeometry x="-0.1148" relative="1" as="geometry">
            <mxPoint x="-1" y="-22" as="offset" />
          </mxGeometry>
        </mxCell>
        <mxCell id="QRGypccLNdDq8GzX22bj-10" value="" style="rounded=0;whiteSpace=wrap;html=1;fontFamily=Courier New;fontStyle=1;strokeWidth=2;fillColor=#f5f5f5;fontColor=#333333;strokeColor=#000000;" parent="1" vertex="1">
          <mxGeometry x="480" y="1200" width="40" height="160" as="geometry" />
        </mxCell>
        <mxCell id="QRGypccLNdDq8GzX22bj-11" value="" style="triangle;whiteSpace=wrap;html=1;rotation=-90;fontFamily=Courier New;fontStyle=1;strokeWidth=2;" parent="1" vertex="1">
          <mxGeometry x="480" y="1320" width="40" height="40" as="geometry" />
        </mxCell>
        <mxCell id="QRGypccLNdDq8GzX22bj-13" value="" style="triangle;whiteSpace=wrap;html=1;rotation=-90;fontFamily=Courier New;strokeWidth=2;fontStyle=1;" parent="1" vertex="1">
          <mxGeometry x="200" y="1080" width="40" height="40" as="geometry" />
        </mxCell>
        <mxCell id="QRGypccLNdDq8GzX22bj-36" style="edgeStyle=orthogonalEdgeStyle;rounded=0;orthogonalLoop=1;jettySize=auto;html=1;exitX=1;exitY=0.5;exitDx=0;exitDy=0;entryX=0;entryY=0.5;entryDx=0;entryDy=0;fontFamily=Courier New;fontStyle=1;strokeWidth=2;endSize=3;startSize=3;endArrow=block;endFill=1;" parent="1" source="QRGypccLNdDq8GzX22bj-14" target="QRGypccLNdDq8GzX22bj-20" edge="1">
          <mxGeometry relative="1" as="geometry" />
        </mxCell>
        <mxCell id="QRGypccLNdDq8GzX22bj-61" value="&amp;nbsp;InstPkg&amp;nbsp;" style="edgeLabel;html=1;align=center;verticalAlign=middle;resizable=0;points=[];fontFamily=Courier New;fontStyle=1;labelBorderColor=default;" parent="QRGypccLNdDq8GzX22bj-36" vertex="1" connectable="0">
          <mxGeometry x="0.1043" y="1" relative="1" as="geometry">
            <mxPoint x="-15" y="1" as="offset" />
          </mxGeometry>
        </mxCell>
        <mxCell id="QRGypccLNdDq8GzX22bj-14" value="" style="rounded=0;whiteSpace=wrap;html=1;fontFamily=Courier New;fontStyle=1;strokeWidth=2;fillColor=#f5f5f5;fontColor=#333333;strokeColor=#000000;" parent="1" vertex="1">
          <mxGeometry x="480" y="920" width="40" height="200" as="geometry" />
        </mxCell>
        <mxCell id="QRGypccLNdDq8GzX22bj-16" value="" style="triangle;whiteSpace=wrap;html=1;rotation=-90;fontFamily=Courier New;fontStyle=1;strokeWidth=2;" parent="1" vertex="1">
          <mxGeometry x="480" y="1080" width="40" height="40" as="geometry" />
        </mxCell>
        <mxCell id="QRGypccLNdDq8GzX22bj-44" style="edgeStyle=orthogonalEdgeStyle;rounded=0;orthogonalLoop=1;jettySize=auto;html=1;exitX=1;exitY=0.5;exitDx=0;exitDy=0;entryX=0;entryY=0.5;entryDx=0;entryDy=0;fontFamily=Courier New;fontStyle=1;strokeWidth=2;endSize=3;startSize=3;endArrow=block;endFill=1;" parent="1" source="QRGypccLNdDq8GzX22bj-20" target="QRGypccLNdDq8GzX22bj-21" edge="1">
          <mxGeometry relative="1" as="geometry" />
        </mxCell>
        <mxCell id="QRGypccLNdDq8GzX22bj-62" value="&amp;nbsp;InstPkg&amp;nbsp;" style="edgeLabel;html=1;align=center;verticalAlign=middle;resizable=0;points=[];fontFamily=Courier New;fontStyle=1;labelBorderColor=default;" parent="QRGypccLNdDq8GzX22bj-44" vertex="1" connectable="0">
          <mxGeometry x="0.0391" relative="1" as="geometry">
            <mxPoint x="-12" as="offset" />
          </mxGeometry>
        </mxCell>
        <mxCell id="QRGypccLNdDq8GzX22bj-88" style="edgeStyle=orthogonalEdgeStyle;rounded=0;orthogonalLoop=1;jettySize=auto;html=1;strokeWidth=2;fontFamily=Courier New;fontStyle=1;endArrow=block;endFill=1;endSize=3;startSize=3;" parent="1" edge="1">
          <mxGeometry relative="1" as="geometry">
            <mxPoint x="80" y="880" as="sourcePoint" />
            <mxPoint x="79.85" y="980" as="targetPoint" />
            <Array as="points">
              <mxPoint x="79.85" y="917" />
            </Array>
          </mxGeometry>
        </mxCell>
        <mxCell id="QRGypccLNdDq8GzX22bj-89" value="&amp;nbsp;PD-Flush&amp;nbsp;" style="edgeLabel;html=1;align=center;verticalAlign=middle;resizable=0;points=[];rotation=-90;fontFamily=Courier New;fontStyle=1;labelBorderColor=default;" parent="QRGypccLNdDq8GzX22bj-88" vertex="1" connectable="0">
          <mxGeometry x="0.8437" y="1" relative="1" as="geometry">
            <mxPoint x="-1" y="-39" as="offset" />
          </mxGeometry>
        </mxCell>
        <mxCell id="QRGypccLNdDq8GzX22bj-20" value="&lt;span&gt;&lt;font style=&quot;font-size: 15px;&quot;&gt;Previous&lt;/font&gt;&lt;/span&gt;&lt;div&gt;&lt;span&gt;&lt;font style=&quot;font-size: 15px;&quot;&gt;Decoder&lt;/font&gt;&lt;/span&gt;&lt;/div&gt;&lt;div&gt;&lt;span&gt;&lt;font style=&quot;color: rgb(0, 153, 0);&quot;&gt;+ RInfo&lt;/font&gt;&lt;/span&gt;&lt;/div&gt;" style="rounded=1;whiteSpace=wrap;html=1;arcSize=11;fontFamily=Courier New;fontStyle=1;strokeWidth=2;fillColor=#f9f7ed;strokeColor=#36393d;" parent="1" vertex="1">
          <mxGeometry x="620" y="960" width="80" height="120" as="geometry" />
        </mxCell>
        <mxCell id="QRGypccLNdDq8GzX22bj-21" value="" style="rounded=0;whiteSpace=wrap;html=1;fontFamily=Courier New;fontStyle=1;strokeWidth=2;fillColor=#f9f7ed;strokeColor=#36393d;" parent="1" vertex="1">
          <mxGeometry x="800" y="960" width="10" height="120" as="geometry" />
        </mxCell>
        <mxCell id="QRGypccLNdDq8GzX22bj-22" value="" style="rounded=0;whiteSpace=wrap;html=1;fontFamily=Courier New;fontStyle=1;strokeWidth=2;fillColor=#f9f7ed;strokeColor=#36393d;" parent="1" vertex="1">
          <mxGeometry x="820" y="960" width="10" height="120" as="geometry" />
        </mxCell>
        <mxCell id="QRGypccLNdDq8GzX22bj-52" style="edgeStyle=orthogonalEdgeStyle;rounded=0;orthogonalLoop=1;jettySize=auto;html=1;exitX=1;exitY=0.5;exitDx=0;exitDy=0;fontFamily=Courier New;fontStyle=1;endArrow=block;endFill=1;strokeWidth=2;endSize=3;startSize=3;" parent="1" source="QRGypccLNdDq8GzX22bj-26" edge="1">
          <mxGeometry relative="1" as="geometry">
            <mxPoint x="1390" y="1020" as="targetPoint" />
          </mxGeometry>
        </mxCell>
        <mxCell id="QRGypccLNdDq8GzX22bj-65" value="&amp;nbsp;InstPkg&amp;nbsp;" style="edgeLabel;html=1;align=center;verticalAlign=middle;resizable=0;points=[];fontFamily=Courier New;fontStyle=1;labelBorderColor=default;" parent="QRGypccLNdDq8GzX22bj-52" vertex="1" connectable="0">
          <mxGeometry x="-0.27" y="1" relative="1" as="geometry">
            <mxPoint y="1" as="offset" />
          </mxGeometry>
        </mxCell>
        <mxCell id="QRGypccLNdDq8GzX22bj-26" value="" style="rounded=0;whiteSpace=wrap;html=1;fontFamily=Courier New;fontStyle=1;strokeWidth=2;fillColor=#f5f5f5;fontColor=#333333;strokeColor=#000000;" parent="1" vertex="1">
          <mxGeometry x="1240" y="920" width="40" height="200" as="geometry" />
        </mxCell>
        <mxCell id="QRGypccLNdDq8GzX22bj-27" value="" style="triangle;whiteSpace=wrap;html=1;rotation=-90;fontFamily=Courier New;fontStyle=1;strokeWidth=2;" parent="1" vertex="1">
          <mxGeometry x="1240" y="1080" width="40" height="40" as="geometry" />
        </mxCell>
        <mxCell id="QRGypccLNdDq8GzX22bj-28" value="" style="rounded=0;whiteSpace=wrap;html=1;fontFamily=Courier New;fontStyle=1;strokeWidth=2;fillColor=#f9f7ed;strokeColor=#36393d;" parent="1" vertex="1">
          <mxGeometry x="900" y="960" width="10" height="120" as="geometry" />
        </mxCell>
        <mxCell id="QRGypccLNdDq8GzX22bj-49" style="edgeStyle=orthogonalEdgeStyle;rounded=0;orthogonalLoop=1;jettySize=auto;html=1;exitX=1;exitY=0.5;exitDx=0;exitDy=0;entryX=0;entryY=0.5;entryDx=0;entryDy=0;fontFamily=Courier New;fontStyle=1;strokeWidth=2;endArrow=block;endFill=1;endSize=3;startSize=3;" parent="1" source="QRGypccLNdDq8GzX22bj-29" target="QRGypccLNdDq8GzX22bj-26" edge="1">
          <mxGeometry relative="1" as="geometry">
            <Array as="points">
              <mxPoint x="1120" y="980" />
              <mxPoint x="1120" y="1020" />
            </Array>
          </mxGeometry>
        </mxCell>
        <mxCell id="QRGypccLNdDq8GzX22bj-29" value="&lt;span&gt;&lt;font style=&quot;font-size: 15px;&quot;&gt;Decoder&lt;/font&gt;&lt;/span&gt;&lt;div&gt;&lt;span style=&quot;color: rgb(0, 153, 0);&quot;&gt;+op,imm&lt;/span&gt;&lt;/div&gt;" style="rounded=1;whiteSpace=wrap;html=1;arcSize=11;fontFamily=Courier New;fontStyle=1;strokeWidth=2;fillColor=#f9f7ed;strokeColor=#36393d;" parent="1" vertex="1">
          <mxGeometry x="1040" y="960" width="70" height="40" as="geometry" />
        </mxCell>
        <mxCell id="QRGypccLNdDq8GzX22bj-50" style="edgeStyle=orthogonalEdgeStyle;rounded=0;orthogonalLoop=1;jettySize=auto;html=1;exitX=1;exitY=0.5;exitDx=0;exitDy=0;fontFamily=Courier New;fontStyle=1;strokeWidth=2;endArrow=block;endFill=1;endSize=3;startSize=3;" parent="1" source="QRGypccLNdDq8GzX22bj-30" edge="1">
          <mxGeometry relative="1" as="geometry">
            <mxPoint x="1240" y="1020" as="targetPoint" />
            <Array as="points">
              <mxPoint x="1120" y="1060" />
              <mxPoint x="1120" y="1020" />
            </Array>
          </mxGeometry>
        </mxCell>
        <mxCell id="QRGypccLNdDq8GzX22bj-64" value="&amp;nbsp;InstPkg&amp;nbsp;" style="edgeLabel;html=1;align=center;verticalAlign=middle;resizable=0;points=[];fontFamily=Courier New;fontStyle=1;labelBorderColor=default;" parent="QRGypccLNdDq8GzX22bj-50" vertex="1" connectable="0">
          <mxGeometry x="0.4174" y="-1" relative="1" as="geometry">
            <mxPoint x="-21" y="-1" as="offset" />
          </mxGeometry>
        </mxCell>
        <mxCell id="QRGypccLNdDq8GzX22bj-30" value="&lt;span&gt;&lt;font style=&quot;font-size: 15px;&quot;&gt;Rename&lt;/font&gt;&lt;/span&gt;&lt;div&gt;&lt;span&gt;&lt;font style=&quot;color: rgb(0, 153, 0);&quot;&gt;+PInfo&lt;/font&gt;&lt;/span&gt;&lt;/div&gt;" style="rounded=1;whiteSpace=wrap;html=1;arcSize=11;fontFamily=Courier New;fontStyle=1;strokeWidth=2;fillColor=#f9f7ed;strokeColor=#36393d;" parent="1" vertex="1">
          <mxGeometry x="1040" y="1040" width="70" height="40" as="geometry" />
        </mxCell>
        <mxCell id="QRGypccLNdDq8GzX22bj-35" value="&amp;nbsp;InstPkg&amp;nbsp;" style="edgeLabel;html=1;align=center;verticalAlign=middle;resizable=0;points=[];fontFamily=Courier New;fontStyle=1;labelBorderColor=default;" parent="1" vertex="1" connectable="0">
          <mxGeometry x="190" y="1012" as="geometry">
            <mxPoint x="169" y="8" as="offset" />
          </mxGeometry>
        </mxCell>
        <mxCell id="QRGypccLNdDq8GzX22bj-39" value="" style="endArrow=none;dashed=1;html=1;dashPattern=1 3;strokeWidth=2;rounded=0;fontFamily=Courier New;fontStyle=1" parent="1" edge="1">
          <mxGeometry width="50" height="50" relative="1" as="geometry">
            <mxPoint x="850" y="1020" as="sourcePoint" />
            <mxPoint x="890" y="1020" as="targetPoint" />
          </mxGeometry>
        </mxCell>
        <mxCell id="QRGypccLNdDq8GzX22bj-40" value="" style="rounded=0;whiteSpace=wrap;html=1;fontFamily=Courier New;fontStyle=1;strokeWidth=2;fillColor=#f9f7ed;strokeColor=#36393d;" parent="1" vertex="1">
          <mxGeometry x="810" y="960" width="10" height="120" as="geometry" />
        </mxCell>
        <mxCell id="QRGypccLNdDq8GzX22bj-41" value="" style="rounded=0;whiteSpace=wrap;html=1;fontFamily=Courier New;fontStyle=1;strokeWidth=2;fillColor=#f9f7ed;strokeColor=#36393d;" parent="1" vertex="1">
          <mxGeometry x="830" y="960" width="10" height="120" as="geometry" />
        </mxCell>
        <mxCell id="QRGypccLNdDq8GzX22bj-46" style="edgeStyle=orthogonalEdgeStyle;rounded=0;orthogonalLoop=1;jettySize=auto;html=1;exitX=1;exitY=0.5;exitDx=0;exitDy=0;entryX=0;entryY=0.5;entryDx=0;entryDy=0;fontFamily=Courier New;fontStyle=1;endSize=3;startSize=3;strokeWidth=2;endArrow=block;endFill=1;" parent="1" source="QRGypccLNdDq8GzX22bj-42" target="QRGypccLNdDq8GzX22bj-29" edge="1">
          <mxGeometry relative="1" as="geometry">
            <Array as="points">
              <mxPoint x="1020" y="1020" />
              <mxPoint x="1020" y="980" />
            </Array>
          </mxGeometry>
        </mxCell>
        <mxCell id="QRGypccLNdDq8GzX22bj-63" value="&amp;nbsp;InstPkg&amp;nbsp;" style="edgeLabel;html=1;align=center;verticalAlign=middle;resizable=0;points=[];fontFamily=Courier New;fontStyle=1;labelBorderColor=default;" parent="QRGypccLNdDq8GzX22bj-46" vertex="1" connectable="0">
          <mxGeometry x="-0.4957" y="1" relative="1" as="geometry">
            <mxPoint x="4" y="1" as="offset" />
          </mxGeometry>
        </mxCell>
        <mxCell id="QRGypccLNdDq8GzX22bj-42" value="" style="rounded=0;whiteSpace=wrap;html=1;fontFamily=Courier New;fontStyle=1;strokeWidth=2;fillColor=#f9f7ed;strokeColor=#36393d;" parent="1" vertex="1">
          <mxGeometry x="910" y="960" width="10" height="120" as="geometry" />
        </mxCell>
        <mxCell id="QRGypccLNdDq8GzX22bj-43" value="" style="rounded=0;whiteSpace=wrap;html=1;fontFamily=Courier New;fontStyle=1;strokeWidth=2;fillColor=#f9f7ed;strokeColor=#36393d;" parent="1" vertex="1">
          <mxGeometry x="890" y="960" width="10" height="120" as="geometry" />
        </mxCell>
        <mxCell id="QRGypccLNdDq8GzX22bj-76" style="edgeStyle=orthogonalEdgeStyle;rounded=0;orthogonalLoop=1;jettySize=auto;html=1;exitX=1;exitY=0.5;exitDx=0;exitDy=0;fontFamily=Courier New;fontStyle=1;strokeWidth=2;endSize=3;startSize=3;endArrow=block;endFill=1;" parent="1" source="QRGypccLNdDq8GzX22bj-55" edge="1">
          <mxGeometry relative="1" as="geometry">
            <mxPoint x="480" y="1300" as="targetPoint" />
          </mxGeometry>
        </mxCell>
        <mxCell id="QRGypccLNdDq8GzX22bj-77" value="&amp;nbsp;RData&amp;nbsp;" style="edgeLabel;html=1;align=center;verticalAlign=middle;resizable=0;points=[];fontFamily=Courier New;fontStyle=1;labelBorderColor=default;" parent="QRGypccLNdDq8GzX22bj-76" vertex="1" connectable="0">
          <mxGeometry x="-0.1034" relative="1" as="geometry">
            <mxPoint as="offset" />
          </mxGeometry>
        </mxCell>
        <mxCell id="QRGypccLNdDq8GzX22bj-55" value="&lt;font style=&quot;font-size: 15px;&quot;&gt;Data Port 0&lt;/font&gt;" style="rounded=1;whiteSpace=wrap;html=1;fontFamily=Courier New;fontStyle=1;strokeWidth=2;fillColor=#f9f7ed;strokeColor=#36393d;" parent="1" vertex="1">
          <mxGeometry x="200" y="1280" width="120" height="40" as="geometry" />
        </mxCell>
        <mxCell id="QRGypccLNdDq8GzX22bj-54" value="&lt;font style=&quot;font-size: 15px;&quot;&gt;Tag Port 0&lt;/font&gt;" style="rounded=1;whiteSpace=wrap;html=1;fontFamily=Courier New;fontStyle=1;strokeWidth=2;fillColor=#f9f7ed;strokeColor=#36393d;" parent="1" vertex="1">
          <mxGeometry x="200" y="1240" width="120" height="40" as="geometry" />
        </mxCell>
        <mxCell id="QRGypccLNdDq8GzX22bj-68" style="edgeStyle=orthogonalEdgeStyle;rounded=0;orthogonalLoop=1;jettySize=auto;html=1;entryX=0;entryY=0.5;entryDx=0;entryDy=0;strokeWidth=2;fontFamily=Courier New;fontStyle=1;endSize=3;startSize=3;endArrow=block;endFill=1;" parent="1" target="QRGypccLNdDq8GzX22bj-55" edge="1">
          <mxGeometry relative="1" as="geometry">
            <mxPoint x="160" y="1030" as="sourcePoint" />
            <mxPoint x="210" y="1270" as="targetPoint" />
            <Array as="points">
              <mxPoint x="160" y="1300" />
            </Array>
          </mxGeometry>
        </mxCell>
        <mxCell id="QRGypccLNdDq8GzX22bj-91" value="" style="edgeStyle=orthogonalEdgeStyle;rounded=0;orthogonalLoop=1;jettySize=auto;html=1;strokeWidth=2;endSize=3;startSize=3;endArrow=block;endFill=1;" parent="1" source="QRGypccLNdDq8GzX22bj-69" target="QRGypccLNdDq8GzX22bj-54" edge="1">
          <mxGeometry relative="1" as="geometry" />
        </mxCell>
        <mxCell id="QRGypccLNdDq8GzX22bj-69" value="" style="shape=waypoint;sketch=0;fillStyle=solid;size=6;pointerEvents=1;points=[];fillColor=none;resizable=0;rotatable=0;perimeter=centerPerimeter;snapToPoint=1;strokeWidth=3;fontFamily=Courier New;fontStyle=1" parent="1" vertex="1">
          <mxGeometry x="150" y="1250" width="20" height="20" as="geometry" />
        </mxCell>
        <mxCell id="QRGypccLNdDq8GzX22bj-70" value="&lt;font style=&quot;font-size: 17px;&quot;&gt;=&lt;/font&gt;" style="ellipse;whiteSpace=wrap;html=1;aspect=fixed;fontFamily=Courier New;fontStyle=1;strokeWidth=2;fillColor=#f9f7ed;strokeColor=#36393d;" parent="1" vertex="1">
          <mxGeometry x="390" y="1240" width="40" height="40" as="geometry" />
        </mxCell>
        <mxCell id="QRGypccLNdDq8GzX22bj-71" style="edgeStyle=orthogonalEdgeStyle;rounded=0;orthogonalLoop=1;jettySize=auto;html=1;entryX=-0.01;entryY=0.125;entryDx=0;entryDy=0;entryPerimeter=0;strokeWidth=2;fontFamily=Courier New;fontStyle=1;endSize=3;startSize=3;endArrow=block;endFill=1;" parent="1" target="QRGypccLNdDq8GzX22bj-8" edge="1">
          <mxGeometry relative="1" as="geometry">
            <mxPoint x="160" y="1030" as="sourcePoint" />
            <mxPoint x="210" y="1310" as="targetPoint" />
            <Array as="points">
              <mxPoint x="160" y="1220" />
            </Array>
          </mxGeometry>
        </mxCell>
        <mxCell id="QRGypccLNdDq8GzX22bj-72" style="edgeStyle=orthogonalEdgeStyle;rounded=0;orthogonalLoop=1;jettySize=auto;html=1;exitX=1;exitY=0.75;exitDx=0;exitDy=0;entryX=0.055;entryY=0.747;entryDx=0;entryDy=0;entryPerimeter=0;fontFamily=Courier New;fontStyle=1;strokeWidth=2;endSize=3;startSize=3;endArrow=block;endFill=1;" parent="1" source="QRGypccLNdDq8GzX22bj-54" target="QRGypccLNdDq8GzX22bj-70" edge="1">
          <mxGeometry relative="1" as="geometry" />
        </mxCell>
        <mxCell id="QRGypccLNdDq8GzX22bj-75" value="&amp;nbsp;RTag&amp;nbsp;" style="edgeLabel;html=1;align=center;verticalAlign=middle;resizable=0;points=[];fontFamily=Courier New;fontStyle=1;labelBorderColor=default;" parent="QRGypccLNdDq8GzX22bj-72" vertex="1" connectable="0">
          <mxGeometry x="-0.4411" relative="1" as="geometry">
            <mxPoint x="16" as="offset" />
          </mxGeometry>
        </mxCell>
        <mxCell id="QRGypccLNdDq8GzX22bj-73" style="edgeStyle=orthogonalEdgeStyle;rounded=0;orthogonalLoop=1;jettySize=auto;html=1;entryX=0.5;entryY=0;entryDx=0;entryDy=0;fontFamily=Courier New;fontStyle=1;strokeWidth=2;endSize=3;startSize=3;endArrow=block;endFill=1;" parent="1" target="QRGypccLNdDq8GzX22bj-70" edge="1">
          <mxGeometry relative="1" as="geometry">
            <mxPoint x="360" y="1030" as="sourcePoint" />
            <mxPoint x="322" y="1220" as="targetPoint" />
            <Array as="points">
              <mxPoint x="360" y="1220" />
              <mxPoint x="360" y="1221" />
              <mxPoint x="410" y="1221" />
            </Array>
          </mxGeometry>
        </mxCell>
        <mxCell id="QRGypccLNdDq8GzX22bj-74" value="&amp;nbsp;PC&amp;nbsp;" style="edgeLabel;html=1;align=center;verticalAlign=middle;resizable=0;points=[];fontFamily=Courier New;fontStyle=1;labelBorderColor=default;rotation=-90;" parent="QRGypccLNdDq8GzX22bj-73" vertex="1" connectable="0">
          <mxGeometry x="-0.369" relative="1" as="geometry">
            <mxPoint as="offset" />
          </mxGeometry>
        </mxCell>
        <mxCell id="QRGypccLNdDq8GzX22bj-79" style="edgeStyle=orthogonalEdgeStyle;rounded=0;orthogonalLoop=1;jettySize=auto;html=1;exitX=1;exitY=0.5;exitDx=0;exitDy=0;entryX=0;entryY=0.374;entryDx=0;entryDy=0;entryPerimeter=0;fontFamily=Courier New;fontStyle=1;strokeWidth=2;endSize=3;startSize=3;endArrow=block;endFill=1;" parent="1" source="QRGypccLNdDq8GzX22bj-70" target="QRGypccLNdDq8GzX22bj-10" edge="1">
          <mxGeometry relative="1" as="geometry" />
        </mxCell>
        <mxCell id="QRGypccLNdDq8GzX22bj-80" value="&amp;nbsp;Hit&amp;nbsp;" style="edgeLabel;html=1;align=center;verticalAlign=middle;resizable=0;points=[];fontFamily=Courier New;fontStyle=1;labelBorderColor=default;" parent="QRGypccLNdDq8GzX22bj-79" vertex="1" connectable="0">
          <mxGeometry x="-0.4056" y="-2" relative="1" as="geometry">
            <mxPoint x="5" y="-2" as="offset" />
          </mxGeometry>
        </mxCell>
        <mxCell id="QRGypccLNdDq8GzX22bj-81" value="&lt;font style=&quot;font-size: 15px;&quot;&gt;FSM&lt;/font&gt;" style="rounded=1;whiteSpace=wrap;html=1;fontFamily=Courier New;fontStyle=1;strokeWidth=2;fillColor=#f9f7ed;strokeColor=#36393d;" parent="1" vertex="1">
          <mxGeometry x="581" y="1260" width="80" height="40" as="geometry" />
        </mxCell>
        <mxCell id="QRGypccLNdDq8GzX22bj-83" value="" style="endArrow=block;html=1;rounded=0;strokeWidth=2;endFill=1;fontFamily=Courier New;startArrow=block;startFill=1;entryX=0.175;entryY=1.007;entryDx=0;entryDy=0;entryPerimeter=0;edgeStyle=orthogonalEdgeStyle;endSize=3;startSize=3;fontStyle=1" parent="1" edge="1">
          <mxGeometry width="50" height="50" relative="1" as="geometry">
            <mxPoint x="621" y="1400" as="sourcePoint" />
            <mxPoint x="621" y="1300" as="targetPoint" />
            <Array as="points">
              <mxPoint x="621" y="1345" />
            </Array>
          </mxGeometry>
        </mxCell>
        <mxCell id="QRGypccLNdDq8GzX22bj-84" value="&lt;span style=&quot;&quot;&gt;&lt;font style=&quot;font-size: 10px;&quot;&gt;&amp;nbsp;Req-Rsp&amp;nbsp;&lt;/font&gt;&lt;/span&gt;" style="edgeLabel;html=1;align=center;verticalAlign=middle;resizable=0;points=[];labelBorderColor=default;fontFamily=Courier New;rotation=-90;fontStyle=1" parent="QRGypccLNdDq8GzX22bj-83" vertex="1" connectable="0">
          <mxGeometry x="-0.2389" y="2" relative="1" as="geometry">
            <mxPoint x="2" y="-12" as="offset" />
          </mxGeometry>
        </mxCell>
        <mxCell id="QRGypccLNdDq8GzX22bj-86" value="" style="endArrow=block;html=1;rounded=0;strokeWidth=2;endFill=1;fontFamily=Courier New;endSize=3;startSize=3;edgeStyle=orthogonalEdgeStyle;fontStyle=1" parent="1" edge="1">
          <mxGeometry width="50" height="50" relative="1" as="geometry">
            <mxPoint x="60" y="880" as="sourcePoint" />
            <mxPoint x="60" y="980" as="targetPoint" />
            <Array as="points">
              <mxPoint x="60" y="890" />
            </Array>
          </mxGeometry>
        </mxCell>
        <mxCell id="QRGypccLNdDq8GzX22bj-87" value="&lt;span style=&quot;font-size: 10px;&quot;&gt;&amp;nbsp;Commit-Bus&amp;nbsp;&lt;/span&gt;" style="edgeLabel;html=1;align=center;verticalAlign=middle;resizable=0;points=[];labelBorderColor=default;fontFamily=Courier New;rotation=270;fontStyle=1" parent="QRGypccLNdDq8GzX22bj-86" vertex="1" connectable="0">
          <mxGeometry x="-0.2389" y="2" relative="1" as="geometry">
            <mxPoint x="-2" y="12" as="offset" />
          </mxGeometry>
        </mxCell>
        <mxCell id="QRGypccLNdDq8GzX22bj-90" value="" style="shape=waypoint;sketch=0;fillStyle=solid;size=6;pointerEvents=1;points=[];fillColor=none;resizable=0;rotatable=0;perimeter=centerPerimeter;snapToPoint=1;strokeWidth=3;fontFamily=Courier New;fontStyle=1" parent="1" vertex="1">
          <mxGeometry x="150" y="1210" width="20" height="20" as="geometry" />
        </mxCell>
        <mxCell id="QRGypccLNdDq8GzX22bj-95" style="edgeStyle=orthogonalEdgeStyle;rounded=0;orthogonalLoop=1;jettySize=auto;html=1;strokeWidth=2;fontFamily=Courier New;fontStyle=1;endArrow=block;endFill=1;endSize=3;startSize=3;exitX=1;exitY=0.25;exitDx=0;exitDy=0;" parent="1" source="QRGypccLNdDq8GzX22bj-20" edge="1">
          <mxGeometry relative="1" as="geometry">
            <mxPoint x="699.53" y="980" as="sourcePoint" />
            <mxPoint x="740" y="880" as="targetPoint" />
            <Array as="points">
              <mxPoint x="740" y="990" />
            </Array>
          </mxGeometry>
        </mxCell>
        <mxCell id="QRGypccLNdDq8GzX22bj-96" value="&amp;nbsp;PD-Flush&amp;nbsp;" style="edgeLabel;html=1;align=center;verticalAlign=middle;resizable=0;points=[];rotation=-90;fontFamily=Courier New;fontStyle=1;labelBorderColor=default;" parent="QRGypccLNdDq8GzX22bj-95" vertex="1" connectable="0">
          <mxGeometry x="0.8437" y="1" relative="1" as="geometry">
            <mxPoint x="1" y="47" as="offset" />
          </mxGeometry>
        </mxCell>
        <mxCell id="QRGypccLNdDq8GzX22bj-97" value="&lt;font style=&quot;font-size: 11px;&quot; face=&quot;Courier New&quot;&gt;&lt;b&gt;Miss&lt;/b&gt;&lt;/font&gt;" style="rounded=0;whiteSpace=wrap;html=1;strokeWidth=2;fillColor=#f9f7ed;strokeColor=#36393d;" parent="1" vertex="1">
          <mxGeometry x="485" y="1245.5" width="30" height="29" as="geometry" />
        </mxCell>
        <mxCell id="QRGypccLNdDq8GzX22bj-100" value="" style="edgeStyle=orthogonalEdgeStyle;rounded=0;orthogonalLoop=1;jettySize=auto;html=1;exitX=1;exitY=0.5;exitDx=0;exitDy=0;fontFamily=Courier New;fontStyle=1;strokeWidth=2;endSize=3;startSize=3;endArrow=block;endFill=1;" parent="1" edge="1">
          <mxGeometry relative="1" as="geometry">
            <mxPoint x="515" y="1262" as="sourcePoint" />
            <mxPoint x="540" y="1120" as="targetPoint" />
            <Array as="points">
              <mxPoint x="540" y="1262" />
              <mxPoint x="540" y="1120" />
            </Array>
          </mxGeometry>
        </mxCell>
        <mxCell id="QRGypccLNdDq8GzX22bj-101" value="&amp;nbsp;IC-Miss&amp;nbsp;" style="edgeLabel;html=1;align=center;verticalAlign=middle;resizable=0;points=[];rotation=-90;fontFamily=Courier New;fontStyle=1;labelBorderColor=default;" parent="QRGypccLNdDq8GzX22bj-100" vertex="1" connectable="0">
          <mxGeometry x="-0.1148" relative="1" as="geometry">
            <mxPoint x="-1" y="-22" as="offset" />
          </mxGeometry>
        </mxCell>
        <mxCell id="QRGypccLNdDq8GzX22bj-102" style="edgeStyle=orthogonalEdgeStyle;rounded=0;orthogonalLoop=1;jettySize=auto;html=1;strokeWidth=2;fontFamily=Courier New;fontStyle=1;endArrow=block;endFill=1;endSize=3;startSize=3;" parent="1" edge="1">
          <mxGeometry relative="1" as="geometry">
            <mxPoint x="100.15" y="880" as="sourcePoint" />
            <mxPoint x="100" y="980" as="targetPoint" />
            <Array as="points">
              <mxPoint x="100" y="917" />
            </Array>
          </mxGeometry>
        </mxCell>
        <mxCell id="QRGypccLNdDq8GzX22bj-103" value="&amp;nbsp;IC-Miss&amp;nbsp;" style="edgeLabel;html=1;align=center;verticalAlign=middle;resizable=0;points=[];rotation=-90;fontFamily=Courier New;fontStyle=1;labelBorderColor=default;" parent="QRGypccLNdDq8GzX22bj-102" vertex="1" connectable="0">
          <mxGeometry x="0.8437" y="1" relative="1" as="geometry">
            <mxPoint x="-1" y="-36" as="offset" />
          </mxGeometry>
        </mxCell>
        <mxCell id="QRGypccLNdDq8GzX22bj-106" value="&lt;font style=&quot;font-size: 15px;&quot; face=&quot;Courier New&quot;&gt;&lt;b style=&quot;&quot;&gt;&amp;nbsp;Fetch Queue&amp;nbsp;&lt;/b&gt;&lt;/font&gt;" style="text;html=1;align=center;verticalAlign=middle;resizable=0;points=[];autosize=1;strokeColor=none;fillColor=none;labelBorderColor=default;" parent="1" vertex="1">
          <mxGeometry x="790" y="1090" width="140" height="30" as="geometry" />
        </mxCell>
        <mxCell id="QRGypccLNdDq8GzX22bj-108" value="&lt;font style=&quot;font-size: 15px;&quot; face=&quot;Courier New&quot;&gt;&lt;b style=&quot;&quot;&gt;&amp;nbsp;ICache&amp;nbsp;&lt;/b&gt;&lt;/font&gt;" style="text;html=1;align=center;verticalAlign=middle;resizable=0;points=[];autosize=1;strokeColor=none;fillColor=none;labelBorderColor=default;" parent="1" vertex="1">
          <mxGeometry x="365" y="1380" width="100" height="30" as="geometry" />
        </mxCell>
        <mxCell id="QRGypccLNdDq8GzX22bj-110" value="&lt;span&gt;&lt;font style=&quot;font-size: 15px;&quot;&gt;Arith&lt;/font&gt;&lt;/span&gt;&lt;div&gt;&lt;span&gt;&lt;font style=&quot;font-size: 15px;&quot;&gt;Issue&lt;/font&gt;&lt;/span&gt;&lt;/div&gt;&lt;div&gt;&lt;span&gt;&lt;font style=&quot;font-size: 15px;&quot;&gt;Queue&lt;/font&gt;&lt;/span&gt;&lt;/div&gt;" style="rounded=1;whiteSpace=wrap;html=1;arcSize=11;strokeWidth=2;fontFamily=Courier New;fontStyle=1;fillColor=#f9f7ed;strokeColor=#36393d;" parent="1" vertex="1">
          <mxGeometry x="159.43" y="1760" width="80" height="480" as="geometry" />
        </mxCell>
        <mxCell id="QRGypccLNdDq8GzX22bj-114" value="" style="endArrow=none;html=1;rounded=0;" parent="1" edge="1">
          <mxGeometry width="50" height="50" relative="1" as="geometry">
            <mxPoint x="555" y="1085" as="sourcePoint" />
            <mxPoint x="565" y="1075" as="targetPoint" />
          </mxGeometry>
        </mxCell>
        <mxCell id="QRGypccLNdDq8GzX22bj-115" value="&lt;font style=&quot;font-size: 8px;&quot;&gt;nfch&lt;/font&gt;" style="text;html=1;align=center;verticalAlign=middle;resizable=0;points=[];autosize=1;strokeColor=none;fillColor=none;fontFamily=Courier New;rotation=-90;" parent="1" vertex="1">
          <mxGeometry x="530" y="1060" width="40" height="30" as="geometry" />
        </mxCell>
        <mxCell id="QRGypccLNdDq8GzX22bj-116" value="&lt;font style=&quot;font-size: 8px;&quot;&gt;nfch&lt;/font&gt;" style="text;html=1;align=center;verticalAlign=middle;resizable=0;points=[];autosize=1;strokeColor=none;fillColor=none;fontFamily=Courier New;rotation=0;" parent="1" vertex="1">
          <mxGeometry x="430" y="994" width="40" height="30" as="geometry" />
        </mxCell>
        <mxCell id="QRGypccLNdDq8GzX22bj-117" value="" style="endArrow=none;html=1;rounded=0;" parent="1" edge="1">
          <mxGeometry width="50" height="50" relative="1" as="geometry">
            <mxPoint x="450" y="1025" as="sourcePoint" />
            <mxPoint x="460" y="1015" as="targetPoint" />
          </mxGeometry>
        </mxCell>
        <mxCell id="QRGypccLNdDq8GzX22bj-118" value="" style="endArrow=none;html=1;rounded=0;" parent="1" edge="1">
          <mxGeometry width="50" height="50" relative="1" as="geometry">
            <mxPoint x="595" y="1025" as="sourcePoint" />
            <mxPoint x="605" y="1015" as="targetPoint" />
          </mxGeometry>
        </mxCell>
        <mxCell id="QRGypccLNdDq8GzX22bj-119" value="&lt;font style=&quot;font-size: 8px;&quot;&gt;nfch&lt;/font&gt;" style="text;html=1;align=center;verticalAlign=middle;resizable=0;points=[];autosize=1;strokeColor=none;fillColor=none;fontFamily=Courier New;rotation=0;" parent="1" vertex="1">
          <mxGeometry x="581" y="994" width="40" height="30" as="geometry" />
        </mxCell>
        <mxCell id="QRGypccLNdDq8GzX22bj-120" value="" style="endArrow=none;html=1;rounded=0;" parent="1" edge="1">
          <mxGeometry width="50" height="50" relative="1" as="geometry">
            <mxPoint x="774" y="1025" as="sourcePoint" />
            <mxPoint x="784" y="1015" as="targetPoint" />
          </mxGeometry>
        </mxCell>
        <mxCell id="QRGypccLNdDq8GzX22bj-121" value="&lt;font style=&quot;font-size: 8px;&quot;&gt;nfch&lt;/font&gt;" style="text;html=1;align=center;verticalAlign=middle;resizable=0;points=[];autosize=1;strokeColor=none;fillColor=none;fontFamily=Courier New;rotation=0;" parent="1" vertex="1">
          <mxGeometry x="760" y="994" width="40" height="30" as="geometry" />
        </mxCell>
        <mxCell id="QRGypccLNdDq8GzX22bj-122" value="" style="endArrow=none;html=1;rounded=0;" parent="1" edge="1">
          <mxGeometry width="50" height="50" relative="1" as="geometry">
            <mxPoint x="1004" y="1025" as="sourcePoint" />
            <mxPoint x="1014" y="1015" as="targetPoint" />
          </mxGeometry>
        </mxCell>
        <mxCell id="QRGypccLNdDq8GzX22bj-123" value="&lt;font style=&quot;font-size: 8px;&quot;&gt;ndcd&lt;/font&gt;" style="text;html=1;align=center;verticalAlign=middle;resizable=0;points=[];autosize=1;strokeColor=none;fillColor=none;fontFamily=Courier New;rotation=0;" parent="1" vertex="1">
          <mxGeometry x="987" y="994" width="40" height="30" as="geometry" />
        </mxCell>
        <mxCell id="QRGypccLNdDq8GzX22bj-124" value="" style="endArrow=none;html=1;rounded=0;" parent="1" edge="1">
          <mxGeometry width="50" height="50" relative="1" as="geometry">
            <mxPoint x="1217" y="1025" as="sourcePoint" />
            <mxPoint x="1227" y="1015" as="targetPoint" />
          </mxGeometry>
        </mxCell>
        <mxCell id="QRGypccLNdDq8GzX22bj-125" value="&lt;font style=&quot;font-size: 8px;&quot;&gt;ndcd&lt;/font&gt;" style="text;html=1;align=center;verticalAlign=middle;resizable=0;points=[];autosize=1;strokeColor=none;fillColor=none;fontFamily=Courier New;rotation=0;" parent="1" vertex="1">
          <mxGeometry x="1200" y="994" width="40" height="30" as="geometry" />
        </mxCell>
        <mxCell id="QRGypccLNdDq8GzX22bj-129" value="" style="endArrow=none;html=1;rounded=0;" parent="1" edge="1">
          <mxGeometry width="50" height="50" relative="1" as="geometry">
            <mxPoint x="1367" y="1025" as="sourcePoint" />
            <mxPoint x="1377" y="1015" as="targetPoint" />
          </mxGeometry>
        </mxCell>
        <mxCell id="QRGypccLNdDq8GzX22bj-130" value="&lt;font style=&quot;font-size: 8px;&quot;&gt;ndcd&lt;/font&gt;" style="text;html=1;align=center;verticalAlign=middle;resizable=0;points=[];autosize=1;strokeColor=none;fillColor=none;fontFamily=Courier New;rotation=0;" parent="1" vertex="1">
          <mxGeometry x="1350" y="994" width="40" height="30" as="geometry" />
        </mxCell>
        <mxCell id="QRGypccLNdDq8GzX22bj-131" value="&lt;span style=&quot;font-size: 15px;&quot;&gt;MulDiv&lt;/span&gt;&lt;div&gt;&lt;span style=&quot;font-size: 15px;&quot;&gt;Issue&lt;/span&gt;&lt;/div&gt;&lt;div&gt;&lt;span style=&quot;font-size: 15px;&quot;&gt;Queue&lt;/span&gt;&lt;/div&gt;" style="rounded=1;whiteSpace=wrap;html=1;arcSize=11;strokeWidth=2;fontFamily=Courier New;fontStyle=1;fillColor=#f9f7ed;strokeColor=#36393d;" parent="1" vertex="1">
          <mxGeometry x="159.43" y="2260" width="80" height="140" as="geometry" />
        </mxCell>
        <mxCell id="QRGypccLNdDq8GzX22bj-133" value="&lt;span style=&quot;font-size: 15px;&quot;&gt;LS&lt;/span&gt;&lt;br&gt;&lt;div&gt;&lt;span style=&quot;font-size: 15px;&quot;&gt;Issue&lt;/span&gt;&lt;/div&gt;&lt;div&gt;&lt;span style=&quot;font-size: 15px;&quot;&gt;Queue&lt;/span&gt;&lt;/div&gt;" style="rounded=1;whiteSpace=wrap;html=1;arcSize=11;strokeWidth=2;fontFamily=Courier New;fontStyle=1;fillColor=#f9f7ed;strokeColor=#36393d;" parent="1" vertex="1">
          <mxGeometry x="159.43" y="2420" width="80" height="140" as="geometry" />
        </mxCell>
        <mxCell id="QRGypccLNdDq8GzX22bj-135" value="&lt;span&gt;&lt;font style=&quot;font-size: 15px;&quot;&gt;Forward&lt;/font&gt;&lt;/span&gt;" style="rounded=1;whiteSpace=wrap;html=1;arcSize=11;strokeWidth=2;fontFamily=Courier New;fontStyle=1;fillColor=#f9f7ed;strokeColor=#36393d;rotation=-90;" parent="1" vertex="1">
          <mxGeometry x="811.45" y="1997.15" width="502.25" height="45" as="geometry" />
        </mxCell>
        <mxCell id="QRGypccLNdDq8GzX22bj-149" value="" style="rounded=0;whiteSpace=wrap;html=1;fontFamily=Courier New;fontStyle=1;strokeWidth=2;fillColor=#f5f5f5;fontColor=#333333;strokeColor=#000000;" parent="1" vertex="1">
          <mxGeometry x="598.3499999999999" y="1791" width="20.54" height="118.61" as="geometry" />
        </mxCell>
        <mxCell id="QRGypccLNdDq8GzX22bj-150" value="" style="triangle;whiteSpace=wrap;html=1;rotation=-90;fontFamily=Courier New;fontStyle=1;strokeWidth=2;strokeColor=#000000;" parent="1" vertex="1">
          <mxGeometry x="598.89" y="1889.07" width="20" height="21.09" as="geometry" />
        </mxCell>
        <mxCell id="QRGypccLNdDq8GzX22bj-183" value="&lt;span&gt;&lt;font style=&quot;font-size: 15px;&quot;&gt;Regfile&lt;/font&gt;&lt;/span&gt;&lt;div&gt;&lt;span&gt;&lt;font style=&quot;color: rgb(0, 153, 0);&quot;&gt;+src1, src2&lt;/font&gt;&lt;/span&gt;&lt;/div&gt;" style="rounded=1;whiteSpace=wrap;html=1;arcSize=11;strokeWidth=2;fontFamily=Courier New;fontStyle=1;fillColor=#f9f7ed;strokeColor=#36393d;rotation=-90;" parent="1" vertex="1">
          <mxGeometry x="45" y="2135.95" width="789.62" height="40.55" as="geometry" />
        </mxCell>
        <mxCell id="QRGypccLNdDq8GzX22bj-185" value="&lt;span&gt;&lt;font style=&quot;font-size: 15px;&quot;&gt;ALU&lt;/font&gt;&lt;/span&gt;&lt;div&gt;&lt;font style=&quot;color: rgb(0, 153, 0);&quot;&gt;+RfWdata&lt;/font&gt;&lt;/div&gt;" style="rounded=1;whiteSpace=wrap;html=1;arcSize=11;strokeWidth=2;fontFamily=Courier New;fontStyle=1;fillColor=#f9f7ed;strokeColor=#36393d;" parent="1" vertex="1">
          <mxGeometry x="699.4300000000001" y="1800.8400000000001" width="120" height="39.73" as="geometry" />
        </mxCell>
        <mxCell id="QRGypccLNdDq8GzX22bj-186" value="&lt;span&gt;&lt;font style=&quot;font-size: 15px;&quot;&gt;Branch&lt;/font&gt;&lt;/span&gt;&lt;div&gt;&lt;span&gt;&lt;font style=&quot;color: rgb(0, 153, 0);&quot;&gt;+JumpInfo&lt;/font&gt;&lt;/span&gt;&lt;/div&gt;" style="rounded=1;whiteSpace=wrap;html=1;arcSize=11;strokeWidth=2;fontFamily=Courier New;fontStyle=1;fillColor=#f9f7ed;strokeColor=#36393d;" parent="1" vertex="1">
          <mxGeometry x="699.4300000000001" y="1858.6400000000003" width="120" height="40" as="geometry" />
        </mxCell>
        <mxCell id="QRGypccLNdDq8GzX22bj-188" value="" style="rounded=0;whiteSpace=wrap;html=1;fontFamily=Courier New;fontStyle=1;strokeWidth=2;fillColor=#f5f5f5;fontColor=#333333;strokeColor=#000000;" parent="1" vertex="1">
          <mxGeometry x="598.3499999999999" y="1951.02" width="20.54" height="118.61" as="geometry" />
        </mxCell>
        <mxCell id="QRGypccLNdDq8GzX22bj-189" value="" style="triangle;whiteSpace=wrap;html=1;rotation=-90;fontFamily=Courier New;fontStyle=1;strokeWidth=2;strokeColor=#000000;" parent="1" vertex="1">
          <mxGeometry x="598.89" y="2049.09" width="20" height="21.09" as="geometry" />
        </mxCell>
        <mxCell id="QRGypccLNdDq8GzX22bj-190" value="" style="rounded=0;whiteSpace=wrap;html=1;fontFamily=Courier New;fontStyle=1;strokeWidth=2;fillColor=#f5f5f5;fontColor=#333333;strokeColor=#000000;" parent="1" vertex="1">
          <mxGeometry x="598.6199999999999" y="2110.7299999999996" width="20.54" height="118.61" as="geometry" />
        </mxCell>
        <mxCell id="QRGypccLNdDq8GzX22bj-192" value="" style="triangle;whiteSpace=wrap;html=1;rotation=-90;fontFamily=Courier New;fontStyle=1;strokeWidth=2;strokeColor=#000000;" parent="1" vertex="1">
          <mxGeometry x="598.81" y="2209.25" width="20" height="21.09" as="geometry" />
        </mxCell>
        <mxCell id="QRGypccLNdDq8GzX22bj-193" value="&lt;span&gt;&lt;font style=&quot;font-size: 15px;&quot;&gt;ALU&lt;/font&gt;&lt;/span&gt;&lt;div&gt;&lt;font style=&quot;color: rgb(0, 153, 0);&quot;&gt;+RfWdata&lt;/font&gt;&lt;/div&gt;" style="rounded=1;whiteSpace=wrap;html=1;arcSize=11;strokeWidth=2;fontFamily=Courier New;fontStyle=1;fillColor=#f9f7ed;strokeColor=#36393d;" parent="1" vertex="1">
          <mxGeometry x="699.4300000000001" y="1960.8700000000001" width="120" height="39.73" as="geometry" />
        </mxCell>
        <mxCell id="QRGypccLNdDq8GzX22bj-194" value="&lt;span&gt;&lt;font style=&quot;font-size: 15px;&quot;&gt;Branch&lt;/font&gt;&lt;/span&gt;&lt;div&gt;&lt;span&gt;&lt;font style=&quot;color: rgb(0, 153, 0);&quot;&gt;+JumpInfo&lt;/font&gt;&lt;/span&gt;&lt;/div&gt;" style="rounded=1;whiteSpace=wrap;html=1;arcSize=11;strokeWidth=2;fontFamily=Courier New;fontStyle=1;fillColor=#f9f7ed;strokeColor=#36393d;" parent="1" vertex="1">
          <mxGeometry x="699.4300000000001" y="2018.6700000000003" width="120" height="40" as="geometry" />
        </mxCell>
        <mxCell id="QRGypccLNdDq8GzX22bj-195" value="&lt;span&gt;&lt;font style=&quot;font-size: 15px;&quot;&gt;ALU&lt;/font&gt;&lt;/span&gt;&lt;div&gt;&lt;font style=&quot;color: rgb(0, 153, 0);&quot;&gt;+RfWdata&lt;/font&gt;&lt;/div&gt;" style="rounded=1;whiteSpace=wrap;html=1;arcSize=11;strokeWidth=2;fontFamily=Courier New;fontStyle=1;fillColor=#f9f7ed;strokeColor=#36393d;" parent="1" vertex="1">
          <mxGeometry x="699.4300000000001" y="2119.75" width="120" height="39.73" as="geometry" />
        </mxCell>
        <mxCell id="QRGypccLNdDq8GzX22bj-196" value="&lt;span&gt;&lt;font style=&quot;font-size: 15px;&quot;&gt;Branch&lt;/font&gt;&lt;/span&gt;&lt;div&gt;&lt;span&gt;&lt;font style=&quot;color: rgb(0, 153, 0);&quot;&gt;+JumpInfo&lt;/font&gt;&lt;/span&gt;&lt;/div&gt;" style="rounded=1;whiteSpace=wrap;html=1;arcSize=11;strokeWidth=2;fontFamily=Courier New;fontStyle=1;fillColor=#f9f7ed;strokeColor=#36393d;" parent="1" vertex="1">
          <mxGeometry x="699.4300000000001" y="2177.55" width="120" height="40" as="geometry" />
        </mxCell>
        <mxCell id="QRGypccLNdDq8GzX22bj-197" value="" style="rounded=0;whiteSpace=wrap;html=1;fontFamily=Courier New;fontStyle=1;strokeWidth=2;fillColor=#f5f5f5;fontColor=#333333;strokeColor=#000000;" parent="1" vertex="1">
          <mxGeometry x="599.7" y="2270" width="20.54" height="118.61" as="geometry" />
        </mxCell>
        <mxCell id="QRGypccLNdDq8GzX22bj-198" value="" style="triangle;whiteSpace=wrap;html=1;rotation=-90;fontFamily=Courier New;fontStyle=1;strokeWidth=2;strokeColor=#000000;" parent="1" vertex="1">
          <mxGeometry x="600.24" y="2368.0699999999997" width="20" height="21.09" as="geometry" />
        </mxCell>
        <mxCell id="QRGypccLNdDq8GzX22bj-199" value="" style="rounded=0;whiteSpace=wrap;html=1;fontFamily=Courier New;fontStyle=1;strokeWidth=2;fillColor=#f5f5f5;fontColor=#333333;strokeColor=#000000;" parent="1" vertex="1">
          <mxGeometry x="598.27" y="2431.02" width="20.54" height="118.61" as="geometry" />
        </mxCell>
        <mxCell id="QRGypccLNdDq8GzX22bj-200" value="" style="triangle;whiteSpace=wrap;html=1;rotation=-90;fontFamily=Courier New;fontStyle=1;strokeWidth=2;strokeColor=#000000;" parent="1" vertex="1">
          <mxGeometry x="598.81" y="2529.09" width="20" height="21.09" as="geometry" />
        </mxCell>
        <mxCell id="QRGypccLNdDq8GzX22bj-203" value="" style="rounded=0;whiteSpace=wrap;html=1;fontFamily=Courier New;fontStyle=1;strokeWidth=2;fillColor=#f5f5f5;fontColor=#333333;strokeColor=#000000;" parent="1" vertex="1">
          <mxGeometry x="898.78" y="1790.45" width="20.54" height="118.61" as="geometry" />
        </mxCell>
        <mxCell id="QRGypccLNdDq8GzX22bj-204" value="" style="triangle;whiteSpace=wrap;html=1;rotation=-90;fontFamily=Courier New;fontStyle=1;strokeWidth=2;strokeColor=#000000;" parent="1" vertex="1">
          <mxGeometry x="899.3200000000002" y="1888.52" width="20" height="21.09" as="geometry" />
        </mxCell>
        <mxCell id="QRGypccLNdDq8GzX22bj-205" value="" style="rounded=0;whiteSpace=wrap;html=1;fontFamily=Courier New;fontStyle=1;strokeWidth=2;fillColor=#f5f5f5;fontColor=#333333;strokeColor=#000000;" parent="1" vertex="1">
          <mxGeometry x="898.78" y="1950.42" width="20.54" height="118.61" as="geometry" />
        </mxCell>
        <mxCell id="QRGypccLNdDq8GzX22bj-206" value="" style="triangle;whiteSpace=wrap;html=1;rotation=-90;fontFamily=Courier New;fontStyle=1;strokeWidth=2;strokeColor=#000000;" parent="1" vertex="1">
          <mxGeometry x="899.3200000000002" y="2048.49" width="20" height="21.09" as="geometry" />
        </mxCell>
        <mxCell id="QRGypccLNdDq8GzX22bj-207" value="" style="rounded=0;whiteSpace=wrap;html=1;fontFamily=Courier New;fontStyle=1;strokeWidth=2;fillColor=#f5f5f5;fontColor=#333333;strokeColor=#000000;" parent="1" vertex="1">
          <mxGeometry x="899.7" y="2110.7299999999996" width="20.54" height="118.61" as="geometry" />
        </mxCell>
        <mxCell id="QRGypccLNdDq8GzX22bj-208" value="" style="triangle;whiteSpace=wrap;html=1;rotation=-90;fontFamily=Courier New;fontStyle=1;strokeWidth=2;strokeColor=#000000;" parent="1" vertex="1">
          <mxGeometry x="899.8900000000001" y="2209.25" width="20" height="21.09" as="geometry" />
        </mxCell>
        <mxCell id="QRGypccLNdDq8GzX22bj-209" value="" style="rounded=0;whiteSpace=wrap;html=1;fontFamily=Courier New;fontStyle=1;strokeWidth=2;fillColor=#f5f5f5;fontColor=#333333;strokeColor=#000000;" parent="1" vertex="1">
          <mxGeometry x="319.51" y="1791" width="20.54" height="118.61" as="geometry" />
        </mxCell>
        <mxCell id="QRGypccLNdDq8GzX22bj-210" value="" style="triangle;whiteSpace=wrap;html=1;rotation=-90;fontFamily=Courier New;fontStyle=1;strokeWidth=2;strokeColor=#000000;" parent="1" vertex="1">
          <mxGeometry x="320.05" y="1889.07" width="20" height="21.09" as="geometry" />
        </mxCell>
        <mxCell id="QRGypccLNdDq8GzX22bj-211" value="" style="rounded=0;whiteSpace=wrap;html=1;fontFamily=Courier New;fontStyle=1;strokeWidth=2;fillColor=#f5f5f5;fontColor=#333333;strokeColor=#000000;" parent="1" vertex="1">
          <mxGeometry x="319.50999999999993" y="1951.02" width="20.54" height="118.61" as="geometry" />
        </mxCell>
        <mxCell id="QRGypccLNdDq8GzX22bj-212" value="" style="triangle;whiteSpace=wrap;html=1;rotation=-90;fontFamily=Courier New;fontStyle=1;strokeWidth=2;strokeColor=#000000;" parent="1" vertex="1">
          <mxGeometry x="320.05" y="2049.09" width="20" height="21.09" as="geometry" />
        </mxCell>
        <mxCell id="QRGypccLNdDq8GzX22bj-213" value="" style="rounded=0;whiteSpace=wrap;html=1;fontFamily=Courier New;fontStyle=1;strokeWidth=2;fillColor=#f5f5f5;fontColor=#333333;strokeColor=#000000;" parent="1" vertex="1">
          <mxGeometry x="319.7799999999999" y="2110.7299999999996" width="20.54" height="118.61" as="geometry" />
        </mxCell>
        <mxCell id="QRGypccLNdDq8GzX22bj-214" value="" style="triangle;whiteSpace=wrap;html=1;rotation=-90;fontFamily=Courier New;fontStyle=1;strokeWidth=2;strokeColor=#000000;" parent="1" vertex="1">
          <mxGeometry x="319.97" y="2209.25" width="20" height="21.09" as="geometry" />
        </mxCell>
        <mxCell id="QRGypccLNdDq8GzX22bj-215" value="" style="rounded=0;whiteSpace=wrap;html=1;fontFamily=Courier New;fontStyle=1;strokeWidth=2;fillColor=#f5f5f5;fontColor=#333333;strokeColor=#000000;" parent="1" vertex="1">
          <mxGeometry x="319.43" y="2271" width="20.54" height="118.61" as="geometry" />
        </mxCell>
        <mxCell id="QRGypccLNdDq8GzX22bj-216" value="" style="triangle;whiteSpace=wrap;html=1;rotation=-90;fontFamily=Courier New;fontStyle=1;strokeWidth=2;strokeColor=#000000;" parent="1" vertex="1">
          <mxGeometry x="319.97" y="2369.0699999999997" width="20" height="21.09" as="geometry" />
        </mxCell>
        <mxCell id="QRGypccLNdDq8GzX22bj-217" value="" style="rounded=0;whiteSpace=wrap;html=1;fontFamily=Courier New;fontStyle=1;strokeWidth=2;fillColor=#f5f5f5;fontColor=#333333;strokeColor=#000000;" parent="1" vertex="1">
          <mxGeometry x="319.42999999999995" y="2431.02" width="20.54" height="118.61" as="geometry" />
        </mxCell>
        <mxCell id="QRGypccLNdDq8GzX22bj-218" value="" style="triangle;whiteSpace=wrap;html=1;rotation=-90;fontFamily=Courier New;fontStyle=1;strokeWidth=2;strokeColor=#000000;" parent="1" vertex="1">
          <mxGeometry x="319.97" y="2529.09" width="20" height="21.09" as="geometry" />
        </mxCell>
        <mxCell id="QRGypccLNdDq8GzX22bj-219" value="" style="rounded=0;whiteSpace=wrap;html=1;fontFamily=Courier New;fontStyle=1;strokeWidth=2;fillColor=#f5f5f5;fontColor=#333333;strokeColor=#000000;" parent="1" vertex="1">
          <mxGeometry x="899.51" y="2270" width="20.54" height="118.61" as="geometry" />
        </mxCell>
        <mxCell id="QRGypccLNdDq8GzX22bj-220" value="" style="triangle;whiteSpace=wrap;html=1;rotation=-90;fontFamily=Courier New;fontStyle=1;strokeWidth=2;strokeColor=#000000;" parent="1" vertex="1">
          <mxGeometry x="899.7" y="2368.52" width="20" height="21.09" as="geometry" />
        </mxCell>
        <mxCell id="QRGypccLNdDq8GzX22bj-221" value="&lt;span style=&quot;font-size: 15px;&quot;&gt;Multiply&lt;/span&gt;&lt;div&gt;&lt;span style=&quot;font-size: 15px;&quot;&gt;Booth2&lt;/span&gt;&lt;/div&gt;" style="rounded=1;whiteSpace=wrap;html=1;arcSize=11;strokeWidth=2;fontFamily=Courier New;fontStyle=1;fillColor=#f9f7ed;strokeColor=#36393d;" parent="1" vertex="1">
          <mxGeometry x="699.4300000000001" y="2280.44" width="120" height="39.73" as="geometry" />
        </mxCell>
        <mxCell id="QRGypccLNdDq8GzX22bj-222" value="&lt;span style=&quot;font-size: 15px;&quot;&gt;SRT2&lt;/span&gt;&lt;div&gt;&lt;span style=&quot;font-size: 15px;&quot;&gt;Init&lt;/span&gt;&lt;/div&gt;" style="rounded=1;whiteSpace=wrap;html=1;arcSize=11;strokeWidth=2;fontFamily=Courier New;fontStyle=1;fillColor=#f9f7ed;strokeColor=#36393d;" parent="1" vertex="1">
          <mxGeometry x="699.4300000000001" y="2340.44" width="120" height="39.73" as="geometry" />
        </mxCell>
        <mxCell id="QRGypccLNdDq8GzX22bj-223" value="&lt;span style=&quot;font-size: 15px;&quot;&gt;Multiply&lt;/span&gt;&lt;div&gt;&lt;span style=&quot;font-size: 15px;&quot;&gt;Wallce&lt;/span&gt;&lt;/div&gt;" style="rounded=1;whiteSpace=wrap;html=1;arcSize=11;strokeWidth=2;fontFamily=Courier New;fontStyle=1;fillColor=#f9f7ed;strokeColor=#36393d;" parent="1" vertex="1">
          <mxGeometry x="978.74" y="2280.44" width="120" height="39.73" as="geometry" />
        </mxCell>
        <mxCell id="QRGypccLNdDq8GzX22bj-224" value="&lt;span style=&quot;font-size: 15px;&quot;&gt;SRT2&lt;/span&gt;&lt;div&gt;&lt;span style=&quot;font-size: 15px;&quot;&gt;Calculate&lt;/span&gt;&lt;/div&gt;" style="rounded=1;whiteSpace=wrap;html=1;arcSize=11;strokeWidth=2;fontFamily=Courier New;fontStyle=1;fillColor=#f9f7ed;strokeColor=#36393d;" parent="1" vertex="1">
          <mxGeometry x="978.74" y="2340.44" width="120" height="39.73" as="geometry" />
        </mxCell>
        <mxCell id="QRGypccLNdDq8GzX22bj-225" value="" style="rounded=0;whiteSpace=wrap;html=1;fontFamily=Courier New;fontStyle=1;strokeWidth=2;fillColor=#f5f5f5;fontColor=#333333;strokeColor=#000000;" parent="1" vertex="1">
          <mxGeometry x="1159.5099999999998" y="2270" width="20.54" height="118.61" as="geometry" />
        </mxCell>
        <mxCell id="QRGypccLNdDq8GzX22bj-226" value="" style="triangle;whiteSpace=wrap;html=1;rotation=-90;fontFamily=Courier New;fontStyle=1;strokeWidth=2;strokeColor=#000000;" parent="1" vertex="1">
          <mxGeometry x="1159.6999999999998" y="2368.52" width="20" height="21.09" as="geometry" />
        </mxCell>
        <mxCell id="QRGypccLNdDq8GzX22bj-227" value="&lt;span style=&quot;font-size: 15px;&quot;&gt;Multiply&lt;/span&gt;&lt;div&gt;&lt;span style=&quot;font-size: 15px;&quot;&gt;FinalAdd&lt;/span&gt;&lt;/div&gt;" style="rounded=1;whiteSpace=wrap;html=1;arcSize=11;strokeWidth=2;fontFamily=Courier New;fontStyle=1;fillColor=#f9f7ed;strokeColor=#36393d;" parent="1" vertex="1">
          <mxGeometry x="1238.5900000000001" y="2280.44" width="120" height="39.73" as="geometry" />
        </mxCell>
        <mxCell id="QRGypccLNdDq8GzX22bj-228" value="&lt;span style=&quot;font-size: 15px;&quot;&gt;SRT2&lt;/span&gt;&lt;div&gt;&lt;span style=&quot;font-size: 15px;&quot;&gt;ResultFix&lt;/span&gt;&lt;/div&gt;" style="rounded=1;whiteSpace=wrap;html=1;arcSize=11;strokeWidth=2;fontFamily=Courier New;fontStyle=1;fillColor=#f9f7ed;strokeColor=#36393d;" parent="1" vertex="1">
          <mxGeometry x="1238.5900000000001" y="2340.44" width="120" height="39.73" as="geometry" />
        </mxCell>
        <mxCell id="QRGypccLNdDq8GzX22bj-229" value="" style="rounded=0;whiteSpace=wrap;html=1;fontFamily=Courier New;fontStyle=1;strokeWidth=2;fillColor=#f5f5f5;fontColor=#333333;strokeColor=#000000;" parent="1" vertex="1">
          <mxGeometry x="1418.5900000000001" y="2272" width="20.54" height="118.61" as="geometry" />
        </mxCell>
        <mxCell id="QRGypccLNdDq8GzX22bj-230" value="" style="triangle;whiteSpace=wrap;html=1;rotation=-90;fontFamily=Courier New;fontStyle=1;strokeWidth=2;strokeColor=#000000;" parent="1" vertex="1">
          <mxGeometry x="1418.7800000000002" y="2370.52" width="20" height="21.09" as="geometry" />
        </mxCell>
        <mxCell id="QRGypccLNdDq8GzX22bj-233" value="&lt;span style=&quot;font-size: 15px;&quot;&gt;AGU&lt;/span&gt;" style="rounded=1;whiteSpace=wrap;html=1;arcSize=11;strokeWidth=2;fontFamily=Courier New;fontStyle=1;fillColor=#f9f7ed;strokeColor=#36393d;rotation=-90;" parent="1" vertex="1">
          <mxGeometry x="479.53000000000003" y="2478.76" width="84.37" height="21.15" as="geometry" />
        </mxCell>
        <mxCell id="QRGypccLNdDq8GzX22bj-235" value="" style="rounded=0;whiteSpace=wrap;html=1;fontFamily=Courier New;fontStyle=1;strokeWidth=2;fillColor=#f5f5f5;fontColor=#333333;strokeColor=#000000;" parent="1" vertex="1">
          <mxGeometry x="599.1600000000001" y="2580" width="20.54" height="129.61" as="geometry" />
        </mxCell>
        <mxCell id="QRGypccLNdDq8GzX22bj-236" value="" style="triangle;whiteSpace=wrap;html=1;rotation=-90;fontFamily=Courier New;fontStyle=1;strokeWidth=2;strokeColor=#000000;" parent="1" vertex="1">
          <mxGeometry x="599.7" y="2689.07" width="20" height="21.09" as="geometry" />
        </mxCell>
        <mxCell id="QRGypccLNdDq8GzX22bj-234" value="&lt;span style=&quot;font-size: 15px;&quot;&gt;Tag Port 0&lt;/span&gt;" style="rounded=1;whiteSpace=wrap;html=1;arcSize=11;strokeWidth=2;fontFamily=Courier New;fontStyle=1;fillColor=#f9f7ed;strokeColor=#36393d;" parent="1" vertex="1">
          <mxGeometry x="599.4300000000001" y="2600" width="120" height="39.73" as="geometry" />
        </mxCell>
        <mxCell id="QRGypccLNdDq8GzX22bj-237" value="&lt;span style=&quot;font-size: 15px;&quot;&gt;Data Port 0&lt;/span&gt;" style="rounded=1;whiteSpace=wrap;html=1;arcSize=11;strokeWidth=2;fontFamily=Courier New;fontStyle=1;fillColor=#f9f7ed;strokeColor=#36393d;" parent="1" vertex="1">
          <mxGeometry x="598.89" y="2649.34" width="120" height="39.73" as="geometry" />
        </mxCell>
        <mxCell id="QRGypccLNdDq8GzX22bj-238" value="" style="rounded=0;whiteSpace=wrap;html=1;fontFamily=Courier New;fontStyle=1;strokeWidth=2;fillColor=#f5f5f5;fontColor=#333333;strokeColor=#000000;" parent="1" vertex="1">
          <mxGeometry x="899.1299999999999" y="2431.02" width="20.54" height="118.61" as="geometry" />
        </mxCell>
        <mxCell id="QRGypccLNdDq8GzX22bj-239" value="" style="triangle;whiteSpace=wrap;html=1;rotation=-90;fontFamily=Courier New;fontStyle=1;strokeWidth=2;strokeColor=#000000;" parent="1" vertex="1">
          <mxGeometry x="899.3199999999999" y="2529.54" width="20" height="21.09" as="geometry" />
        </mxCell>
        <mxCell id="QRGypccLNdDq8GzX22bj-243" value="" style="rounded=0;whiteSpace=wrap;html=1;fontFamily=Courier New;fontStyle=1;strokeWidth=2;fillColor=#f5f5f5;fontColor=#333333;strokeColor=#000000;" parent="1" vertex="1">
          <mxGeometry x="899.3199999999999" y="2580" width="20.54" height="129.61" as="geometry" />
        </mxCell>
        <mxCell id="QRGypccLNdDq8GzX22bj-244" value="" style="triangle;whiteSpace=wrap;html=1;rotation=-90;fontFamily=Courier New;fontStyle=1;strokeWidth=2;strokeColor=#000000;" parent="1" vertex="1">
          <mxGeometry x="899.51" y="2689.52" width="20" height="21.09" as="geometry" />
        </mxCell>
        <mxCell id="QRGypccLNdDq8GzX22bj-246" value="" style="rounded=0;whiteSpace=wrap;html=1;fontFamily=Courier New;fontStyle=1;strokeWidth=2;fillColor=#f5f5f5;fontColor=#333333;strokeColor=#000000;" parent="1" vertex="1">
          <mxGeometry x="1159.3199999999997" y="2431.02" width="20.54" height="118.61" as="geometry" />
        </mxCell>
        <mxCell id="QRGypccLNdDq8GzX22bj-247" value="" style="triangle;whiteSpace=wrap;html=1;rotation=-90;fontFamily=Courier New;fontStyle=1;strokeWidth=2;strokeColor=#000000;" parent="1" vertex="1">
          <mxGeometry x="1159.5099999999998" y="2529.54" width="20" height="21.09" as="geometry" />
        </mxCell>
        <mxCell id="QRGypccLNdDq8GzX22bj-252" value="" style="rounded=0;whiteSpace=wrap;html=1;fontFamily=Courier New;fontStyle=1;strokeWidth=2;fillColor=#f5f5f5;fontColor=#333333;strokeColor=#000000;" parent="1" vertex="1">
          <mxGeometry x="598.27" y="2740" width="20.54" height="128.61" as="geometry" />
        </mxCell>
        <mxCell id="QRGypccLNdDq8GzX22bj-253" value="" style="triangle;whiteSpace=wrap;html=1;rotation=-90;fontFamily=Courier New;fontStyle=1;strokeWidth=2;strokeColor=#000000;" parent="1" vertex="1">
          <mxGeometry x="598.81" y="2848.07" width="20" height="21.09" as="geometry" />
        </mxCell>
        <mxCell id="QRGypccLNdDq8GzX22bj-254" value="" style="rounded=0;whiteSpace=wrap;html=1;fontFamily=Courier New;fontStyle=1;strokeWidth=2;fillColor=#f5f5f5;fontColor=#333333;strokeColor=#000000;" parent="1" vertex="1">
          <mxGeometry x="898.3499999999999" y="2740" width="20.54" height="128.61" as="geometry" />
        </mxCell>
        <mxCell id="QRGypccLNdDq8GzX22bj-255" value="" style="triangle;whiteSpace=wrap;html=1;rotation=-90;fontFamily=Courier New;fontStyle=1;strokeWidth=2;strokeColor=#000000;" parent="1" vertex="1">
          <mxGeometry x="898.8900000000001" y="2848.07" width="20" height="21.09" as="geometry" />
        </mxCell>
        <mxCell id="QRGypccLNdDq8GzX22bj-258" value="&lt;span style=&quot;font-size: 15px;&quot;&gt;Tag Port 1&lt;/span&gt;" style="rounded=1;whiteSpace=wrap;html=1;arcSize=11;strokeWidth=2;fontFamily=Courier New;fontStyle=1;fillColor=#f9f7ed;strokeColor=#36393d;" parent="1" vertex="1">
          <mxGeometry x="598.81" y="2759" width="120" height="39.73" as="geometry" />
        </mxCell>
        <mxCell id="QRGypccLNdDq8GzX22bj-259" value="&lt;span style=&quot;font-size: 15px;&quot;&gt;Data Port 1&lt;/span&gt;" style="rounded=1;whiteSpace=wrap;html=1;arcSize=11;strokeWidth=2;fontFamily=Courier New;fontStyle=1;fillColor=#f9f7ed;strokeColor=#36393d;" parent="1" vertex="1">
          <mxGeometry x="598.27" y="2808.34" width="120" height="39.73" as="geometry" />
        </mxCell>
        <mxCell id="QRGypccLNdDq8GzX22bj-260" value="&lt;span style=&quot;font-size: 15px;&quot;&gt;Store&lt;/span&gt;&lt;div&gt;&lt;span style=&quot;font-size: 15px;&quot;&gt;Buffer&lt;/span&gt;&lt;/div&gt;" style="rounded=1;whiteSpace=wrap;html=1;arcSize=11;strokeWidth=2;fontFamily=Courier New;fontStyle=1;fillColor=#f9f7ed;strokeColor=#36393d;" parent="1" vertex="1">
          <mxGeometry x="998.99" y="2630" width="79.5" height="40.17" as="geometry" />
        </mxCell>
        <mxCell id="QRGypccLNdDq8GzX22bj-261" value="&lt;span style=&quot;font-size: 15px;&quot;&gt;FSM&lt;/span&gt;" style="rounded=1;whiteSpace=wrap;html=1;arcSize=11;strokeWidth=2;fontFamily=Courier New;fontStyle=1;fillColor=#f9f7ed;strokeColor=#36393d;" parent="1" vertex="1">
          <mxGeometry x="1079.43" y="2690" width="70" height="20.61" as="geometry" />
        </mxCell>
        <mxCell id="QRGypccLNdDq8GzX22bj-262" value="&lt;font&gt;Miss&lt;/font&gt;" style="rounded=1;whiteSpace=wrap;html=1;arcSize=11;strokeWidth=2;fontFamily=Courier New;fontStyle=1;fillColor=#f9f7ed;strokeColor=#36393d;rotation=-90;" parent="1" vertex="1">
          <mxGeometry x="889.5900000000001" y="2618.07" width="40" height="10.27" as="geometry" />
        </mxCell>
        <mxCell id="QRGypccLNdDq8GzX22bj-263" style="edgeStyle=orthogonalEdgeStyle;rounded=0;orthogonalLoop=1;jettySize=auto;html=1;fontFamily=Courier New;fontStyle=1;strokeWidth=2;endSize=3;startSize=3;endArrow=block;endFill=1;" parent="1" edge="1">
          <mxGeometry relative="1" as="geometry">
            <mxPoint x="239.43" y="1851" as="sourcePoint" />
            <mxPoint x="320.02" y="1850.81" as="targetPoint" />
            <Array as="points">
              <mxPoint x="239.43" y="1851" />
            </Array>
          </mxGeometry>
        </mxCell>
        <mxCell id="QRGypccLNdDq8GzX22bj-264" value="&amp;nbsp;InstPkg&amp;nbsp;" style="edgeLabel;html=1;align=center;verticalAlign=middle;resizable=0;points=[];fontFamily=Courier New;fontStyle=1;labelBorderColor=default;fontSize=10;" parent="QRGypccLNdDq8GzX22bj-263" vertex="1" connectable="0">
          <mxGeometry x="-0.369" relative="1" as="geometry">
            <mxPoint x="14" y="-1" as="offset" />
          </mxGeometry>
        </mxCell>
        <mxCell id="QRGypccLNdDq8GzX22bj-265" style="edgeStyle=orthogonalEdgeStyle;rounded=0;orthogonalLoop=1;jettySize=auto;html=1;fontFamily=Courier New;fontStyle=1;strokeWidth=2;endSize=3;startSize=3;endArrow=block;endFill=1;" parent="1" edge="1">
          <mxGeometry relative="1" as="geometry">
            <mxPoint x="238.84" y="2010.21" as="sourcePoint" />
            <mxPoint x="319.43" y="2010.02" as="targetPoint" />
            <Array as="points">
              <mxPoint x="238.84" y="2010.21" />
            </Array>
          </mxGeometry>
        </mxCell>
        <mxCell id="QRGypccLNdDq8GzX22bj-266" value="&amp;nbsp;InstPkg&amp;nbsp;" style="edgeLabel;html=1;align=center;verticalAlign=middle;resizable=0;points=[];fontFamily=Courier New;fontStyle=1;labelBorderColor=default;fontSize=10;" parent="QRGypccLNdDq8GzX22bj-265" vertex="1" connectable="0">
          <mxGeometry x="-0.369" relative="1" as="geometry">
            <mxPoint x="14" y="-1" as="offset" />
          </mxGeometry>
        </mxCell>
        <mxCell id="QRGypccLNdDq8GzX22bj-269" style="edgeStyle=orthogonalEdgeStyle;rounded=0;orthogonalLoop=1;jettySize=auto;html=1;fontFamily=Courier New;fontStyle=1;strokeWidth=2;endSize=3;startSize=3;endArrow=block;endFill=1;" parent="1" edge="1">
          <mxGeometry relative="1" as="geometry">
            <mxPoint x="239.46" y="2170.92" as="sourcePoint" />
            <mxPoint x="320.05" y="2170.73" as="targetPoint" />
            <Array as="points">
              <mxPoint x="239.46" y="2170.92" />
            </Array>
          </mxGeometry>
        </mxCell>
        <mxCell id="QRGypccLNdDq8GzX22bj-270" value="&amp;nbsp;InstPkg&amp;nbsp;" style="edgeLabel;html=1;align=center;verticalAlign=middle;resizable=0;points=[];fontFamily=Courier New;fontStyle=1;labelBorderColor=default;fontSize=10;" parent="QRGypccLNdDq8GzX22bj-269" vertex="1" connectable="0">
          <mxGeometry x="-0.369" relative="1" as="geometry">
            <mxPoint x="14" y="-1" as="offset" />
          </mxGeometry>
        </mxCell>
        <mxCell id="QRGypccLNdDq8GzX22bj-273" style="edgeStyle=orthogonalEdgeStyle;rounded=0;orthogonalLoop=1;jettySize=auto;html=1;fontFamily=Courier New;fontStyle=1;strokeWidth=2;endSize=3;startSize=3;endArrow=block;endFill=1;" parent="1" edge="1">
          <mxGeometry relative="1" as="geometry">
            <mxPoint x="339.14" y="1851.32" as="sourcePoint" />
            <mxPoint x="419.73" y="1851.1299999999999" as="targetPoint" />
            <Array as="points">
              <mxPoint x="339.14" y="1851.32" />
            </Array>
          </mxGeometry>
        </mxCell>
        <mxCell id="QRGypccLNdDq8GzX22bj-274" value="&amp;nbsp;InstPkg&amp;nbsp;" style="edgeLabel;html=1;align=center;verticalAlign=middle;resizable=0;points=[];fontFamily=Courier New;fontStyle=1;labelBorderColor=default;fontSize=10;" parent="QRGypccLNdDq8GzX22bj-273" vertex="1" connectable="0">
          <mxGeometry x="-0.369" relative="1" as="geometry">
            <mxPoint x="14" y="-1" as="offset" />
          </mxGeometry>
        </mxCell>
        <mxCell id="QRGypccLNdDq8GzX22bj-277" style="edgeStyle=orthogonalEdgeStyle;rounded=0;orthogonalLoop=1;jettySize=auto;html=1;fontFamily=Courier New;fontStyle=1;strokeWidth=2;endSize=3;startSize=3;endArrow=block;endFill=1;" parent="1" edge="1">
          <mxGeometry relative="1" as="geometry">
            <mxPoint x="339.14" y="2011.41" as="sourcePoint" />
            <mxPoint x="419.73" y="2011.22" as="targetPoint" />
            <Array as="points">
              <mxPoint x="339.14" y="2011.41" />
            </Array>
          </mxGeometry>
        </mxCell>
        <mxCell id="QRGypccLNdDq8GzX22bj-278" value="&amp;nbsp;InstPkg&amp;nbsp;" style="edgeLabel;html=1;align=center;verticalAlign=middle;resizable=0;points=[];fontFamily=Courier New;fontStyle=1;labelBorderColor=default;fontSize=10;" parent="QRGypccLNdDq8GzX22bj-277" vertex="1" connectable="0">
          <mxGeometry x="-0.369" relative="1" as="geometry">
            <mxPoint x="14" y="-1" as="offset" />
          </mxGeometry>
        </mxCell>
        <mxCell id="QRGypccLNdDq8GzX22bj-279" style="edgeStyle=orthogonalEdgeStyle;rounded=0;orthogonalLoop=1;jettySize=auto;html=1;fontFamily=Courier New;fontStyle=1;strokeWidth=2;endSize=3;startSize=3;endArrow=block;endFill=1;" parent="1" edge="1">
          <mxGeometry relative="1" as="geometry">
            <mxPoint x="339.97" y="2170.97" as="sourcePoint" />
            <mxPoint x="420.56" y="2170.7799999999997" as="targetPoint" />
            <Array as="points">
              <mxPoint x="339.97" y="2170.97" />
            </Array>
          </mxGeometry>
        </mxCell>
        <mxCell id="QRGypccLNdDq8GzX22bj-280" value="&amp;nbsp;InstPkg&amp;nbsp;" style="edgeLabel;html=1;align=center;verticalAlign=middle;resizable=0;points=[];fontFamily=Courier New;fontStyle=1;labelBorderColor=default;fontSize=10;" parent="QRGypccLNdDq8GzX22bj-279" vertex="1" connectable="0">
          <mxGeometry x="-0.369" relative="1" as="geometry">
            <mxPoint x="14" y="-1" as="offset" />
          </mxGeometry>
        </mxCell>
        <mxCell id="QRGypccLNdDq8GzX22bj-281" style="edgeStyle=orthogonalEdgeStyle;rounded=0;orthogonalLoop=1;jettySize=auto;html=1;fontFamily=Courier New;fontStyle=1;strokeWidth=2;endSize=3;startSize=3;endArrow=block;endFill=1;" parent="1" edge="1">
          <mxGeometry relative="1" as="geometry">
            <mxPoint x="239.15" y="2329.69" as="sourcePoint" />
            <mxPoint x="319.74" y="2329.5" as="targetPoint" />
            <Array as="points">
              <mxPoint x="239.15" y="2329.69" />
            </Array>
          </mxGeometry>
        </mxCell>
        <mxCell id="QRGypccLNdDq8GzX22bj-282" value="&amp;nbsp;InstPkg&amp;nbsp;" style="edgeLabel;html=1;align=center;verticalAlign=middle;resizable=0;points=[];fontFamily=Courier New;fontStyle=1;labelBorderColor=default;fontSize=10;" parent="QRGypccLNdDq8GzX22bj-281" vertex="1" connectable="0">
          <mxGeometry x="-0.369" relative="1" as="geometry">
            <mxPoint x="14" y="-1" as="offset" />
          </mxGeometry>
        </mxCell>
        <mxCell id="QRGypccLNdDq8GzX22bj-283" style="edgeStyle=orthogonalEdgeStyle;rounded=0;orthogonalLoop=1;jettySize=auto;html=1;fontFamily=Courier New;fontStyle=1;strokeWidth=2;endSize=3;startSize=3;endArrow=block;endFill=1;" parent="1" edge="1">
          <mxGeometry relative="1" as="geometry">
            <mxPoint x="339.65999999999997" y="2329.74" as="sourcePoint" />
            <mxPoint x="420.25" y="2329.5499999999997" as="targetPoint" />
            <Array as="points">
              <mxPoint x="339.65999999999997" y="2329.74" />
            </Array>
          </mxGeometry>
        </mxCell>
        <mxCell id="QRGypccLNdDq8GzX22bj-284" value="&amp;nbsp;InstPkg&amp;nbsp;" style="edgeLabel;html=1;align=center;verticalAlign=middle;resizable=0;points=[];fontFamily=Courier New;fontStyle=1;labelBorderColor=default;fontSize=10;" parent="QRGypccLNdDq8GzX22bj-283" vertex="1" connectable="0">
          <mxGeometry x="-0.369" relative="1" as="geometry">
            <mxPoint x="14" y="-1" as="offset" />
          </mxGeometry>
        </mxCell>
        <mxCell id="QRGypccLNdDq8GzX22bj-285" style="edgeStyle=orthogonalEdgeStyle;rounded=0;orthogonalLoop=1;jettySize=auto;html=1;fontFamily=Courier New;fontStyle=1;strokeWidth=2;endSize=3;startSize=3;endArrow=block;endFill=1;" parent="1" edge="1">
          <mxGeometry relative="1" as="geometry">
            <mxPoint x="239.15" y="2490.01" as="sourcePoint" />
            <mxPoint x="319.74" y="2489.82" as="targetPoint" />
            <Array as="points">
              <mxPoint x="239.15" y="2490.01" />
            </Array>
          </mxGeometry>
        </mxCell>
        <mxCell id="QRGypccLNdDq8GzX22bj-286" value="&amp;nbsp;InstPkg&amp;nbsp;" style="edgeLabel;html=1;align=center;verticalAlign=middle;resizable=0;points=[];fontFamily=Courier New;fontStyle=1;labelBorderColor=default;fontSize=10;" parent="QRGypccLNdDq8GzX22bj-285" vertex="1" connectable="0">
          <mxGeometry x="-0.369" relative="1" as="geometry">
            <mxPoint x="14" y="-1" as="offset" />
          </mxGeometry>
        </mxCell>
        <mxCell id="QRGypccLNdDq8GzX22bj-287" style="edgeStyle=orthogonalEdgeStyle;rounded=0;orthogonalLoop=1;jettySize=auto;html=1;fontFamily=Courier New;fontStyle=1;strokeWidth=2;endSize=3;startSize=3;endArrow=block;endFill=1;" parent="1" edge="1">
          <mxGeometry relative="1" as="geometry">
            <mxPoint x="339.65999999999997" y="2490.06" as="sourcePoint" />
            <mxPoint x="420.25" y="2489.87" as="targetPoint" />
            <Array as="points">
              <mxPoint x="339.65999999999997" y="2490.06" />
            </Array>
          </mxGeometry>
        </mxCell>
        <mxCell id="QRGypccLNdDq8GzX22bj-288" value="&amp;nbsp;InstPkg&amp;nbsp;" style="edgeLabel;html=1;align=center;verticalAlign=middle;resizable=0;points=[];fontFamily=Courier New;fontStyle=1;labelBorderColor=default;fontSize=10;" parent="QRGypccLNdDq8GzX22bj-287" vertex="1" connectable="0">
          <mxGeometry x="-0.369" relative="1" as="geometry">
            <mxPoint x="14" y="-1" as="offset" />
          </mxGeometry>
        </mxCell>
        <mxCell id="QRGypccLNdDq8GzX22bj-290" style="edgeStyle=orthogonalEdgeStyle;rounded=0;orthogonalLoop=1;jettySize=auto;html=1;fontFamily=Courier New;fontStyle=1;strokeWidth=2;endSize=3;startSize=3;endArrow=block;endFill=1;entryX=0.25;entryY=0;entryDx=0;entryDy=0;" parent="1" target="QRGypccLNdDq8GzX22bj-233" edge="1">
          <mxGeometry relative="1" as="geometry">
            <mxPoint x="379.43" y="2499.8" as="sourcePoint" />
            <mxPoint x="479.43" y="2520" as="targetPoint" />
            <Array as="points">
              <mxPoint x="379.43" y="2590" />
              <mxPoint x="479.43" y="2590" />
              <mxPoint x="479.43" y="2510" />
            </Array>
          </mxGeometry>
        </mxCell>
        <mxCell id="QRGypccLNdDq8GzX22bj-291" value="&lt;font style=&quot;font-size: 10px;&quot;&gt;&amp;nbsp;imm&amp;nbsp;&lt;/font&gt;" style="edgeLabel;html=1;align=center;verticalAlign=middle;resizable=0;points=[];fontFamily=Courier New;fontStyle=1;labelBorderColor=default;" parent="QRGypccLNdDq8GzX22bj-290" vertex="1" connectable="0">
          <mxGeometry x="-0.369" relative="1" as="geometry">
            <mxPoint x="49" y="1" as="offset" />
          </mxGeometry>
        </mxCell>
        <mxCell id="QRGypccLNdDq8GzX22bj-293" style="edgeStyle=orthogonalEdgeStyle;rounded=0;orthogonalLoop=1;jettySize=auto;html=1;fontFamily=Courier New;fontStyle=1;strokeWidth=2;endSize=3;startSize=3;endArrow=block;endFill=1;exitX=0.109;exitY=0.998;exitDx=0;exitDy=0;exitPerimeter=0;entryX=0.75;entryY=0;entryDx=0;entryDy=0;" parent="1" source="QRGypccLNdDq8GzX22bj-183" target="QRGypccLNdDq8GzX22bj-233" edge="1">
          <mxGeometry relative="1" as="geometry">
            <mxPoint x="461.43" y="2470.19" as="sourcePoint" />
            <mxPoint x="509.43" y="2470" as="targetPoint" />
            <Array as="points" />
          </mxGeometry>
        </mxCell>
        <mxCell id="QRGypccLNdDq8GzX22bj-294" value="&lt;font style=&quot;font-size: 10px;&quot;&gt;&amp;nbsp;src1&amp;nbsp;&lt;/font&gt;" style="edgeLabel;html=1;align=center;verticalAlign=middle;resizable=0;points=[];fontFamily=Courier New;fontStyle=1;labelBorderColor=default;" parent="QRGypccLNdDq8GzX22bj-293" vertex="1" connectable="0">
          <mxGeometry x="-0.369" relative="1" as="geometry">
            <mxPoint x="5" y="-1" as="offset" />
          </mxGeometry>
        </mxCell>
        <mxCell id="QRGypccLNdDq8GzX22bj-296" style="edgeStyle=orthogonalEdgeStyle;rounded=0;orthogonalLoop=1;jettySize=auto;html=1;fontFamily=Courier New;fontStyle=1;strokeWidth=2;endSize=3;startSize=3;endArrow=block;endFill=1;exitX=0.145;exitY=1.013;exitDx=0;exitDy=0;exitPerimeter=0;entryX=0;entryY=0.25;entryDx=0;entryDy=0;" parent="1" source="QRGypccLNdDq8GzX22bj-183" target="QRGypccLNdDq8GzX22bj-199" edge="1">
          <mxGeometry relative="1" as="geometry">
            <mxPoint x="460.59000000000003" y="2440" as="sourcePoint" />
            <mxPoint x="558.43" y="2490.3250000000003" as="targetPoint" />
            <Array as="points">
              <mxPoint x="539.4300000000001" y="2441" />
              <mxPoint x="539.4300000000001" y="2460" />
              <mxPoint x="558.4300000000001" y="2460" />
            </Array>
          </mxGeometry>
        </mxCell>
        <mxCell id="QRGypccLNdDq8GzX22bj-297" value="&lt;span style=&quot;font-size: 10px;&quot;&gt;&amp;nbsp;InstPkg&amp;nbsp;&lt;/span&gt;" style="edgeLabel;html=1;align=center;verticalAlign=middle;resizable=0;points=[];fontFamily=Courier New;fontStyle=1;labelBorderColor=default;" parent="QRGypccLNdDq8GzX22bj-296" vertex="1" connectable="0">
          <mxGeometry x="-0.369" relative="1" as="geometry">
            <mxPoint x="49" y="23" as="offset" />
          </mxGeometry>
        </mxCell>
        <mxCell id="QRGypccLNdDq8GzX22bj-299" style="edgeStyle=orthogonalEdgeStyle;rounded=0;orthogonalLoop=1;jettySize=auto;html=1;fontFamily=Courier New;fontStyle=1;strokeWidth=2;endSize=3;startSize=3;endArrow=block;endFill=1;exitX=0.5;exitY=1;exitDx=0;exitDy=0;" parent="1" source="QRGypccLNdDq8GzX22bj-233" edge="1">
          <mxGeometry relative="1" as="geometry">
            <mxPoint x="533.4300000000001" y="2489.17" as="sourcePoint" />
            <mxPoint x="559.4300000000001" y="2470" as="targetPoint" />
            <Array as="points">
              <mxPoint x="559.4300000000001" y="2489" />
              <mxPoint x="559.4300000000001" y="2470" />
            </Array>
          </mxGeometry>
        </mxCell>
        <mxCell id="QRGypccLNdDq8GzX22bj-304" style="edgeStyle=orthogonalEdgeStyle;rounded=0;orthogonalLoop=1;jettySize=auto;html=1;entryX=0;entryY=0.5;entryDx=0;entryDy=0;strokeWidth=2;fontFamily=Courier New;fontStyle=1;endArrow=block;endFill=1;endSize=3;startSize=3;" parent="1" target="QRGypccLNdDq8GzX22bj-237" edge="1">
          <mxGeometry relative="1" as="geometry">
            <mxPoint x="559.4300000000001" y="2490" as="sourcePoint" />
            <mxPoint x="578.7" y="2719.8199999999997" as="targetPoint" />
            <Array as="points">
              <mxPoint x="559.4300000000001" y="2490" />
              <mxPoint x="559.4300000000001" y="2669" />
            </Array>
          </mxGeometry>
        </mxCell>
        <mxCell id="QRGypccLNdDq8GzX22bj-307" value="" style="shape=waypoint;sketch=0;fillStyle=solid;size=6;pointerEvents=1;points=[];fillColor=none;resizable=0;rotatable=0;perimeter=centerPerimeter;snapToPoint=1;strokeWidth=2;fontFamily=Courier New;fontStyle=1" parent="1" vertex="1">
          <mxGeometry x="549.9000000000001" y="2579.9999999999995" width="20" height="20" as="geometry" />
        </mxCell>
        <mxCell id="QRGypccLNdDq8GzX22bj-308" style="edgeStyle=orthogonalEdgeStyle;rounded=0;orthogonalLoop=1;jettySize=auto;html=1;entryX=0;entryY=0.5;entryDx=0;entryDy=0;strokeWidth=2;fontFamily=Courier New;fontStyle=1;endSize=3;startSize=3;endArrow=block;endFill=1;" parent="1" target="QRGypccLNdDq8GzX22bj-234" edge="1">
          <mxGeometry relative="1" as="geometry">
            <mxPoint x="559.4300000000001" y="2490" as="sourcePoint" />
            <mxPoint x="579.7" y="2679.8199999999997" as="targetPoint" />
            <Array as="points">
              <mxPoint x="559.4300000000001" y="2490" />
              <mxPoint x="559.4300000000001" y="2620" />
            </Array>
          </mxGeometry>
        </mxCell>
        <mxCell id="QRGypccLNdDq8GzX22bj-309" value="" style="shape=waypoint;sketch=0;fillStyle=solid;size=6;pointerEvents=1;points=[];fillColor=none;resizable=0;rotatable=0;perimeter=centerPerimeter;snapToPoint=1;strokeWidth=2;fontFamily=Courier New;fontStyle=1" parent="1" vertex="1">
          <mxGeometry x="549.4300000000001" y="2609.8699999999994" width="20" height="20" as="geometry" />
        </mxCell>
        <mxCell id="QRGypccLNdDq8GzX22bj-310" value="" style="shape=waypoint;sketch=0;fillStyle=solid;size=6;pointerEvents=1;points=[];fillColor=none;resizable=0;rotatable=0;perimeter=centerPerimeter;snapToPoint=1;strokeWidth=2;fontFamily=Courier New;fontStyle=1" parent="1" vertex="1">
          <mxGeometry x="549.4300000000001" y="2480.33" width="20" height="20" as="geometry" />
        </mxCell>
        <mxCell id="QRGypccLNdDq8GzX22bj-316" style="edgeStyle=orthogonalEdgeStyle;rounded=0;orthogonalLoop=1;jettySize=auto;html=1;entryX=0.013;entryY=0.077;entryDx=0;entryDy=0;strokeWidth=2;fontFamily=Courier New;fontStyle=1;endSize=3;startSize=3;endArrow=block;endFill=1;entryPerimeter=0;exitX=0.5;exitY=1;exitDx=0;exitDy=0;" parent="1" source="QRGypccLNdDq8GzX22bj-233" target="QRGypccLNdDq8GzX22bj-235" edge="1">
          <mxGeometry relative="1" as="geometry">
            <mxPoint x="539.4300000000001" y="2490" as="sourcePoint" />
            <mxPoint x="599.4300000000001" y="2620" as="targetPoint" />
            <Array as="points">
              <mxPoint x="559.4300000000001" y="2489" />
              <mxPoint x="559.4300000000001" y="2590" />
            </Array>
          </mxGeometry>
        </mxCell>
        <mxCell id="QRGypccLNdDq8GzX22bj-303" value="&amp;nbsp;Addr&amp;nbsp;" style="edgeLabel;html=1;align=center;verticalAlign=middle;resizable=0;points=[];fontFamily=Courier New;labelBorderColor=default;fontStyle=1;rotation=-90;" parent="1" vertex="1" connectable="0">
          <mxGeometry x="559.8999999999999" y="2529.0899999999997" as="geometry" />
        </mxCell>
        <mxCell id="QRGypccLNdDq8GzX22bj-317" value="&lt;font style=&quot;font-size: 17px;&quot;&gt;=&lt;/font&gt;" style="ellipse;whiteSpace=wrap;html=1;aspect=fixed;fontFamily=Courier New;fontStyle=1;strokeWidth=2;fillColor=#f9f7ed;strokeColor=#36393d;" parent="1" vertex="1">
          <mxGeometry x="780.4300000000001" y="2595.73" width="40" height="40" as="geometry" />
        </mxCell>
        <mxCell id="QRGypccLNdDq8GzX22bj-324" style="edgeStyle=orthogonalEdgeStyle;rounded=0;orthogonalLoop=1;jettySize=auto;html=1;fontFamily=Courier New;fontStyle=1;strokeWidth=2;endSize=3;startSize=3;endArrow=block;endFill=1;exitX=0.923;exitY=1.003;exitDx=0;exitDy=0;exitPerimeter=0;" parent="1" edge="1">
          <mxGeometry relative="1" as="geometry">
            <mxPoint x="460.43" y="1850" as="sourcePoint" />
            <mxPoint x="598.4300000000001" y="1850" as="targetPoint" />
            <Array as="points">
              <mxPoint x="529.4300000000001" y="1850" />
              <mxPoint x="529.4300000000001" y="1850" />
            </Array>
          </mxGeometry>
        </mxCell>
        <mxCell id="QRGypccLNdDq8GzX22bj-325" value="&amp;nbsp;InstPkg&amp;nbsp;" style="edgeLabel;html=1;align=center;verticalAlign=middle;resizable=0;points=[];fontFamily=Courier New;fontStyle=1;labelBorderColor=default;fontSize=10;" parent="QRGypccLNdDq8GzX22bj-324" vertex="1" connectable="0">
          <mxGeometry x="-0.369" relative="1" as="geometry">
            <mxPoint x="26" y="-1" as="offset" />
          </mxGeometry>
        </mxCell>
        <mxCell id="QRGypccLNdDq8GzX22bj-326" style="edgeStyle=orthogonalEdgeStyle;rounded=0;orthogonalLoop=1;jettySize=auto;html=1;fontFamily=Courier New;fontStyle=1;strokeWidth=2;endSize=3;startSize=3;endArrow=block;endFill=1;exitX=0.923;exitY=1.003;exitDx=0;exitDy=0;exitPerimeter=0;" parent="1" edge="1">
          <mxGeometry relative="1" as="geometry">
            <mxPoint x="460.43" y="2009.55" as="sourcePoint" />
            <mxPoint x="598.4300000000001" y="2009.55" as="targetPoint" />
            <Array as="points">
              <mxPoint x="529.4300000000001" y="2009.55" />
              <mxPoint x="529.4300000000001" y="2009.55" />
            </Array>
          </mxGeometry>
        </mxCell>
        <mxCell id="QRGypccLNdDq8GzX22bj-327" value="&amp;nbsp;InstPkg&amp;nbsp;" style="edgeLabel;html=1;align=center;verticalAlign=middle;resizable=0;points=[];fontFamily=Courier New;fontStyle=1;labelBorderColor=default;fontSize=10;" parent="QRGypccLNdDq8GzX22bj-326" vertex="1" connectable="0">
          <mxGeometry x="-0.369" relative="1" as="geometry">
            <mxPoint x="26" y="-1" as="offset" />
          </mxGeometry>
        </mxCell>
        <mxCell id="QRGypccLNdDq8GzX22bj-328" style="edgeStyle=orthogonalEdgeStyle;rounded=0;orthogonalLoop=1;jettySize=auto;html=1;fontFamily=Courier New;fontStyle=1;strokeWidth=2;endSize=3;startSize=3;endArrow=block;endFill=1;exitX=0.923;exitY=1.003;exitDx=0;exitDy=0;exitPerimeter=0;" parent="1" edge="1">
          <mxGeometry relative="1" as="geometry">
            <mxPoint x="460.27" y="2169.58" as="sourcePoint" />
            <mxPoint x="598.27" y="2169.58" as="targetPoint" />
            <Array as="points">
              <mxPoint x="529.27" y="2169.58" />
              <mxPoint x="529.27" y="2169.58" />
            </Array>
          </mxGeometry>
        </mxCell>
        <mxCell id="QRGypccLNdDq8GzX22bj-329" value="&amp;nbsp;InstPkg&amp;nbsp;" style="edgeLabel;html=1;align=center;verticalAlign=middle;resizable=0;points=[];fontFamily=Courier New;fontStyle=1;labelBorderColor=default;fontSize=10;" parent="QRGypccLNdDq8GzX22bj-328" vertex="1" connectable="0">
          <mxGeometry x="-0.369" relative="1" as="geometry">
            <mxPoint x="26" y="-1" as="offset" />
          </mxGeometry>
        </mxCell>
        <mxCell id="QRGypccLNdDq8GzX22bj-330" style="edgeStyle=orthogonalEdgeStyle;rounded=0;orthogonalLoop=1;jettySize=auto;html=1;fontFamily=Courier New;fontStyle=1;strokeWidth=2;endSize=3;startSize=3;endArrow=block;endFill=1;exitX=0.923;exitY=1.003;exitDx=0;exitDy=0;exitPerimeter=0;" parent="1" edge="1">
          <mxGeometry relative="1" as="geometry">
            <mxPoint x="460.27" y="2330.85" as="sourcePoint" />
            <mxPoint x="598.27" y="2330.85" as="targetPoint" />
            <Array as="points">
              <mxPoint x="529.27" y="2330.85" />
              <mxPoint x="529.27" y="2330.85" />
            </Array>
          </mxGeometry>
        </mxCell>
        <mxCell id="QRGypccLNdDq8GzX22bj-331" value="&amp;nbsp;InstPkg&amp;nbsp;" style="edgeLabel;html=1;align=center;verticalAlign=middle;resizable=0;points=[];fontFamily=Courier New;fontStyle=1;labelBorderColor=default;fontSize=10;" parent="QRGypccLNdDq8GzX22bj-330" vertex="1" connectable="0">
          <mxGeometry x="-0.369" relative="1" as="geometry">
            <mxPoint x="26" y="-1" as="offset" />
          </mxGeometry>
        </mxCell>
        <mxCell id="QRGypccLNdDq8GzX22bj-333" style="edgeStyle=orthogonalEdgeStyle;rounded=0;orthogonalLoop=1;jettySize=auto;html=1;fontFamily=Courier New;fontStyle=1;strokeWidth=2;endSize=3;startSize=3;endArrow=block;endFill=1;exitX=1;exitY=0.5;exitDx=0;exitDy=0;entryX=0;entryY=0.5;entryDx=0;entryDy=0;" parent="1" source="QRGypccLNdDq8GzX22bj-199" target="QRGypccLNdDq8GzX22bj-238" edge="1">
          <mxGeometry relative="1" as="geometry">
            <mxPoint x="630.4300000000001" y="2478.7599999999998" as="sourcePoint" />
            <mxPoint x="768.4300000000001" y="2478.7599999999998" as="targetPoint" />
            <Array as="points">
              <mxPoint x="739.4300000000001" y="2490" />
              <mxPoint x="739.4300000000001" y="2490" />
            </Array>
          </mxGeometry>
        </mxCell>
        <mxCell id="QRGypccLNdDq8GzX22bj-334" value="&amp;nbsp;InstPkg&amp;nbsp;" style="edgeLabel;html=1;align=center;verticalAlign=middle;resizable=0;points=[];fontFamily=Courier New;fontStyle=1;labelBorderColor=default;fontSize=10;" parent="QRGypccLNdDq8GzX22bj-333" vertex="1" connectable="0">
          <mxGeometry x="-0.369" relative="1" as="geometry">
            <mxPoint x="44" y="-1" as="offset" />
          </mxGeometry>
        </mxCell>
        <mxCell id="QRGypccLNdDq8GzX22bj-335" style="edgeStyle=orthogonalEdgeStyle;rounded=0;orthogonalLoop=1;jettySize=auto;html=1;fontFamily=Courier New;fontStyle=1;strokeWidth=2;endSize=3;startSize=3;endArrow=block;endFill=1;entryX=0.5;entryY=0;entryDx=0;entryDy=0;" parent="1" target="QRGypccLNdDq8GzX22bj-317" edge="1">
          <mxGeometry relative="1" as="geometry">
            <mxPoint x="739.4300000000001" y="2500" as="sourcePoint" />
            <mxPoint x="875.4300000000001" y="2560" as="targetPoint" />
            <Array as="points">
              <mxPoint x="739.4300000000001" y="2570" />
              <mxPoint x="800.4300000000001" y="2570" />
            </Array>
          </mxGeometry>
        </mxCell>
        <mxCell id="QRGypccLNdDq8GzX22bj-336" value="&amp;nbsp;src1&amp;nbsp;" style="edgeLabel;html=1;align=center;verticalAlign=middle;resizable=0;points=[];fontFamily=Courier New;fontStyle=1;labelBorderColor=default;fontSize=10;rotation=-90;" parent="QRGypccLNdDq8GzX22bj-335" vertex="1" connectable="0">
          <mxGeometry x="-0.369" relative="1" as="geometry">
            <mxPoint x="-1" y="-14" as="offset" />
          </mxGeometry>
        </mxCell>
        <mxCell id="QRGypccLNdDq8GzX22bj-346" style="edgeStyle=orthogonalEdgeStyle;rounded=0;orthogonalLoop=1;jettySize=auto;html=1;fontFamily=Courier New;fontStyle=1;strokeWidth=2;endSize=3;startSize=3;endArrow=block;endFill=1;entryX=0;entryY=1;entryDx=0;entryDy=0;exitX=1;exitY=0.75;exitDx=0;exitDy=0;" parent="1" target="QRGypccLNdDq8GzX22bj-317" edge="1">
          <mxGeometry relative="1" as="geometry">
            <mxPoint x="719.4300000000001" y="2630" as="sourcePoint" />
            <mxPoint x="786.4300000000001" y="2630" as="targetPoint" />
            <Array as="points">
              <mxPoint x="769.4300000000001" y="2630" />
            </Array>
          </mxGeometry>
        </mxCell>
        <mxCell id="QRGypccLNdDq8GzX22bj-347" value="&amp;nbsp;RTag&amp;nbsp;" style="edgeLabel;html=1;align=center;verticalAlign=middle;resizable=0;points=[];fontFamily=Courier New;fontStyle=1;labelBorderColor=default;fontSize=10;rotation=0;" parent="QRGypccLNdDq8GzX22bj-346" vertex="1" connectable="0">
          <mxGeometry x="-0.369" relative="1" as="geometry">
            <mxPoint x="5" y="-1" as="offset" />
          </mxGeometry>
        </mxCell>
        <mxCell id="QRGypccLNdDq8GzX22bj-348" style="edgeStyle=orthogonalEdgeStyle;rounded=0;orthogonalLoop=1;jettySize=auto;html=1;fontFamily=Courier New;fontStyle=1;strokeWidth=2;endSize=3;startSize=3;endArrow=block;endFill=1;exitX=1;exitY=0.75;exitDx=0;exitDy=0;entryX=0.686;entryY=-0.015;entryDx=0;entryDy=0;entryPerimeter=0;" parent="1" target="QRGypccLNdDq8GzX22bj-262" edge="1">
          <mxGeometry relative="1" as="geometry">
            <mxPoint x="819.4300000000001" y="2615.67" as="sourcePoint" />
            <mxPoint x="829.4300000000001" y="2650" as="targetPoint" />
            <Array as="points">
              <mxPoint x="839.4300000000001" y="2616" />
              <mxPoint x="839.4300000000001" y="2616" />
            </Array>
          </mxGeometry>
        </mxCell>
        <mxCell id="QRGypccLNdDq8GzX22bj-349" value="&amp;nbsp;Hit&amp;nbsp;" style="edgeLabel;html=1;align=center;verticalAlign=middle;resizable=0;points=[];fontFamily=Courier New;fontStyle=1;labelBorderColor=default;fontSize=10;rotation=0;" parent="QRGypccLNdDq8GzX22bj-348" vertex="1" connectable="0">
          <mxGeometry x="-0.369" relative="1" as="geometry">
            <mxPoint x="6" as="offset" />
          </mxGeometry>
        </mxCell>
        <mxCell id="QRGypccLNdDq8GzX22bj-354" style="edgeStyle=orthogonalEdgeStyle;rounded=0;orthogonalLoop=1;jettySize=auto;html=1;fontFamily=Courier New;fontStyle=1;strokeWidth=2;endSize=3;startSize=3;endArrow=block;endFill=1;exitX=1;exitY=0.5;exitDx=0;exitDy=0;" parent="1" edge="1">
          <mxGeometry relative="1" as="geometry">
            <mxPoint x="919.8600000000001" y="2489.77" as="sourcePoint" />
            <mxPoint x="1159.13" y="2490" as="targetPoint" />
            <Array as="points">
              <mxPoint x="1040.8600000000001" y="2489.77" />
              <mxPoint x="1040.8600000000001" y="2489.77" />
            </Array>
          </mxGeometry>
        </mxCell>
        <mxCell id="QRGypccLNdDq8GzX22bj-355" value="&amp;nbsp;InstPkg&amp;nbsp;" style="edgeLabel;html=1;align=center;verticalAlign=middle;resizable=0;points=[];fontFamily=Courier New;fontStyle=1;labelBorderColor=default;fontSize=10;" parent="QRGypccLNdDq8GzX22bj-354" vertex="1" connectable="0">
          <mxGeometry x="-0.369" relative="1" as="geometry">
            <mxPoint x="44" y="-1" as="offset" />
          </mxGeometry>
        </mxCell>
        <mxCell id="QRGypccLNdDq8GzX22bj-357" value="" style="rounded=0;whiteSpace=wrap;html=1;fontFamily=Courier New;fontStyle=1;strokeWidth=2;fillColor=#f5f5f5;fontColor=#333333;strokeColor=#000000;" parent="1" vertex="1">
          <mxGeometry x="1159.1299999999997" y="2591" width="20.54" height="118.61" as="geometry" />
        </mxCell>
        <mxCell id="QRGypccLNdDq8GzX22bj-358" value="" style="triangle;whiteSpace=wrap;html=1;rotation=-90;fontFamily=Courier New;fontStyle=1;strokeWidth=2;strokeColor=#000000;" parent="1" vertex="1">
          <mxGeometry x="1159.3199999999997" y="2689.52" width="20" height="21.09" as="geometry" />
        </mxCell>
        <mxCell id="QRGypccLNdDq8GzX22bj-361" style="edgeStyle=orthogonalEdgeStyle;rounded=0;orthogonalLoop=1;jettySize=auto;html=1;fontFamily=Courier New;fontStyle=1;strokeWidth=2;endSize=3;startSize=3;endArrow=block;endFill=1;" parent="1" edge="1">
          <mxGeometry relative="1" as="geometry">
            <mxPoint x="920.1300000000001" y="2624" as="sourcePoint" />
            <mxPoint x="1159.13" y="2624" as="targetPoint" />
            <Array as="points">
              <mxPoint x="920.1300000000001" y="2624" />
              <mxPoint x="1159.13" y="2624" />
            </Array>
          </mxGeometry>
        </mxCell>
        <mxCell id="QRGypccLNdDq8GzX22bj-362" value="&amp;nbsp;RData&amp;nbsp;" style="edgeLabel;html=1;align=center;verticalAlign=middle;resizable=0;points=[];fontFamily=Courier New;fontStyle=1;labelBorderColor=default;fontSize=10;rotation=0;" parent="QRGypccLNdDq8GzX22bj-361" vertex="1" connectable="0">
          <mxGeometry x="-0.369" relative="1" as="geometry">
            <mxPoint x="124" y="-2" as="offset" />
          </mxGeometry>
        </mxCell>
        <mxCell id="QRGypccLNdDq8GzX22bj-363" style="edgeStyle=orthogonalEdgeStyle;rounded=0;orthogonalLoop=1;jettySize=auto;html=1;fontFamily=Courier New;fontStyle=1;strokeWidth=2;endSize=3;startSize=3;endArrow=block;endFill=1;exitX=1;exitY=0.5;exitDx=0;exitDy=0;entryX=0;entryY=0.5;entryDx=0;entryDy=0;" parent="1" target="QRGypccLNdDq8GzX22bj-357" edge="1">
          <mxGeometry relative="1" as="geometry">
            <mxPoint x="1078.49" y="2650.13" as="sourcePoint" />
            <mxPoint x="1119.13" y="2630" as="targetPoint" />
            <Array as="points">
              <mxPoint x="1099.13" y="2650" />
            </Array>
          </mxGeometry>
        </mxCell>
        <mxCell id="QRGypccLNdDq8GzX22bj-364" value="&amp;nbsp;SB-Hit&amp;nbsp;" style="edgeLabel;html=1;align=center;verticalAlign=middle;resizable=0;points=[];fontFamily=Courier New;fontStyle=1;labelBorderColor=default;fontSize=10;rotation=0;" parent="QRGypccLNdDq8GzX22bj-363" vertex="1" connectable="0">
          <mxGeometry x="-0.369" relative="1" as="geometry">
            <mxPoint x="15" as="offset" />
          </mxGeometry>
        </mxCell>
        <mxCell id="QRGypccLNdDq8GzX22bj-366" style="edgeStyle=orthogonalEdgeStyle;rounded=0;orthogonalLoop=1;jettySize=auto;html=1;fontFamily=Courier New;fontStyle=1;strokeWidth=2;endSize=3;startSize=3;endArrow=block;endFill=1;" parent="1" edge="1">
          <mxGeometry relative="1" as="geometry">
            <mxPoint x="1179.0900000000001" y="2622.89" as="sourcePoint" />
            <mxPoint x="1250" y="2420" as="targetPoint" />
            <Array as="points">
              <mxPoint x="1299.13" y="2623" />
            </Array>
          </mxGeometry>
        </mxCell>
        <mxCell id="QRGypccLNdDq8GzX22bj-367" value="&amp;nbsp;RData&amp;nbsp;" style="edgeLabel;html=1;align=center;verticalAlign=middle;resizable=0;points=[];fontFamily=Courier New;fontStyle=1;labelBorderColor=default;fontSize=10;rotation=0;" parent="QRGypccLNdDq8GzX22bj-366" vertex="1" connectable="0">
          <mxGeometry x="-0.369" relative="1" as="geometry">
            <mxPoint x="-50" y="1" as="offset" />
          </mxGeometry>
        </mxCell>
        <mxCell id="QRGypccLNdDq8GzX22bj-368" style="edgeStyle=orthogonalEdgeStyle;rounded=0;orthogonalLoop=1;jettySize=auto;html=1;fontFamily=Courier New;fontStyle=1;strokeWidth=2;endSize=3;startSize=3;endArrow=block;endFill=1;exitX=1;exitY=0.5;exitDx=0;exitDy=0;" parent="1" edge="1">
          <mxGeometry relative="1" as="geometry">
            <mxPoint x="1179.3200000000002" y="2650.17" as="sourcePoint" />
            <mxPoint x="1249.13" y="2630" as="targetPoint" />
            <Array as="points">
              <mxPoint x="1249.13" y="2650" />
            </Array>
          </mxGeometry>
        </mxCell>
        <mxCell id="QRGypccLNdDq8GzX22bj-369" value="&amp;nbsp;SB-Hit&amp;nbsp;" style="edgeLabel;html=1;align=center;verticalAlign=middle;resizable=0;points=[];fontFamily=Courier New;fontStyle=1;labelBorderColor=default;fontSize=10;rotation=0;" parent="QRGypccLNdDq8GzX22bj-368" vertex="1" connectable="0">
          <mxGeometry x="-0.369" relative="1" as="geometry">
            <mxPoint x="12" as="offset" />
          </mxGeometry>
        </mxCell>
        <mxCell id="QRGypccLNdDq8GzX22bj-372" style="edgeStyle=orthogonalEdgeStyle;rounded=0;orthogonalLoop=1;jettySize=auto;html=1;fontFamily=Courier New;fontStyle=1;strokeWidth=2;endSize=3;startSize=3;endArrow=block;endFill=1;exitX=1;exitY=0.5;exitDx=0;exitDy=0;entryX=0;entryY=0.5;entryDx=0;entryDy=0;" parent="1" source="QRGypccLNdDq8GzX22bj-149" target="QRGypccLNdDq8GzX22bj-186" edge="1">
          <mxGeometry relative="1" as="geometry">
            <mxPoint x="629.1600000000001" y="1893.14" as="sourcePoint" />
            <mxPoint x="709.7" y="1864.14" as="targetPoint" />
            <Array as="points">
              <mxPoint x="679.4300000000001" y="1850" />
              <mxPoint x="679.4300000000001" y="1879" />
              <mxPoint x="699.4300000000001" y="1879" />
            </Array>
          </mxGeometry>
        </mxCell>
        <mxCell id="QRGypccLNdDq8GzX22bj-370" style="edgeStyle=orthogonalEdgeStyle;rounded=0;orthogonalLoop=1;jettySize=auto;html=1;fontFamily=Courier New;fontStyle=1;strokeWidth=2;endSize=3;startSize=3;endArrow=block;endFill=1;exitX=0.923;exitY=1.003;exitDx=0;exitDy=0;exitPerimeter=0;entryX=0;entryY=0.5;entryDx=0;entryDy=0;" parent="1" target="QRGypccLNdDq8GzX22bj-185" edge="1">
          <mxGeometry relative="1" as="geometry">
            <mxPoint x="618.8900000000001" y="1850" as="sourcePoint" />
            <mxPoint x="756.8900000000001" y="1850" as="targetPoint" />
            <Array as="points">
              <mxPoint x="679.4300000000001" y="1850" />
              <mxPoint x="679.4300000000001" y="1821" />
            </Array>
          </mxGeometry>
        </mxCell>
        <mxCell id="QRGypccLNdDq8GzX22bj-371" value="&amp;nbsp;InstPkg&amp;nbsp;" style="edgeLabel;html=1;align=center;verticalAlign=middle;resizable=0;points=[];fontFamily=Courier New;fontStyle=1;labelBorderColor=default;fontSize=10;" parent="QRGypccLNdDq8GzX22bj-370" vertex="1" connectable="0">
          <mxGeometry x="-0.369" relative="1" as="geometry">
            <mxPoint x="-5" as="offset" />
          </mxGeometry>
        </mxCell>
        <mxCell id="QRGypccLNdDq8GzX22bj-374" style="edgeStyle=orthogonalEdgeStyle;rounded=0;orthogonalLoop=1;jettySize=auto;html=1;fontFamily=Courier New;fontStyle=1;strokeWidth=2;endSize=3;startSize=3;endArrow=block;endFill=1;exitX=1;exitY=0.5;exitDx=0;exitDy=0;entryX=0;entryY=0.5;entryDx=0;entryDy=0;" parent="1" edge="1">
          <mxGeometry relative="1" as="geometry">
            <mxPoint x="618.81" y="2009.73" as="sourcePoint" />
            <mxPoint x="699.81" y="2038.73" as="targetPoint" />
            <Array as="points">
              <mxPoint x="679.81" y="2009.73" />
              <mxPoint x="679.81" y="2038.73" />
              <mxPoint x="699.81" y="2038.73" />
            </Array>
          </mxGeometry>
        </mxCell>
        <mxCell id="QRGypccLNdDq8GzX22bj-375" style="edgeStyle=orthogonalEdgeStyle;rounded=0;orthogonalLoop=1;jettySize=auto;html=1;fontFamily=Courier New;fontStyle=1;strokeWidth=2;endSize=3;startSize=3;endArrow=block;endFill=1;exitX=0.923;exitY=1.003;exitDx=0;exitDy=0;exitPerimeter=0;entryX=0;entryY=0.5;entryDx=0;entryDy=0;" parent="1" edge="1">
          <mxGeometry relative="1" as="geometry">
            <mxPoint x="619.27" y="2009.73" as="sourcePoint" />
            <mxPoint x="699.81" y="1980.73" as="targetPoint" />
            <Array as="points">
              <mxPoint x="679.81" y="2009.73" />
              <mxPoint x="679.81" y="1980.73" />
            </Array>
          </mxGeometry>
        </mxCell>
        <mxCell id="QRGypccLNdDq8GzX22bj-376" value="&amp;nbsp;InstPkg&amp;nbsp;" style="edgeLabel;html=1;align=center;verticalAlign=middle;resizable=0;points=[];fontFamily=Courier New;fontStyle=1;labelBorderColor=default;fontSize=10;" parent="QRGypccLNdDq8GzX22bj-375" vertex="1" connectable="0">
          <mxGeometry x="-0.369" relative="1" as="geometry">
            <mxPoint x="-5" as="offset" />
          </mxGeometry>
        </mxCell>
        <mxCell id="QRGypccLNdDq8GzX22bj-377" style="edgeStyle=orthogonalEdgeStyle;rounded=0;orthogonalLoop=1;jettySize=auto;html=1;fontFamily=Courier New;fontStyle=1;strokeWidth=2;endSize=3;startSize=3;endArrow=block;endFill=1;exitX=1;exitY=0.5;exitDx=0;exitDy=0;entryX=0;entryY=0.5;entryDx=0;entryDy=0;" parent="1" edge="1">
          <mxGeometry relative="1" as="geometry">
            <mxPoint x="619.24" y="2170.04" as="sourcePoint" />
            <mxPoint x="700.24" y="2199.04" as="targetPoint" />
            <Array as="points">
              <mxPoint x="680.24" y="2170.04" />
              <mxPoint x="680.24" y="2199.04" />
              <mxPoint x="700.24" y="2199.04" />
            </Array>
          </mxGeometry>
        </mxCell>
        <mxCell id="QRGypccLNdDq8GzX22bj-378" style="edgeStyle=orthogonalEdgeStyle;rounded=0;orthogonalLoop=1;jettySize=auto;html=1;fontFamily=Courier New;fontStyle=1;strokeWidth=2;endSize=3;startSize=3;endArrow=block;endFill=1;exitX=0.923;exitY=1.003;exitDx=0;exitDy=0;exitPerimeter=0;entryX=0;entryY=0.5;entryDx=0;entryDy=0;" parent="1" edge="1">
          <mxGeometry relative="1" as="geometry">
            <mxPoint x="619.7" y="2170.04" as="sourcePoint" />
            <mxPoint x="700.24" y="2141.04" as="targetPoint" />
            <Array as="points">
              <mxPoint x="680.24" y="2170.04" />
              <mxPoint x="680.24" y="2141.04" />
            </Array>
          </mxGeometry>
        </mxCell>
        <mxCell id="QRGypccLNdDq8GzX22bj-379" value="&amp;nbsp;InstPkg&amp;nbsp;" style="edgeLabel;html=1;align=center;verticalAlign=middle;resizable=0;points=[];fontFamily=Courier New;fontStyle=1;labelBorderColor=default;fontSize=10;" parent="QRGypccLNdDq8GzX22bj-378" vertex="1" connectable="0">
          <mxGeometry x="-0.369" relative="1" as="geometry">
            <mxPoint x="-5" as="offset" />
          </mxGeometry>
        </mxCell>
        <mxCell id="QRGypccLNdDq8GzX22bj-380" style="edgeStyle=orthogonalEdgeStyle;rounded=0;orthogonalLoop=1;jettySize=auto;html=1;fontFamily=Courier New;fontStyle=1;strokeWidth=2;endSize=3;startSize=3;endArrow=block;endFill=1;exitX=1;exitY=0.5;exitDx=0;exitDy=0;entryX=0;entryY=0.5;entryDx=0;entryDy=0;" parent="1" source="QRGypccLNdDq8GzX22bj-185" target="QRGypccLNdDq8GzX22bj-203" edge="1">
          <mxGeometry relative="1" as="geometry">
            <mxPoint x="839.7" y="1864.79" as="sourcePoint" />
            <mxPoint x="859.4300000000001" y="1836" as="targetPoint" />
            <Array as="points">
              <mxPoint x="829.4300000000001" y="1821" />
              <mxPoint x="829.4300000000001" y="1850" />
            </Array>
          </mxGeometry>
        </mxCell>
        <mxCell id="QRGypccLNdDq8GzX22bj-381" value="&amp;nbsp;InstPkg&amp;nbsp;" style="edgeLabel;html=1;align=center;verticalAlign=middle;resizable=0;points=[];fontFamily=Courier New;fontStyle=1;labelBorderColor=default;fontSize=10;" parent="QRGypccLNdDq8GzX22bj-380" vertex="1" connectable="0">
          <mxGeometry x="-0.369" relative="1" as="geometry">
            <mxPoint x="30" y="5" as="offset" />
          </mxGeometry>
        </mxCell>
        <mxCell id="QRGypccLNdDq8GzX22bj-393" style="edgeStyle=orthogonalEdgeStyle;rounded=0;orthogonalLoop=1;jettySize=auto;html=1;fontFamily=Courier New;fontStyle=1;strokeWidth=2;endSize=3;startSize=3;endArrow=block;endFill=1;exitX=0.999;exitY=0.527;exitDx=0;exitDy=0;exitPerimeter=0;entryX=0;entryY=0.5;entryDx=0;entryDy=0;" parent="1" edge="1">
          <mxGeometry relative="1" as="geometry">
            <mxPoint x="819.4300000000001" y="2039.82" as="sourcePoint" />
            <mxPoint x="898.4300000000001" y="2009.82" as="targetPoint" />
            <Array as="points">
              <mxPoint x="829.4300000000001" y="2039.82" />
              <mxPoint x="829.4300000000001" y="2009.82" />
            </Array>
          </mxGeometry>
        </mxCell>
        <mxCell id="QRGypccLNdDq8GzX22bj-394" style="edgeStyle=orthogonalEdgeStyle;rounded=0;orthogonalLoop=1;jettySize=auto;html=1;fontFamily=Courier New;fontStyle=1;strokeWidth=2;endSize=3;startSize=3;endArrow=block;endFill=1;exitX=1;exitY=0.5;exitDx=0;exitDy=0;entryX=0;entryY=0.5;entryDx=0;entryDy=0;" parent="1" edge="1">
          <mxGeometry relative="1" as="geometry">
            <mxPoint x="819.4300000000001" y="1980.82" as="sourcePoint" />
            <mxPoint x="898.4300000000001" y="2009.82" as="targetPoint" />
            <Array as="points">
              <mxPoint x="829.4300000000001" y="1980.82" />
              <mxPoint x="829.4300000000001" y="2009.82" />
            </Array>
          </mxGeometry>
        </mxCell>
        <mxCell id="QRGypccLNdDq8GzX22bj-395" value="&amp;nbsp;InstPkg&amp;nbsp;" style="edgeLabel;html=1;align=center;verticalAlign=middle;resizable=0;points=[];fontFamily=Courier New;fontStyle=1;labelBorderColor=default;fontSize=10;" parent="QRGypccLNdDq8GzX22bj-394" vertex="1" connectable="0">
          <mxGeometry x="-0.369" relative="1" as="geometry">
            <mxPoint x="30" y="5" as="offset" />
          </mxGeometry>
        </mxCell>
        <mxCell id="QRGypccLNdDq8GzX22bj-396" style="edgeStyle=orthogonalEdgeStyle;rounded=0;orthogonalLoop=1;jettySize=auto;html=1;fontFamily=Courier New;fontStyle=1;strokeWidth=2;endSize=3;startSize=3;endArrow=block;endFill=1;exitX=0.999;exitY=0.527;exitDx=0;exitDy=0;exitPerimeter=0;entryX=0;entryY=0.5;entryDx=0;entryDy=0;" parent="1" edge="1">
          <mxGeometry relative="1" as="geometry">
            <mxPoint x="820.4300000000001" y="2200.5499999999997" as="sourcePoint" />
            <mxPoint x="899.4300000000001" y="2170.5499999999997" as="targetPoint" />
            <Array as="points">
              <mxPoint x="830.4300000000001" y="2200.5499999999997" />
              <mxPoint x="830.4300000000001" y="2170.5499999999997" />
            </Array>
          </mxGeometry>
        </mxCell>
        <mxCell id="QRGypccLNdDq8GzX22bj-397" style="edgeStyle=orthogonalEdgeStyle;rounded=0;orthogonalLoop=1;jettySize=auto;html=1;fontFamily=Courier New;fontStyle=1;strokeWidth=2;endSize=3;startSize=3;endArrow=block;endFill=1;exitX=1;exitY=0.5;exitDx=0;exitDy=0;entryX=0;entryY=0.5;entryDx=0;entryDy=0;" parent="1" edge="1">
          <mxGeometry relative="1" as="geometry">
            <mxPoint x="820.4300000000001" y="2141.55" as="sourcePoint" />
            <mxPoint x="899.4300000000001" y="2170.5499999999997" as="targetPoint" />
            <Array as="points">
              <mxPoint x="830.4300000000001" y="2141.55" />
              <mxPoint x="830.4300000000001" y="2170.5499999999997" />
            </Array>
          </mxGeometry>
        </mxCell>
        <mxCell id="QRGypccLNdDq8GzX22bj-398" value="&amp;nbsp;InstPkg&amp;nbsp;" style="edgeLabel;html=1;align=center;verticalAlign=middle;resizable=0;points=[];fontFamily=Courier New;fontStyle=1;labelBorderColor=default;fontSize=10;" parent="QRGypccLNdDq8GzX22bj-397" vertex="1" connectable="0">
          <mxGeometry x="-0.369" relative="1" as="geometry">
            <mxPoint x="30" y="5" as="offset" />
          </mxGeometry>
        </mxCell>
        <mxCell id="QRGypccLNdDq8GzX22bj-402" style="edgeStyle=orthogonalEdgeStyle;rounded=0;orthogonalLoop=1;jettySize=auto;html=1;fontFamily=Courier New;fontStyle=1;strokeWidth=2;endSize=3;startSize=3;endArrow=block;endFill=1;exitX=1;exitY=0.5;exitDx=0;exitDy=0;entryX=0;entryY=0.5;entryDx=0;entryDy=0;" parent="1" source="QRGypccLNdDq8GzX22bj-197" edge="1">
          <mxGeometry relative="1" as="geometry">
            <mxPoint x="618.9300000000001" y="2329.32" as="sourcePoint" />
            <mxPoint x="699.9300000000001" y="2358.32" as="targetPoint" />
            <Array as="points">
              <mxPoint x="680.4300000000001" y="2329" />
              <mxPoint x="680.4300000000001" y="2358" />
            </Array>
          </mxGeometry>
        </mxCell>
        <mxCell id="QRGypccLNdDq8GzX22bj-403" style="edgeStyle=orthogonalEdgeStyle;rounded=0;orthogonalLoop=1;jettySize=auto;html=1;fontFamily=Courier New;fontStyle=1;strokeWidth=2;endSize=3;startSize=3;endArrow=block;endFill=1;exitX=1;exitY=0.5;exitDx=0;exitDy=0;entryX=0;entryY=0.5;entryDx=0;entryDy=0;" parent="1" source="QRGypccLNdDq8GzX22bj-197" edge="1">
          <mxGeometry relative="1" as="geometry">
            <mxPoint x="619.3900000000001" y="2329.32" as="sourcePoint" />
            <mxPoint x="699.9300000000001" y="2300.32" as="targetPoint" />
            <Array as="points">
              <mxPoint x="680.4300000000001" y="2329" />
              <mxPoint x="680.4300000000001" y="2300" />
            </Array>
          </mxGeometry>
        </mxCell>
        <mxCell id="QRGypccLNdDq8GzX22bj-404" value="&amp;nbsp;InstPkg&amp;nbsp;" style="edgeLabel;html=1;align=center;verticalAlign=middle;resizable=0;points=[];fontFamily=Courier New;fontStyle=1;labelBorderColor=default;fontSize=10;" parent="QRGypccLNdDq8GzX22bj-403" vertex="1" connectable="0">
          <mxGeometry x="-0.369" relative="1" as="geometry">
            <mxPoint x="-5" as="offset" />
          </mxGeometry>
        </mxCell>
        <mxCell id="QRGypccLNdDq8GzX22bj-405" style="edgeStyle=orthogonalEdgeStyle;rounded=0;orthogonalLoop=1;jettySize=auto;html=1;fontFamily=Courier New;fontStyle=1;strokeWidth=2;endSize=3;startSize=3;endArrow=block;endFill=1;exitX=1;exitY=0.75;exitDx=0;exitDy=0;" parent="1" edge="1">
          <mxGeometry relative="1" as="geometry">
            <mxPoint x="819.8599999999999" y="2359.9374999999995" as="sourcePoint" />
            <mxPoint x="899.4300000000001" y="2360" as="targetPoint" />
            <Array as="points">
              <mxPoint x="859.4300000000001" y="2360" />
              <mxPoint x="899.4300000000001" y="2360" />
            </Array>
          </mxGeometry>
        </mxCell>
        <mxCell id="QRGypccLNdDq8GzX22bj-406" style="edgeStyle=orthogonalEdgeStyle;rounded=0;orthogonalLoop=1;jettySize=auto;html=1;fontFamily=Courier New;fontStyle=1;strokeWidth=2;endSize=3;startSize=3;endArrow=block;endFill=1;exitX=1;exitY=0.75;exitDx=0;exitDy=0;" parent="1" edge="1">
          <mxGeometry relative="1" as="geometry">
            <mxPoint x="819.21" y="2300.1274999999996" as="sourcePoint" />
            <mxPoint x="898.78" y="2300.19" as="targetPoint" />
            <Array as="points">
              <mxPoint x="858.78" y="2300.19" />
              <mxPoint x="898.78" y="2300.19" />
            </Array>
          </mxGeometry>
        </mxCell>
        <mxCell id="QRGypccLNdDq8GzX22bj-408" style="edgeStyle=orthogonalEdgeStyle;rounded=0;orthogonalLoop=1;jettySize=auto;html=1;fontFamily=Courier New;fontStyle=1;strokeWidth=2;endSize=3;startSize=3;endArrow=block;endFill=1;exitX=1;exitY=0.25;exitDx=0;exitDy=0;" parent="1" edge="1">
          <mxGeometry relative="1" as="geometry">
            <mxPoint x="920.4300000000001" y="2360.19" as="sourcePoint" />
            <mxPoint x="978.74" y="2360.3700000000003" as="targetPoint" />
            <Array as="points">
              <mxPoint x="938.4300000000001" y="2360.19" />
            </Array>
          </mxGeometry>
        </mxCell>
        <mxCell id="QRGypccLNdDq8GzX22bj-409" style="edgeStyle=orthogonalEdgeStyle;rounded=0;orthogonalLoop=1;jettySize=auto;html=1;fontFamily=Courier New;fontStyle=1;strokeWidth=2;endSize=3;startSize=3;endArrow=block;endFill=1;exitX=1;exitY=0.25;exitDx=0;exitDy=0;" parent="1" edge="1">
          <mxGeometry relative="1" as="geometry">
            <mxPoint x="920.4300000000001" y="2300.19" as="sourcePoint" />
            <mxPoint x="978.74" y="2300.3700000000003" as="targetPoint" />
            <Array as="points">
              <mxPoint x="938.4300000000001" y="2300.19" />
            </Array>
          </mxGeometry>
        </mxCell>
        <mxCell id="QRGypccLNdDq8GzX22bj-410" style="edgeStyle=orthogonalEdgeStyle;rounded=0;orthogonalLoop=1;jettySize=auto;html=1;fontFamily=Courier New;fontStyle=1;strokeWidth=2;endSize=3;startSize=3;endArrow=block;endFill=1;entryX=0;entryY=0.25;entryDx=0;entryDy=0;" parent="1" target="QRGypccLNdDq8GzX22bj-225" edge="1">
          <mxGeometry relative="1" as="geometry">
            <mxPoint x="1099.43" y="2300" as="sourcePoint" />
            <mxPoint x="1157.05" y="2300.2000000000003" as="targetPoint" />
            <Array as="points">
              <mxPoint x="1116.43" y="2300" />
            </Array>
          </mxGeometry>
        </mxCell>
        <mxCell id="QRGypccLNdDq8GzX22bj-411" style="edgeStyle=orthogonalEdgeStyle;rounded=0;orthogonalLoop=1;jettySize=auto;html=1;fontFamily=Courier New;fontStyle=1;strokeWidth=2;endSize=3;startSize=3;endArrow=block;endFill=1;exitX=1;exitY=0.5;exitDx=0;exitDy=0;" parent="1" source="QRGypccLNdDq8GzX22bj-224" edge="1">
          <mxGeometry relative="1" as="geometry">
            <mxPoint x="1100.82" y="2360.1400000000003" as="sourcePoint" />
            <mxPoint x="1159.13" y="2360.3200000000006" as="targetPoint" />
            <Array as="points" />
          </mxGeometry>
        </mxCell>
        <mxCell id="QRGypccLNdDq8GzX22bj-412" style="edgeStyle=orthogonalEdgeStyle;rounded=0;orthogonalLoop=1;jettySize=auto;html=1;fontFamily=Courier New;fontStyle=1;strokeWidth=2;endSize=3;startSize=3;endArrow=block;endFill=1;" parent="1" edge="1">
          <mxGeometry relative="1" as="geometry">
            <mxPoint x="1098.43" y="2350" as="sourcePoint" />
            <mxPoint x="1149.43" y="2310" as="targetPoint" />
            <Array as="points">
              <mxPoint x="1149.43" y="2350" />
              <mxPoint x="1149.43" y="2320" />
            </Array>
          </mxGeometry>
        </mxCell>
        <mxCell id="QRGypccLNdDq8GzX22bj-413" value="&lt;font face=&quot;Courier New&quot; style=&quot;font-size: 10px;&quot;&gt;&lt;b&gt;&amp;nbsp;Busy&amp;nbsp;&lt;/b&gt;&lt;/font&gt;" style="edgeLabel;html=1;align=center;verticalAlign=middle;resizable=0;points=[];labelBorderColor=default;" parent="QRGypccLNdDq8GzX22bj-412" vertex="1" connectable="0">
          <mxGeometry x="-0.3972" y="2" relative="1" as="geometry">
            <mxPoint x="-2" as="offset" />
          </mxGeometry>
        </mxCell>
        <mxCell id="QRGypccLNdDq8GzX22bj-414" style="edgeStyle=orthogonalEdgeStyle;rounded=0;orthogonalLoop=1;jettySize=auto;html=1;fontFamily=Courier New;fontStyle=1;strokeWidth=2;endSize=3;startSize=3;endArrow=block;endFill=1;entryX=0;entryY=0.25;entryDx=0;entryDy=0;" parent="1" edge="1">
          <mxGeometry relative="1" as="geometry">
            <mxPoint x="1179.51" y="2300.11" as="sourcePoint" />
            <mxPoint x="1239.51" y="2300.11" as="targetPoint" />
            <Array as="points">
              <mxPoint x="1196.51" y="2300.11" />
            </Array>
          </mxGeometry>
        </mxCell>
        <mxCell id="QRGypccLNdDq8GzX22bj-415" style="edgeStyle=orthogonalEdgeStyle;rounded=0;orthogonalLoop=1;jettySize=auto;html=1;fontFamily=Courier New;fontStyle=1;strokeWidth=2;endSize=3;startSize=3;endArrow=block;endFill=1;entryX=0;entryY=0.25;entryDx=0;entryDy=0;" parent="1" edge="1">
          <mxGeometry relative="1" as="geometry">
            <mxPoint x="1179.86" y="2360.11" as="sourcePoint" />
            <mxPoint x="1239.86" y="2360.11" as="targetPoint" />
            <Array as="points">
              <mxPoint x="1196.86" y="2360.11" />
            </Array>
          </mxGeometry>
        </mxCell>
        <mxCell id="QRGypccLNdDq8GzX22bj-416" style="edgeStyle=orthogonalEdgeStyle;rounded=0;orthogonalLoop=1;jettySize=auto;html=1;fontFamily=Courier New;fontStyle=1;strokeWidth=2;endSize=3;startSize=3;endArrow=block;endFill=1;entryX=0;entryY=0.25;entryDx=0;entryDy=0;" parent="1" edge="1">
          <mxGeometry relative="1" as="geometry">
            <mxPoint x="1359.4299999999998" y="2300.11" as="sourcePoint" />
            <mxPoint x="1419.4299999999998" y="2300.11" as="targetPoint" />
            <Array as="points">
              <mxPoint x="1376.4299999999998" y="2300.11" />
            </Array>
          </mxGeometry>
        </mxCell>
        <mxCell id="QRGypccLNdDq8GzX22bj-417" style="edgeStyle=orthogonalEdgeStyle;rounded=0;orthogonalLoop=1;jettySize=auto;html=1;fontFamily=Courier New;fontStyle=1;strokeWidth=2;endSize=3;startSize=3;endArrow=block;endFill=1;entryX=0;entryY=0.25;entryDx=0;entryDy=0;" parent="1" edge="1">
          <mxGeometry relative="1" as="geometry">
            <mxPoint x="1358.59" y="2360.11" as="sourcePoint" />
            <mxPoint x="1418.59" y="2360.11" as="targetPoint" />
            <Array as="points">
              <mxPoint x="1375.59" y="2360.11" />
            </Array>
          </mxGeometry>
        </mxCell>
        <mxCell id="QRGypccLNdDq8GzX22bj-418" style="edgeStyle=orthogonalEdgeStyle;rounded=0;orthogonalLoop=1;jettySize=auto;html=1;fontFamily=Courier New;fontStyle=1;strokeWidth=2;endSize=3;startSize=3;endArrow=block;endFill=1;exitX=0.923;exitY=1.003;exitDx=0;exitDy=0;exitPerimeter=0;" parent="1" edge="1">
          <mxGeometry relative="1" as="geometry">
            <mxPoint x="920.24" y="1849.78" as="sourcePoint" />
            <mxPoint x="459.43" y="1770" as="targetPoint" />
            <Array as="points">
              <mxPoint x="959.4300000000001" y="1850" />
              <mxPoint x="959.4300000000001" y="1770" />
            </Array>
          </mxGeometry>
        </mxCell>
        <mxCell id="QRGypccLNdDq8GzX22bj-419" value="&amp;nbsp;WriteBack&amp;nbsp;" style="edgeLabel;html=1;align=center;verticalAlign=middle;resizable=0;points=[];fontFamily=Courier New;fontStyle=1;labelBorderColor=default;fontSize=10;" parent="QRGypccLNdDq8GzX22bj-418" vertex="1" connectable="0">
          <mxGeometry x="-0.369" relative="1" as="geometry">
            <mxPoint x="-140" y="-1" as="offset" />
          </mxGeometry>
        </mxCell>
        <mxCell id="QRGypccLNdDq8GzX22bj-420" style="edgeStyle=orthogonalEdgeStyle;rounded=0;orthogonalLoop=1;jettySize=auto;html=1;fontFamily=Courier New;fontStyle=1;strokeWidth=2;endSize=3;startSize=3;endArrow=block;endFill=1;exitX=0.923;exitY=1.003;exitDx=0;exitDy=0;exitPerimeter=0;" parent="1" edge="1">
          <mxGeometry relative="1" as="geometry">
            <mxPoint x="920.24" y="2009.78" as="sourcePoint" />
            <mxPoint x="459.43" y="1930" as="targetPoint" />
            <Array as="points">
              <mxPoint x="959.4300000000001" y="2010" />
              <mxPoint x="959.4300000000001" y="1930" />
            </Array>
          </mxGeometry>
        </mxCell>
        <mxCell id="QRGypccLNdDq8GzX22bj-421" value="&amp;nbsp;WriteBack&amp;nbsp;" style="edgeLabel;html=1;align=center;verticalAlign=middle;resizable=0;points=[];fontFamily=Courier New;fontStyle=1;labelBorderColor=default;fontSize=10;" parent="QRGypccLNdDq8GzX22bj-420" vertex="1" connectable="0">
          <mxGeometry x="-0.369" relative="1" as="geometry">
            <mxPoint x="-140" y="-1" as="offset" />
          </mxGeometry>
        </mxCell>
        <mxCell id="QRGypccLNdDq8GzX22bj-422" style="edgeStyle=orthogonalEdgeStyle;rounded=0;orthogonalLoop=1;jettySize=auto;html=1;fontFamily=Courier New;fontStyle=1;strokeWidth=2;endSize=3;startSize=3;endArrow=block;endFill=1;exitX=0.923;exitY=1.003;exitDx=0;exitDy=0;exitPerimeter=0;" parent="1" edge="1">
          <mxGeometry relative="1" as="geometry">
            <mxPoint x="920.24" y="2169.84" as="sourcePoint" />
            <mxPoint x="459.43" y="2090.06" as="targetPoint" />
            <Array as="points">
              <mxPoint x="959.4300000000001" y="2170.06" />
              <mxPoint x="959.4300000000001" y="2090.06" />
            </Array>
          </mxGeometry>
        </mxCell>
        <mxCell id="QRGypccLNdDq8GzX22bj-423" value="&amp;nbsp;WriteBack&amp;nbsp;" style="edgeLabel;html=1;align=center;verticalAlign=middle;resizable=0;points=[];fontFamily=Courier New;fontStyle=1;labelBorderColor=default;fontSize=10;" parent="QRGypccLNdDq8GzX22bj-422" vertex="1" connectable="0">
          <mxGeometry x="-0.369" relative="1" as="geometry">
            <mxPoint x="-140" y="-1" as="offset" />
          </mxGeometry>
        </mxCell>
        <mxCell id="QRGypccLNdDq8GzX22bj-424" style="edgeStyle=orthogonalEdgeStyle;rounded=0;orthogonalLoop=1;jettySize=auto;html=1;fontFamily=Courier New;fontStyle=1;strokeWidth=2;endSize=3;startSize=3;endArrow=block;endFill=1;" parent="1" edge="1">
          <mxGeometry relative="1" as="geometry">
            <mxPoint x="1439.43" y="2330" as="sourcePoint" />
            <mxPoint x="461.43" y="2250" as="targetPoint" />
            <Array as="points">
              <mxPoint x="1479.43" y="2330" />
              <mxPoint x="1479.43" y="2250" />
            </Array>
          </mxGeometry>
        </mxCell>
        <mxCell id="QRGypccLNdDq8GzX22bj-425" value="&amp;nbsp;WriteBack&amp;nbsp;" style="edgeLabel;html=1;align=center;verticalAlign=middle;resizable=0;points=[];fontFamily=Courier New;fontStyle=1;labelBorderColor=default;fontSize=10;" parent="QRGypccLNdDq8GzX22bj-424" vertex="1" connectable="0">
          <mxGeometry x="-0.369" relative="1" as="geometry">
            <mxPoint x="-500" y="-1" as="offset" />
          </mxGeometry>
        </mxCell>
        <mxCell id="QRGypccLNdDq8GzX22bj-426" style="edgeStyle=orthogonalEdgeStyle;rounded=0;orthogonalLoop=1;jettySize=auto;html=1;fontFamily=Courier New;fontStyle=1;strokeWidth=2;endSize=3;startSize=3;endArrow=block;endFill=1;exitX=1;exitY=0.5;exitDx=0;exitDy=0;" parent="1" source="QRGypccLNdDq8GzX22bj-246" edge="1">
          <mxGeometry relative="1" as="geometry">
            <mxPoint x="1439.43" y="2490.02" as="sourcePoint" />
            <mxPoint x="461.43" y="2410.02" as="targetPoint" />
            <Array as="points">
              <mxPoint x="1219.43" y="2490" />
              <mxPoint x="1219.43" y="2410" />
            </Array>
          </mxGeometry>
        </mxCell>
        <mxCell id="QRGypccLNdDq8GzX22bj-427" value="&amp;nbsp;WriteBack&amp;nbsp;" style="edgeLabel;html=1;align=center;verticalAlign=middle;resizable=0;points=[];fontFamily=Courier New;fontStyle=1;labelBorderColor=default;fontSize=10;" parent="QRGypccLNdDq8GzX22bj-426" vertex="1" connectable="0">
          <mxGeometry x="-0.369" relative="1" as="geometry">
            <mxPoint x="154" y="6" as="offset" />
          </mxGeometry>
        </mxCell>
        <mxCell id="QRGypccLNdDq8GzX22bj-429" style="edgeStyle=orthogonalEdgeStyle;rounded=0;orthogonalLoop=1;jettySize=auto;html=1;fontFamily=Courier New;fontStyle=1;strokeWidth=2;endSize=3;startSize=3;endArrow=block;endFill=1;exitX=0.5;exitY=1;exitDx=0;exitDy=0;entryX=0;entryY=0.5;entryDx=0;entryDy=0;" parent="1" source="QRGypccLNdDq8GzX22bj-260" target="QRGypccLNdDq8GzX22bj-258" edge="1">
          <mxGeometry relative="1" as="geometry">
            <mxPoint x="745.4300000000001" y="2750" as="sourcePoint" />
            <mxPoint x="925.4300000000001" y="2750" as="targetPoint" />
            <Array as="points">
              <mxPoint x="1038.43" y="2730" />
              <mxPoint x="579.4300000000001" y="2730" />
              <mxPoint x="579.4300000000001" y="2779" />
            </Array>
          </mxGeometry>
        </mxCell>
        <mxCell id="QRGypccLNdDq8GzX22bj-430" value="&amp;nbsp;WriteCommit&amp;nbsp;" style="edgeLabel;html=1;align=center;verticalAlign=middle;resizable=0;points=[];fontFamily=Courier New;fontStyle=1;labelBorderColor=default;fontSize=10;rotation=0;" parent="QRGypccLNdDq8GzX22bj-429" vertex="1" connectable="0">
          <mxGeometry x="-0.369" relative="1" as="geometry">
            <mxPoint x="-93" y="-1" as="offset" />
          </mxGeometry>
        </mxCell>
        <mxCell id="QRGypccLNdDq8GzX22bj-434" style="edgeStyle=orthogonalEdgeStyle;rounded=0;orthogonalLoop=1;jettySize=auto;html=1;fontFamily=Courier New;fontStyle=1;strokeWidth=2;endSize=3;startSize=3;endArrow=block;endFill=1;exitX=1;exitY=0.5;exitDx=0;exitDy=0;entryX=-0.038;entryY=0.661;entryDx=0;entryDy=0;entryPerimeter=0;" parent="1" edge="1">
          <mxGeometry relative="1" as="geometry">
            <mxPoint x="718.4300000000001" y="2669" as="sourcePoint" />
            <mxPoint x="898.4300000000001" y="2669" as="targetPoint" />
            <Array as="points" />
          </mxGeometry>
        </mxCell>
        <mxCell id="QRGypccLNdDq8GzX22bj-435" value="&amp;nbsp;RData&amp;nbsp;" style="edgeLabel;html=1;align=center;verticalAlign=middle;resizable=0;points=[];fontFamily=Courier New;fontStyle=1;labelBorderColor=default;fontSize=10;rotation=0;" parent="QRGypccLNdDq8GzX22bj-434" vertex="1" connectable="0">
          <mxGeometry x="-0.369" relative="1" as="geometry">
            <mxPoint x="5" y="-1" as="offset" />
          </mxGeometry>
        </mxCell>
        <mxCell id="QRGypccLNdDq8GzX22bj-436" style="edgeStyle=orthogonalEdgeStyle;rounded=0;orthogonalLoop=1;jettySize=auto;html=1;fontFamily=Courier New;fontStyle=1;strokeWidth=2;endSize=3;startSize=3;endArrow=block;endFill=1;exitX=1;exitY=0.5;exitDx=0;exitDy=0;entryX=0;entryY=0.5;entryDx=0;entryDy=0;" parent="1" edge="1">
          <mxGeometry relative="1" as="geometry">
            <mxPoint x="919.4300000000001" y="2650" as="sourcePoint" />
            <mxPoint x="999.4300000000001" y="2650" as="targetPoint" />
            <Array as="points" />
          </mxGeometry>
        </mxCell>
        <mxCell id="QRGypccLNdDq8GzX22bj-437" value="&amp;nbsp;PAddr&amp;nbsp;" style="edgeLabel;html=1;align=center;verticalAlign=middle;resizable=0;points=[];fontFamily=Courier New;fontStyle=1;labelBorderColor=default;fontSize=10;rotation=0;" parent="QRGypccLNdDq8GzX22bj-436" vertex="1" connectable="0">
          <mxGeometry x="-0.369" relative="1" as="geometry">
            <mxPoint x="14" y="-1" as="offset" />
          </mxGeometry>
        </mxCell>
        <mxCell id="QRGypccLNdDq8GzX22bj-438" value="&lt;font style=&quot;font-size: 17px;&quot;&gt;=&lt;/font&gt;" style="ellipse;whiteSpace=wrap;html=1;aspect=fixed;fontFamily=Courier New;fontStyle=1;strokeWidth=2;fillColor=#f9f7ed;strokeColor=#36393d;" parent="1" vertex="1">
          <mxGeometry x="779.4300000000001" y="2758.73" width="40" height="40" as="geometry" />
        </mxCell>
        <mxCell id="QRGypccLNdDq8GzX22bj-442" value="" style="shape=waypoint;sketch=0;fillStyle=solid;size=6;pointerEvents=1;points=[];fillColor=none;resizable=0;rotatable=0;perimeter=centerPerimeter;snapToPoint=1;strokeWidth=2;fontFamily=Courier New;fontStyle=1" parent="1" vertex="1">
          <mxGeometry x="569.4300000000001" y="2741.9999999999995" width="20" height="20" as="geometry" />
        </mxCell>
        <mxCell id="QRGypccLNdDq8GzX22bj-443" style="edgeStyle=orthogonalEdgeStyle;rounded=0;orthogonalLoop=1;jettySize=auto;html=1;fontFamily=Courier New;fontStyle=1;strokeWidth=2;endSize=3;startSize=3;endArrow=block;endFill=1;entryX=0.5;entryY=0;entryDx=0;entryDy=0;" parent="1" target="QRGypccLNdDq8GzX22bj-438" edge="1">
          <mxGeometry relative="1" as="geometry">
            <mxPoint x="619.4300000000001" y="2749" as="sourcePoint" />
            <mxPoint x="799.4300000000001" y="2757.73" as="targetPoint" />
            <Array as="points">
              <mxPoint x="799.4300000000001" y="2749" />
            </Array>
          </mxGeometry>
        </mxCell>
        <mxCell id="QRGypccLNdDq8GzX22bj-444" value="&amp;nbsp;Addr&amp;nbsp;" style="edgeLabel;html=1;align=center;verticalAlign=middle;resizable=0;points=[];fontFamily=Courier New;fontStyle=1;labelBorderColor=default;fontSize=10;rotation=0;" parent="QRGypccLNdDq8GzX22bj-443" vertex="1" connectable="0">
          <mxGeometry x="-0.369" relative="1" as="geometry">
            <mxPoint x="17" y="-1" as="offset" />
          </mxGeometry>
        </mxCell>
        <mxCell id="QRGypccLNdDq8GzX22bj-445" style="edgeStyle=orthogonalEdgeStyle;rounded=0;orthogonalLoop=1;jettySize=auto;html=1;fontFamily=Courier New;fontStyle=1;strokeWidth=2;endSize=3;startSize=3;endArrow=block;endFill=1;exitX=1;exitY=0.75;exitDx=0;exitDy=0;entryX=0.08;entryY=0.773;entryDx=0;entryDy=0;entryPerimeter=0;" parent="1" target="QRGypccLNdDq8GzX22bj-438" edge="1">
          <mxGeometry relative="1" as="geometry">
            <mxPoint x="718.27" y="2790" as="sourcePoint" />
            <mxPoint x="779.4300000000001" y="2790" as="targetPoint" />
            <Array as="points">
              <mxPoint x="768.4300000000001" y="2790" />
            </Array>
          </mxGeometry>
        </mxCell>
        <mxCell id="QRGypccLNdDq8GzX22bj-446" value="&amp;nbsp;RTag&amp;nbsp;" style="edgeLabel;html=1;align=center;verticalAlign=middle;resizable=0;points=[];fontFamily=Courier New;fontStyle=1;labelBorderColor=default;fontSize=10;rotation=0;" parent="QRGypccLNdDq8GzX22bj-445" vertex="1" connectable="0">
          <mxGeometry x="-0.369" relative="1" as="geometry">
            <mxPoint x="5" y="-1" as="offset" />
          </mxGeometry>
        </mxCell>
        <mxCell id="QRGypccLNdDq8GzX22bj-448" style="edgeStyle=orthogonalEdgeStyle;rounded=0;orthogonalLoop=1;jettySize=auto;html=1;fontFamily=Courier New;fontStyle=1;strokeWidth=2;endSize=3;startSize=3;endArrow=block;endFill=1;exitX=1;exitY=0.5;exitDx=0;exitDy=0;entryX=0.686;entryY=-0.015;entryDx=0;entryDy=0;entryPerimeter=0;" parent="1" edge="1">
          <mxGeometry relative="1" as="geometry">
            <mxPoint x="819.9700000000014" y="2778.7" as="sourcePoint" />
            <mxPoint x="898.8899999999999" y="2778.77" as="targetPoint" />
            <Array as="points">
              <mxPoint x="833.97" y="2778.97" />
            </Array>
          </mxGeometry>
        </mxCell>
        <mxCell id="QRGypccLNdDq8GzX22bj-449" value="&amp;nbsp;WriteHit&amp;nbsp;" style="edgeLabel;html=1;align=center;verticalAlign=middle;resizable=0;points=[];fontFamily=Courier New;fontStyle=1;labelBorderColor=default;fontSize=10;rotation=0;" parent="QRGypccLNdDq8GzX22bj-448" vertex="1" connectable="0">
          <mxGeometry x="-0.369" relative="1" as="geometry">
            <mxPoint x="10" as="offset" />
          </mxGeometry>
        </mxCell>
        <mxCell id="QRGypccLNdDq8GzX22bj-450" style="edgeStyle=orthogonalEdgeStyle;rounded=0;orthogonalLoop=1;jettySize=auto;html=1;fontFamily=Courier New;fontStyle=1;strokeWidth=2;endSize=3;startSize=3;endArrow=block;endFill=1;entryX=0;entryY=0.5;entryDx=0;entryDy=0;" parent="1" target="QRGypccLNdDq8GzX22bj-259" edge="1">
          <mxGeometry relative="1" as="geometry">
            <mxPoint x="919.4300000000001" y="2800" as="sourcePoint" />
            <mxPoint x="1098.89" y="2789.04" as="targetPoint" />
            <Array as="points">
              <mxPoint x="918.4300000000001" y="2800" />
              <mxPoint x="959.4300000000001" y="2800" />
              <mxPoint x="959.4300000000001" y="2880" />
              <mxPoint x="579.4300000000001" y="2880" />
              <mxPoint x="579.4300000000001" y="2828" />
            </Array>
          </mxGeometry>
        </mxCell>
        <mxCell id="QRGypccLNdDq8GzX22bj-451" value="&amp;nbsp;WriteEn&amp;nbsp;" style="edgeLabel;html=1;align=center;verticalAlign=middle;resizable=0;points=[];fontFamily=Courier New;fontStyle=1;labelBorderColor=default;fontSize=10;rotation=0;" parent="QRGypccLNdDq8GzX22bj-450" vertex="1" connectable="0">
          <mxGeometry x="-0.369" relative="1" as="geometry">
            <mxPoint x="-209" y="-1" as="offset" />
          </mxGeometry>
        </mxCell>
        <mxCell id="QRGypccLNdDq8GzX22bj-452" value="" style="endArrow=block;html=1;rounded=0;strokeWidth=2;endFill=1;fontFamily=Courier New;startArrow=block;startFill=1;entryX=0.175;entryY=1.007;entryDx=0;entryDy=0;entryPerimeter=0;edgeStyle=orthogonalEdgeStyle;endSize=3;startSize=3;fontStyle=1" parent="1" edge="1">
          <mxGeometry width="50" height="50" relative="1" as="geometry">
            <mxPoint x="1118.43" y="2910" as="sourcePoint" />
            <mxPoint x="1118.8400000000001" y="2710.6099999999997" as="targetPoint" />
            <Array as="points">
              <mxPoint x="1118.8400000000001" y="2755.6099999999997" />
            </Array>
          </mxGeometry>
        </mxCell>
        <mxCell id="QRGypccLNdDq8GzX22bj-453" value="&lt;span style=&quot;&quot;&gt;&lt;font style=&quot;font-size: 10px;&quot;&gt;&amp;nbsp;Req-Rsp&amp;nbsp;&lt;/font&gt;&lt;/span&gt;" style="edgeLabel;html=1;align=center;verticalAlign=middle;resizable=0;points=[];labelBorderColor=default;fontFamily=Courier New;rotation=-90;fontStyle=1" parent="QRGypccLNdDq8GzX22bj-452" vertex="1" connectable="0">
          <mxGeometry x="-0.2389" y="2" relative="1" as="geometry">
            <mxPoint x="3" y="-26" as="offset" />
          </mxGeometry>
        </mxCell>
        <mxCell id="QRGypccLNdDq8GzX22bj-454" style="edgeStyle=orthogonalEdgeStyle;rounded=0;orthogonalLoop=1;jettySize=auto;html=1;fontFamily=Courier New;fontStyle=1;strokeWidth=2;endSize=3;startSize=3;endArrow=block;endFill=1;" parent="1" edge="1">
          <mxGeometry relative="1" as="geometry">
            <mxPoint x="920" y="2800" as="sourcePoint" />
            <mxPoint x="1110" y="2800" as="targetPoint" />
            <Array as="points">
              <mxPoint x="1020" y="2800" />
              <mxPoint x="1020" y="2800" />
            </Array>
          </mxGeometry>
        </mxCell>
        <mxCell id="QRGypccLNdDq8GzX22bj-457" style="edgeStyle=orthogonalEdgeStyle;rounded=0;orthogonalLoop=1;jettySize=auto;html=1;fontFamily=Courier New;fontStyle=1;strokeWidth=2;endSize=3;startSize=3;endArrow=block;endFill=1;" parent="1" edge="1">
          <mxGeometry relative="1" as="geometry">
            <mxPoint x="1039.43" y="1780" as="sourcePoint" />
            <mxPoint x="649.4300000000001" y="1840" as="targetPoint" />
            <Array as="points">
              <mxPoint x="1039.43" y="1780" />
              <mxPoint x="649.4300000000001" y="1780" />
            </Array>
          </mxGeometry>
        </mxCell>
        <mxCell id="QRGypccLNdDq8GzX22bj-458" value="&amp;nbsp;Forward&amp;nbsp;" style="edgeLabel;html=1;align=center;verticalAlign=middle;resizable=0;points=[];fontFamily=Courier New;fontStyle=1;labelBorderColor=default;fontSize=10;" parent="QRGypccLNdDq8GzX22bj-457" vertex="1" connectable="0">
          <mxGeometry x="-0.369" relative="1" as="geometry">
            <mxPoint x="-72" y="-1" as="offset" />
          </mxGeometry>
        </mxCell>
        <mxCell id="QRGypccLNdDq8GzX22bj-461" style="edgeStyle=orthogonalEdgeStyle;rounded=0;orthogonalLoop=1;jettySize=auto;html=1;fontFamily=Courier New;fontStyle=1;strokeWidth=2;endSize=3;startSize=3;endArrow=block;endFill=1;" parent="1" edge="1">
          <mxGeometry relative="1" as="geometry">
            <mxPoint x="1039.43" y="1940" as="sourcePoint" />
            <mxPoint x="649.4300000000001" y="2000" as="targetPoint" />
            <Array as="points">
              <mxPoint x="1038.43" y="1940" />
              <mxPoint x="649.4300000000001" y="1940" />
            </Array>
          </mxGeometry>
        </mxCell>
        <mxCell id="QRGypccLNdDq8GzX22bj-462" value="&amp;nbsp;Forward&amp;nbsp;" style="edgeLabel;html=1;align=center;verticalAlign=middle;resizable=0;points=[];fontFamily=Courier New;fontStyle=1;labelBorderColor=default;fontSize=10;" parent="QRGypccLNdDq8GzX22bj-461" vertex="1" connectable="0">
          <mxGeometry x="-0.369" relative="1" as="geometry">
            <mxPoint x="-72" y="-1" as="offset" />
          </mxGeometry>
        </mxCell>
        <mxCell id="QRGypccLNdDq8GzX22bj-463" style="edgeStyle=orthogonalEdgeStyle;rounded=0;orthogonalLoop=1;jettySize=auto;html=1;fontFamily=Courier New;fontStyle=1;strokeWidth=2;endSize=3;startSize=3;endArrow=block;endFill=1;" parent="1" edge="1">
          <mxGeometry relative="1" as="geometry">
            <mxPoint x="1039.43" y="2100.48" as="sourcePoint" />
            <mxPoint x="649.4300000000001" y="2160.48" as="targetPoint" />
            <Array as="points">
              <mxPoint x="1038.43" y="2100.48" />
              <mxPoint x="649.4300000000001" y="2100.48" />
            </Array>
          </mxGeometry>
        </mxCell>
        <mxCell id="QRGypccLNdDq8GzX22bj-464" value="&amp;nbsp;Forward&amp;nbsp;" style="edgeLabel;html=1;align=center;verticalAlign=middle;resizable=0;points=[];fontFamily=Courier New;fontStyle=1;labelBorderColor=default;fontSize=10;" parent="QRGypccLNdDq8GzX22bj-463" vertex="1" connectable="0">
          <mxGeometry x="-0.369" relative="1" as="geometry">
            <mxPoint x="-72" y="-1" as="offset" />
          </mxGeometry>
        </mxCell>
        <mxCell id="QRGypccLNdDq8GzX22bj-467" style="edgeStyle=orthogonalEdgeStyle;rounded=0;orthogonalLoop=1;jettySize=auto;html=1;fontFamily=Courier New;fontStyle=1;strokeWidth=2;endSize=3;startSize=3;endArrow=block;endFill=1;exitX=1;exitY=0.75;exitDx=0;exitDy=0;entryX=-0.001;entryY=0.641;entryDx=0;entryDy=0;entryPerimeter=0;" parent="1" edge="1">
          <mxGeometry relative="1" as="geometry">
            <mxPoint x="920.24" y="2010.0774999999996" as="sourcePoint" />
            <mxPoint x="1039.43" y="2010" as="targetPoint" />
            <Array as="points">
              <mxPoint x="1039.43" y="2010" />
            </Array>
          </mxGeometry>
        </mxCell>
        <mxCell id="QRGypccLNdDq8GzX22bj-468" style="edgeStyle=orthogonalEdgeStyle;rounded=0;orthogonalLoop=1;jettySize=auto;html=1;fontFamily=Courier New;fontStyle=1;strokeWidth=2;endSize=3;startSize=3;endArrow=block;endFill=1;exitX=1;exitY=0.75;exitDx=0;exitDy=0;entryX=-0.001;entryY=0.641;entryDx=0;entryDy=0;entryPerimeter=0;" parent="1" edge="1">
          <mxGeometry relative="1" as="geometry">
            <mxPoint x="920.3299999999999" y="1850.1474999999996" as="sourcePoint" />
            <mxPoint x="1039.52" y="1850.07" as="targetPoint" />
            <Array as="points">
              <mxPoint x="1039.52" y="1850.07" />
            </Array>
          </mxGeometry>
        </mxCell>
        <mxCell id="QRGypccLNdDq8GzX22bj-469" style="edgeStyle=orthogonalEdgeStyle;rounded=0;orthogonalLoop=1;jettySize=auto;html=1;fontFamily=Courier New;fontStyle=1;strokeWidth=2;endSize=3;startSize=3;endArrow=block;endFill=1;exitX=1;exitY=0.75;exitDx=0;exitDy=0;entryX=-0.001;entryY=0.641;entryDx=0;entryDy=0;entryPerimeter=0;" parent="1" edge="1">
          <mxGeometry relative="1" as="geometry">
            <mxPoint x="920.3299999999999" y="2169.8774999999996" as="sourcePoint" />
            <mxPoint x="1039.52" y="2169.8" as="targetPoint" />
            <Array as="points">
              <mxPoint x="1039.52" y="2169.8" />
            </Array>
          </mxGeometry>
        </mxCell>
        <mxCell id="QRGypccLNdDq8GzX22bj-470" value="" style="shape=waypoint;sketch=0;fillStyle=solid;size=6;pointerEvents=1;points=[];fillColor=none;resizable=0;rotatable=0;perimeter=centerPerimeter;snapToPoint=1;strokeWidth=2;fontFamily=Courier New;fontStyle=1" parent="1" vertex="1">
          <mxGeometry x="949.4300000000001" y="2160.0399999999995" width="20" height="20" as="geometry" />
        </mxCell>
        <mxCell id="QRGypccLNdDq8GzX22bj-471" value="" style="shape=waypoint;sketch=0;fillStyle=solid;size=6;pointerEvents=1;points=[];fillColor=none;resizable=0;rotatable=0;perimeter=centerPerimeter;snapToPoint=1;strokeWidth=2;fontFamily=Courier New;fontStyle=1" parent="1" vertex="1">
          <mxGeometry x="949.4300000000001" y="2000.5999999999995" width="20" height="20" as="geometry" />
        </mxCell>
        <mxCell id="QRGypccLNdDq8GzX22bj-472" value="" style="shape=waypoint;sketch=0;fillStyle=solid;size=6;pointerEvents=1;points=[];fillColor=none;resizable=0;rotatable=0;perimeter=centerPerimeter;snapToPoint=1;strokeWidth=2;fontFamily=Courier New;fontStyle=1" parent="1" vertex="1">
          <mxGeometry x="949.4300000000001" y="1840.5699999999995" width="20" height="20" as="geometry" />
        </mxCell>
        <mxCell id="QRGypccLNdDq8GzX22bj-476" value="" style="shape=waypoint;sketch=0;fillStyle=solid;size=6;pointerEvents=1;points=[];fillColor=none;resizable=0;rotatable=0;perimeter=centerPerimeter;snapToPoint=1;strokeWidth=2;fontFamily=Courier New;fontStyle=1" parent="1" vertex="1">
          <mxGeometry x="1469.43" y="2239.9999999999995" width="20" height="20" as="geometry" />
        </mxCell>
        <mxCell id="QRGypccLNdDq8GzX22bj-479" value="&lt;font style=&quot;font-size: 15px;&quot; face=&quot;Courier New&quot;&gt;&lt;b style=&quot;&quot;&gt;&amp;nbsp;DCache&amp;nbsp;&lt;/b&gt;&lt;/font&gt;" style="text;html=1;align=center;verticalAlign=middle;resizable=0;points=[];autosize=1;strokeColor=none;fillColor=none;labelBorderColor=default;" parent="1" vertex="1">
          <mxGeometry x="878.74" y="2895" width="100" height="30" as="geometry" />
        </mxCell>
        <mxCell id="QRGypccLNdDq8GzX22bj-480" style="edgeStyle=orthogonalEdgeStyle;rounded=0;orthogonalLoop=1;jettySize=auto;html=1;exitX=1;exitY=0.5;exitDx=0;exitDy=0;fontFamily=Courier New;fontStyle=1;endArrow=block;endFill=1;strokeWidth=2;endSize=3;startSize=3;" parent="1" edge="1">
          <mxGeometry relative="1" as="geometry">
            <mxPoint x="159.43000000000006" y="2000" as="targetPoint" />
            <mxPoint x="49.430000000000064" y="2000" as="sourcePoint" />
          </mxGeometry>
        </mxCell>
        <mxCell id="QRGypccLNdDq8GzX22bj-481" value="&amp;nbsp;InstPkg&amp;nbsp;" style="edgeLabel;html=1;align=center;verticalAlign=middle;resizable=0;points=[];fontFamily=Courier New;fontStyle=1;labelBorderColor=default;" parent="QRGypccLNdDq8GzX22bj-480" vertex="1" connectable="0">
          <mxGeometry x="-0.27" y="1" relative="1" as="geometry">
            <mxPoint y="1" as="offset" />
          </mxGeometry>
        </mxCell>
        <mxCell id="QRGypccLNdDq8GzX22bj-482" value="" style="endArrow=none;html=1;rounded=0;" parent="1" edge="1">
          <mxGeometry width="50" height="50" relative="1" as="geometry">
            <mxPoint x="136.43000000000006" y="2005" as="sourcePoint" />
            <mxPoint x="146.43000000000006" y="1995" as="targetPoint" />
          </mxGeometry>
        </mxCell>
        <mxCell id="QRGypccLNdDq8GzX22bj-483" value="&lt;font style=&quot;font-size: 8px;&quot;&gt;ndcd&lt;/font&gt;" style="text;html=1;align=center;verticalAlign=middle;resizable=0;points=[];autosize=1;strokeColor=none;fillColor=none;fontFamily=Courier New;rotation=0;" parent="1" vertex="1">
          <mxGeometry x="119.43000000000006" y="1974" width="40" height="30" as="geometry" />
        </mxCell>
        <mxCell id="QRGypccLNdDq8GzX22bj-484" style="edgeStyle=orthogonalEdgeStyle;rounded=0;orthogonalLoop=1;jettySize=auto;html=1;exitX=1;exitY=0.5;exitDx=0;exitDy=0;fontFamily=Courier New;fontStyle=1;endArrow=block;endFill=1;strokeWidth=2;endSize=3;startSize=3;" parent="1" edge="1">
          <mxGeometry relative="1" as="geometry">
            <mxPoint x="159.43000000000006" y="2329.8" as="targetPoint" />
            <mxPoint x="49.430000000000064" y="2329.8" as="sourcePoint" />
          </mxGeometry>
        </mxCell>
        <mxCell id="QRGypccLNdDq8GzX22bj-485" value="&amp;nbsp;InstPkg&amp;nbsp;" style="edgeLabel;html=1;align=center;verticalAlign=middle;resizable=0;points=[];fontFamily=Courier New;fontStyle=1;labelBorderColor=default;" parent="QRGypccLNdDq8GzX22bj-484" vertex="1" connectable="0">
          <mxGeometry x="-0.27" y="1" relative="1" as="geometry">
            <mxPoint y="1" as="offset" />
          </mxGeometry>
        </mxCell>
        <mxCell id="QRGypccLNdDq8GzX22bj-486" value="" style="endArrow=none;html=1;rounded=0;" parent="1" edge="1">
          <mxGeometry width="50" height="50" relative="1" as="geometry">
            <mxPoint x="136.43000000000006" y="2334.8" as="sourcePoint" />
            <mxPoint x="146.43000000000006" y="2324.8" as="targetPoint" />
          </mxGeometry>
        </mxCell>
        <mxCell id="QRGypccLNdDq8GzX22bj-487" value="&lt;font style=&quot;font-size: 8px;&quot;&gt;ndcd&lt;/font&gt;" style="text;html=1;align=center;verticalAlign=middle;resizable=0;points=[];autosize=1;strokeColor=none;fillColor=none;fontFamily=Courier New;rotation=0;" parent="1" vertex="1">
          <mxGeometry x="119.43000000000006" y="2303.8" width="40" height="30" as="geometry" />
        </mxCell>
        <mxCell id="QRGypccLNdDq8GzX22bj-488" style="edgeStyle=orthogonalEdgeStyle;rounded=0;orthogonalLoop=1;jettySize=auto;html=1;exitX=1;exitY=0.5;exitDx=0;exitDy=0;fontFamily=Courier New;fontStyle=1;endArrow=block;endFill=1;strokeWidth=2;endSize=3;startSize=3;" parent="1" edge="1">
          <mxGeometry relative="1" as="geometry">
            <mxPoint x="159.43000000000006" y="2491" as="targetPoint" />
            <mxPoint x="49.430000000000064" y="2491" as="sourcePoint" />
          </mxGeometry>
        </mxCell>
        <mxCell id="QRGypccLNdDq8GzX22bj-489" value="&amp;nbsp;InstPkg&amp;nbsp;" style="edgeLabel;html=1;align=center;verticalAlign=middle;resizable=0;points=[];fontFamily=Courier New;fontStyle=1;labelBorderColor=default;" parent="QRGypccLNdDq8GzX22bj-488" vertex="1" connectable="0">
          <mxGeometry x="-0.27" y="1" relative="1" as="geometry">
            <mxPoint y="1" as="offset" />
          </mxGeometry>
        </mxCell>
        <mxCell id="QRGypccLNdDq8GzX22bj-490" value="" style="endArrow=none;html=1;rounded=0;" parent="1" edge="1">
          <mxGeometry width="50" height="50" relative="1" as="geometry">
            <mxPoint x="136.43000000000006" y="2496" as="sourcePoint" />
            <mxPoint x="146.43000000000006" y="2486" as="targetPoint" />
          </mxGeometry>
        </mxCell>
        <mxCell id="QRGypccLNdDq8GzX22bj-491" value="&lt;font style=&quot;font-size: 8px;&quot;&gt;ndcd&lt;/font&gt;" style="text;html=1;align=center;verticalAlign=middle;resizable=0;points=[];autosize=1;strokeColor=none;fillColor=none;fontFamily=Courier New;rotation=0;" parent="1" vertex="1">
          <mxGeometry x="119.43000000000006" y="2465" width="40" height="30" as="geometry" />
        </mxCell>
        <mxCell id="QRGypccLNdDq8GzX22bj-495" style="edgeStyle=orthogonalEdgeStyle;rounded=0;orthogonalLoop=1;jettySize=auto;html=1;fontFamily=Courier New;fontStyle=1;strokeWidth=2;endSize=3;startSize=3;endArrow=block;endFill=1;" parent="1" edge="1">
          <mxGeometry relative="1" as="geometry">
            <mxPoint x="239.99999999999997" y="1840.52" as="sourcePoint" />
            <mxPoint x="270" y="1760" as="targetPoint" />
            <Array as="points">
              <mxPoint x="270" y="1840.52" />
            </Array>
          </mxGeometry>
        </mxCell>
        <mxCell id="QRGypccLNdDq8GzX22bj-496" value="&amp;nbsp;WakeUp&amp;nbsp;" style="edgeLabel;html=1;align=center;verticalAlign=middle;resizable=0;points=[];fontFamily=Courier New;fontStyle=1;labelBorderColor=default;fontSize=10;rotation=-90;" parent="QRGypccLNdDq8GzX22bj-495" vertex="1" connectable="0">
          <mxGeometry x="-0.369" relative="1" as="geometry">
            <mxPoint y="-26" as="offset" />
          </mxGeometry>
        </mxCell>
        <mxCell id="QRGypccLNdDq8GzX22bj-498" style="edgeStyle=orthogonalEdgeStyle;rounded=0;orthogonalLoop=1;jettySize=auto;html=1;fontFamily=Courier New;fontStyle=1;strokeWidth=2;endSize=3;startSize=3;endArrow=block;endFill=1;" parent="1" edge="1">
          <mxGeometry relative="1" as="geometry">
            <mxPoint x="340.31999999999994" y="1840.57" as="sourcePoint" />
            <mxPoint x="370.32" y="1760.05" as="targetPoint" />
            <Array as="points">
              <mxPoint x="370.32" y="1840.57" />
            </Array>
          </mxGeometry>
        </mxCell>
        <mxCell id="QRGypccLNdDq8GzX22bj-499" value="&amp;nbsp;WakeUp&amp;nbsp;" style="edgeLabel;html=1;align=center;verticalAlign=middle;resizable=0;points=[];fontFamily=Courier New;fontStyle=1;labelBorderColor=default;fontSize=10;rotation=-90;" parent="QRGypccLNdDq8GzX22bj-498" vertex="1" connectable="0">
          <mxGeometry x="-0.369" relative="1" as="geometry">
            <mxPoint y="-26" as="offset" />
          </mxGeometry>
        </mxCell>
        <mxCell id="QRGypccLNdDq8GzX22bj-502" style="edgeStyle=orthogonalEdgeStyle;rounded=0;orthogonalLoop=1;jettySize=auto;html=1;fontFamily=Courier New;fontStyle=1;strokeWidth=2;endSize=3;startSize=3;endArrow=block;endFill=1;" parent="1" edge="1">
          <mxGeometry relative="1" as="geometry">
            <mxPoint x="239.42999999999998" y="2000.5" as="sourcePoint" />
            <mxPoint x="269.43" y="1919.98" as="targetPoint" />
            <Array as="points">
              <mxPoint x="269.43" y="2000.5" />
            </Array>
          </mxGeometry>
        </mxCell>
        <mxCell id="QRGypccLNdDq8GzX22bj-503" value="&amp;nbsp;WakeUp&amp;nbsp;" style="edgeLabel;html=1;align=center;verticalAlign=middle;resizable=0;points=[];fontFamily=Courier New;fontStyle=1;labelBorderColor=default;fontSize=10;rotation=-90;" parent="QRGypccLNdDq8GzX22bj-502" vertex="1" connectable="0">
          <mxGeometry x="-0.369" relative="1" as="geometry">
            <mxPoint y="-26" as="offset" />
          </mxGeometry>
        </mxCell>
        <mxCell id="QRGypccLNdDq8GzX22bj-504" style="edgeStyle=orthogonalEdgeStyle;rounded=0;orthogonalLoop=1;jettySize=auto;html=1;fontFamily=Courier New;fontStyle=1;strokeWidth=2;endSize=3;startSize=3;endArrow=block;endFill=1;" parent="1" edge="1">
          <mxGeometry relative="1" as="geometry">
            <mxPoint x="339.74999999999994" y="2000.55" as="sourcePoint" />
            <mxPoint x="369.75" y="1920.03" as="targetPoint" />
            <Array as="points">
              <mxPoint x="369.75" y="2000.55" />
            </Array>
          </mxGeometry>
        </mxCell>
        <mxCell id="QRGypccLNdDq8GzX22bj-505" value="&amp;nbsp;WakeUp&amp;nbsp;" style="edgeLabel;html=1;align=center;verticalAlign=middle;resizable=0;points=[];fontFamily=Courier New;fontStyle=1;labelBorderColor=default;fontSize=10;rotation=-90;" parent="QRGypccLNdDq8GzX22bj-504" vertex="1" connectable="0">
          <mxGeometry x="-0.369" relative="1" as="geometry">
            <mxPoint y="-26" as="offset" />
          </mxGeometry>
        </mxCell>
        <mxCell id="QRGypccLNdDq8GzX22bj-506" style="edgeStyle=orthogonalEdgeStyle;rounded=0;orthogonalLoop=1;jettySize=auto;html=1;fontFamily=Courier New;fontStyle=1;strokeWidth=2;endSize=3;startSize=3;endArrow=block;endFill=1;" parent="1" edge="1">
          <mxGeometry relative="1" as="geometry">
            <mxPoint x="239.99999999999997" y="2159.43" as="sourcePoint" />
            <mxPoint x="270" y="2078.91" as="targetPoint" />
            <Array as="points">
              <mxPoint x="270" y="2159.43" />
            </Array>
          </mxGeometry>
        </mxCell>
        <mxCell id="QRGypccLNdDq8GzX22bj-507" value="&amp;nbsp;WakeUp&amp;nbsp;" style="edgeLabel;html=1;align=center;verticalAlign=middle;resizable=0;points=[];fontFamily=Courier New;fontStyle=1;labelBorderColor=default;fontSize=10;rotation=-90;" parent="QRGypccLNdDq8GzX22bj-506" vertex="1" connectable="0">
          <mxGeometry x="-0.369" relative="1" as="geometry">
            <mxPoint y="-26" as="offset" />
          </mxGeometry>
        </mxCell>
        <mxCell id="QRGypccLNdDq8GzX22bj-508" style="edgeStyle=orthogonalEdgeStyle;rounded=0;orthogonalLoop=1;jettySize=auto;html=1;fontFamily=Courier New;fontStyle=1;strokeWidth=2;endSize=3;startSize=3;endArrow=block;endFill=1;" parent="1" edge="1">
          <mxGeometry relative="1" as="geometry">
            <mxPoint x="340.31999999999994" y="2159.48" as="sourcePoint" />
            <mxPoint x="370.32" y="2078.96" as="targetPoint" />
            <Array as="points">
              <mxPoint x="370.32" y="2159.48" />
            </Array>
          </mxGeometry>
        </mxCell>
        <mxCell id="QRGypccLNdDq8GzX22bj-509" value="&amp;nbsp;WakeUp&amp;nbsp;" style="edgeLabel;html=1;align=center;verticalAlign=middle;resizable=0;points=[];fontFamily=Courier New;fontStyle=1;labelBorderColor=default;fontSize=10;rotation=-90;" parent="QRGypccLNdDq8GzX22bj-508" vertex="1" connectable="0">
          <mxGeometry x="-0.369" relative="1" as="geometry">
            <mxPoint y="-26" as="offset" />
          </mxGeometry>
        </mxCell>
        <mxCell id="QRGypccLNdDq8GzX22bj-512" style="edgeStyle=orthogonalEdgeStyle;rounded=0;orthogonalLoop=1;jettySize=auto;html=1;fontFamily=Courier New;fontStyle=1;strokeWidth=2;endSize=3;startSize=3;endArrow=block;endFill=1;" parent="1" edge="1">
          <mxGeometry relative="1" as="geometry">
            <mxPoint x="339.9699999999999" y="2464.9" as="sourcePoint" />
            <mxPoint x="370" y="2390" as="targetPoint" />
            <Array as="points">
              <mxPoint x="369.9699999999999" y="2464.9" />
            </Array>
          </mxGeometry>
        </mxCell>
        <mxCell id="QRGypccLNdDq8GzX22bj-513" value="&amp;nbsp;WakeUp&amp;nbsp;" style="edgeLabel;html=1;align=center;verticalAlign=middle;resizable=0;points=[];fontFamily=Courier New;fontStyle=1;labelBorderColor=default;fontSize=10;rotation=-90;" parent="QRGypccLNdDq8GzX22bj-512" vertex="1" connectable="0">
          <mxGeometry x="-0.369" relative="1" as="geometry">
            <mxPoint y="-26" as="offset" />
          </mxGeometry>
        </mxCell>
        <mxCell id="QRGypccLNdDq8GzX22bj-514" style="edgeStyle=orthogonalEdgeStyle;rounded=0;orthogonalLoop=1;jettySize=auto;html=1;fontFamily=Courier New;fontStyle=1;strokeWidth=2;endSize=3;startSize=3;endArrow=block;endFill=1;exitX=1;exitY=0.25;exitDx=0;exitDy=0;" parent="1" source="QRGypccLNdDq8GzX22bj-243" edge="1">
          <mxGeometry relative="1" as="geometry">
            <mxPoint x="960" y="2540" as="sourcePoint" />
            <mxPoint x="950" y="2390" as="targetPoint" />
            <Array as="points">
              <mxPoint x="950" y="2612" />
              <mxPoint x="950" y="2465" />
            </Array>
          </mxGeometry>
        </mxCell>
        <mxCell id="QRGypccLNdDq8GzX22bj-515" value="&amp;nbsp;Replay&amp;nbsp;" style="edgeLabel;html=1;align=center;verticalAlign=middle;resizable=0;points=[];fontFamily=Courier New;fontStyle=1;labelBorderColor=default;fontSize=10;rotation=-90;" parent="QRGypccLNdDq8GzX22bj-514" vertex="1" connectable="0">
          <mxGeometry x="-0.369" relative="1" as="geometry">
            <mxPoint x="-1" y="-37" as="offset" />
          </mxGeometry>
        </mxCell>
        <mxCell id="QRGypccLNdDq8GzX22bj-516" style="edgeStyle=orthogonalEdgeStyle;rounded=0;orthogonalLoop=1;jettySize=auto;html=1;fontFamily=Courier New;fontStyle=1;strokeWidth=2;endSize=3;startSize=3;endArrow=block;endFill=1;" parent="1" edge="1">
          <mxGeometry relative="1" as="geometry">
            <mxPoint x="39.99999999999997" y="1858.6399999999999" as="sourcePoint" />
            <mxPoint x="159.43" y="1859.12" as="targetPoint" />
            <Array as="points">
              <mxPoint x="159" y="1858.08" />
            </Array>
          </mxGeometry>
        </mxCell>
        <mxCell id="QRGypccLNdDq8GzX22bj-517" value="&amp;nbsp;WakeUp-Bus&amp;nbsp;" style="edgeLabel;html=1;align=center;verticalAlign=middle;resizable=0;points=[];fontFamily=Courier New;fontStyle=1;labelBorderColor=default;fontSize=10;rotation=0;" parent="QRGypccLNdDq8GzX22bj-516" vertex="1" connectable="0">
          <mxGeometry x="-0.369" relative="1" as="geometry">
            <mxPoint x="22" as="offset" />
          </mxGeometry>
        </mxCell>
        <mxCell id="QRGypccLNdDq8GzX22bj-520" style="edgeStyle=orthogonalEdgeStyle;rounded=0;orthogonalLoop=1;jettySize=auto;html=1;fontFamily=Courier New;fontStyle=1;strokeWidth=2;endSize=3;startSize=3;endArrow=block;endFill=1;" parent="1" edge="1">
          <mxGeometry relative="1" as="geometry">
            <mxPoint x="39.99999999999997" y="1888.52" as="sourcePoint" />
            <mxPoint x="159.43" y="1889" as="targetPoint" />
            <Array as="points">
              <mxPoint x="159" y="1887.96" />
            </Array>
          </mxGeometry>
        </mxCell>
        <mxCell id="QRGypccLNdDq8GzX22bj-521" value="&amp;nbsp;Replay-Bus&amp;nbsp;" style="edgeLabel;html=1;align=center;verticalAlign=middle;resizable=0;points=[];fontFamily=Courier New;fontStyle=1;labelBorderColor=default;fontSize=10;rotation=0;" parent="QRGypccLNdDq8GzX22bj-520" vertex="1" connectable="0">
          <mxGeometry x="-0.369" relative="1" as="geometry">
            <mxPoint x="22" as="offset" />
          </mxGeometry>
        </mxCell>
        <mxCell id="QRGypccLNdDq8GzX22bj-522" style="edgeStyle=orthogonalEdgeStyle;rounded=0;orthogonalLoop=1;jettySize=auto;html=1;fontFamily=Courier New;fontStyle=1;strokeWidth=2;endSize=3;startSize=3;endArrow=block;endFill=1;" parent="1" edge="1">
          <mxGeometry relative="1" as="geometry">
            <mxPoint x="39.99999999999997" y="2270.98" as="sourcePoint" />
            <mxPoint x="159.43" y="2271.46" as="targetPoint" />
            <Array as="points">
              <mxPoint x="159" y="2270.42" />
            </Array>
          </mxGeometry>
        </mxCell>
        <mxCell id="QRGypccLNdDq8GzX22bj-523" value="&amp;nbsp;WakeUp-Bus&amp;nbsp;" style="edgeLabel;html=1;align=center;verticalAlign=middle;resizable=0;points=[];fontFamily=Courier New;fontStyle=1;labelBorderColor=default;fontSize=10;rotation=0;" parent="QRGypccLNdDq8GzX22bj-522" vertex="1" connectable="0">
          <mxGeometry x="-0.369" relative="1" as="geometry">
            <mxPoint x="22" as="offset" />
          </mxGeometry>
        </mxCell>
        <mxCell id="QRGypccLNdDq8GzX22bj-524" style="edgeStyle=orthogonalEdgeStyle;rounded=0;orthogonalLoop=1;jettySize=auto;html=1;fontFamily=Courier New;fontStyle=1;strokeWidth=2;endSize=3;startSize=3;endArrow=block;endFill=1;" parent="1" edge="1">
          <mxGeometry relative="1" as="geometry">
            <mxPoint x="39.99999999999997" y="2300.86" as="sourcePoint" />
            <mxPoint x="159.43" y="2301.34" as="targetPoint" />
            <Array as="points">
              <mxPoint x="159" y="2300.3" />
            </Array>
          </mxGeometry>
        </mxCell>
        <mxCell id="QRGypccLNdDq8GzX22bj-525" value="&amp;nbsp;Replay-Bus&amp;nbsp;" style="edgeLabel;html=1;align=center;verticalAlign=middle;resizable=0;points=[];fontFamily=Courier New;fontStyle=1;labelBorderColor=default;fontSize=10;rotation=0;" parent="QRGypccLNdDq8GzX22bj-524" vertex="1" connectable="0">
          <mxGeometry x="-0.369" relative="1" as="geometry">
            <mxPoint x="22" as="offset" />
          </mxGeometry>
        </mxCell>
        <mxCell id="QRGypccLNdDq8GzX22bj-526" value="x" style="edgeStyle=orthogonalEdgeStyle;rounded=0;orthogonalLoop=1;jettySize=auto;html=1;fontFamily=Courier New;fontStyle=1;strokeWidth=2;endSize=3;startSize=3;endArrow=block;endFill=1;" parent="1" edge="1">
          <mxGeometry relative="1" as="geometry">
            <mxPoint x="39.99999999999997" y="2431.02" as="sourcePoint" />
            <mxPoint x="159.43" y="2431.5" as="targetPoint" />
            <Array as="points">
              <mxPoint x="159" y="2430.46" />
            </Array>
          </mxGeometry>
        </mxCell>
        <mxCell id="QRGypccLNdDq8GzX22bj-527" value="&amp;nbsp;WakeUp-Bus&amp;nbsp;" style="edgeLabel;html=1;align=center;verticalAlign=middle;resizable=0;points=[];fontFamily=Courier New;fontStyle=1;labelBorderColor=default;fontSize=10;rotation=0;" parent="QRGypccLNdDq8GzX22bj-526" vertex="1" connectable="0">
          <mxGeometry x="-0.369" relative="1" as="geometry">
            <mxPoint x="22" as="offset" />
          </mxGeometry>
        </mxCell>
        <mxCell id="QRGypccLNdDq8GzX22bj-528" style="edgeStyle=orthogonalEdgeStyle;rounded=0;orthogonalLoop=1;jettySize=auto;html=1;fontFamily=Courier New;fontStyle=1;strokeWidth=2;endSize=3;startSize=3;endArrow=block;endFill=1;" parent="1" edge="1">
          <mxGeometry relative="1" as="geometry">
            <mxPoint x="39.99999999999997" y="2460.9" as="sourcePoint" />
            <mxPoint x="159.43" y="2461.38" as="targetPoint" />
            <Array as="points">
              <mxPoint x="159" y="2460.34" />
            </Array>
          </mxGeometry>
        </mxCell>
        <mxCell id="QRGypccLNdDq8GzX22bj-529" value="&amp;nbsp;Replay-Bus&amp;nbsp;" style="edgeLabel;html=1;align=center;verticalAlign=middle;resizable=0;points=[];fontFamily=Courier New;fontStyle=1;labelBorderColor=default;fontSize=10;rotation=0;" parent="QRGypccLNdDq8GzX22bj-528" vertex="1" connectable="0">
          <mxGeometry x="-0.369" relative="1" as="geometry">
            <mxPoint x="22" as="offset" />
          </mxGeometry>
        </mxCell>
        <mxCell id="QRGypccLNdDq8GzX22bj-530" style="edgeStyle=orthogonalEdgeStyle;rounded=0;orthogonalLoop=1;jettySize=auto;html=1;fontFamily=Courier New;fontStyle=1;strokeWidth=2;endSize=3;startSize=3;endArrow=block;endFill=1;" parent="1" edge="1">
          <mxGeometry relative="1" as="geometry">
            <mxPoint x="618.81" y="2465" as="sourcePoint" />
            <mxPoint x="649" y="2390" as="targetPoint" />
            <Array as="points">
              <mxPoint x="648.81" y="2465" />
            </Array>
          </mxGeometry>
        </mxCell>
        <mxCell id="QRGypccLNdDq8GzX22bj-531" value="&amp;nbsp;WakeUp&amp;nbsp;" style="edgeLabel;html=1;align=center;verticalAlign=middle;resizable=0;points=[];fontFamily=Courier New;fontStyle=1;labelBorderColor=default;fontSize=10;rotation=-90;" parent="QRGypccLNdDq8GzX22bj-530" vertex="1" connectable="0">
          <mxGeometry x="-0.369" relative="1" as="geometry">
            <mxPoint y="-30" as="offset" />
          </mxGeometry>
        </mxCell>
        <mxCell id="QRGypccLNdDq8GzX22bj-532" style="edgeStyle=orthogonalEdgeStyle;rounded=0;orthogonalLoop=1;jettySize=auto;html=1;fontFamily=Courier New;fontStyle=1;strokeWidth=2;endSize=3;startSize=3;endArrow=block;endFill=1;entryX=0.127;entryY=0.997;entryDx=0;entryDy=0;entryPerimeter=0;" parent="1" edge="1">
          <mxGeometry relative="1" as="geometry">
            <mxPoint x="1220" y="2410" as="sourcePoint" />
            <mxPoint x="1085" y="2170" as="targetPoint" />
            <Array as="points">
              <mxPoint x="1499" y="2400" />
              <mxPoint x="1499" y="2170" />
            </Array>
          </mxGeometry>
        </mxCell>
        <mxCell id="QRGypccLNdDq8GzX22bj-533" style="edgeStyle=orthogonalEdgeStyle;rounded=0;orthogonalLoop=1;jettySize=auto;html=1;fontFamily=Courier New;fontStyle=1;strokeWidth=2;endSize=3;startSize=3;endArrow=block;endFill=1;entryX=0.052;entryY=0.998;entryDx=0;entryDy=0;entryPerimeter=0;" parent="1" edge="1">
          <mxGeometry relative="1" as="geometry">
            <mxPoint x="1438.7799999999997" y="2330.11" as="sourcePoint" />
            <mxPoint x="1085" y="2204" as="targetPoint" />
            <Array as="points">
              <mxPoint x="1479" y="2330" />
              <mxPoint x="1479" y="2204" />
            </Array>
          </mxGeometry>
        </mxCell>
        <mxCell id="QRGypccLNdDq8GzX22bj-534" style="edgeStyle=orthogonalEdgeStyle;rounded=0;orthogonalLoop=1;jettySize=auto;html=1;fontFamily=Courier New;fontStyle=1;strokeWidth=2;endSize=3;startSize=3;endArrow=block;endFill=1;" parent="1" edge="1">
          <mxGeometry relative="1" as="geometry">
            <mxPoint x="1040" y="2260" as="sourcePoint" />
            <mxPoint x="650" y="2320" as="targetPoint" />
            <Array as="points">
              <mxPoint x="1040" y="2260" />
              <mxPoint x="650" y="2260" />
            </Array>
          </mxGeometry>
        </mxCell>
        <mxCell id="QRGypccLNdDq8GzX22bj-535" value="&amp;nbsp;Forward&amp;nbsp;" style="edgeLabel;html=1;align=center;verticalAlign=middle;resizable=0;points=[];fontFamily=Courier New;fontStyle=1;labelBorderColor=default;fontSize=10;" parent="QRGypccLNdDq8GzX22bj-534" vertex="1" connectable="0">
          <mxGeometry x="-0.369" relative="1" as="geometry">
            <mxPoint x="-73" as="offset" />
          </mxGeometry>
        </mxCell>
        <mxCell id="M6OPIGSJxBeqs3W8VRQL-1" value="" style="shape=waypoint;sketch=0;fillStyle=solid;size=6;pointerEvents=1;points=[];fillColor=none;resizable=0;rotatable=0;perimeter=centerPerimeter;snapToPoint=1;strokeWidth=2;fontFamily=Courier New;fontStyle=1" parent="1" vertex="1">
          <mxGeometry x="949.4300000000001" y="2789.7299999999996" width="20" height="20" as="geometry" />
        </mxCell>
        <mxCell id="evDdZKjEdUiVAyxJxtJQ-1" style="edgeStyle=orthogonalEdgeStyle;rounded=0;orthogonalLoop=1;jettySize=auto;html=1;fontFamily=Courier New;fontStyle=1;strokeWidth=2;endSize=3;startSize=3;endArrow=block;endFill=1;" edge="1" parent="1">
          <mxGeometry relative="1" as="geometry">
            <mxPoint x="920.24" y="2289.77" as="sourcePoint" />
            <mxPoint x="950.24" y="2209.25" as="targetPoint" />
            <Array as="points">
              <mxPoint x="950.24" y="2289.77" />
            </Array>
          </mxGeometry>
        </mxCell>
        <mxCell id="evDdZKjEdUiVAyxJxtJQ-2" value="&amp;nbsp;WakeUp&amp;nbsp;" style="edgeLabel;html=1;align=center;verticalAlign=middle;resizable=0;points=[];fontFamily=Courier New;fontStyle=1;labelBorderColor=default;fontSize=10;rotation=-90;" vertex="1" connectable="0" parent="evDdZKjEdUiVAyxJxtJQ-1">
          <mxGeometry x="-0.369" relative="1" as="geometry">
            <mxPoint y="-26" as="offset" />
          </mxGeometry>
        </mxCell>
      </root>
    </mxGraphModel>
  </diagram>
</mxfile>
